%TF.GenerationSoftware,KiCad,Pcbnew,7.0.7*%
%TF.CreationDate,2023-09-11T02:53:06+05:30*%
%TF.ProjectId,DR1-Powie,4452312d-506f-4776-9965-2e6b69636164,rev?*%
%TF.SameCoordinates,Original*%
%TF.FileFunction,Paste,Top*%
%TF.FilePolarity,Positive*%
%FSLAX46Y46*%
G04 Gerber Fmt 4.6, Leading zero omitted, Abs format (unit mm)*
G04 Created by KiCad (PCBNEW 7.0.7) date 2023-09-11 02:53:06*
%MOMM*%
%LPD*%
G01*
G04 APERTURE LIST*
G04 Aperture macros list*
%AMRoundRect*
0 Rectangle with rounded corners*
0 $1 Rounding radius*
0 $2 $3 $4 $5 $6 $7 $8 $9 X,Y pos of 4 corners*
0 Add a 4 corners polygon primitive as box body*
4,1,4,$2,$3,$4,$5,$6,$7,$8,$9,$2,$3,0*
0 Add four circle primitives for the rounded corners*
1,1,$1+$1,$2,$3*
1,1,$1+$1,$4,$5*
1,1,$1+$1,$6,$7*
1,1,$1+$1,$8,$9*
0 Add four rect primitives between the rounded corners*
20,1,$1+$1,$2,$3,$4,$5,0*
20,1,$1+$1,$4,$5,$6,$7,0*
20,1,$1+$1,$6,$7,$8,$9,0*
20,1,$1+$1,$8,$9,$2,$3,0*%
G04 Aperture macros list end*
%ADD10R,2.000000X1.100000*%
%ADD11R,0.800000X0.800000*%
%ADD12RoundRect,0.140000X0.170000X-0.140000X0.170000X0.140000X-0.170000X0.140000X-0.170000X-0.140000X0*%
%ADD13RoundRect,0.250000X0.325000X0.650000X-0.325000X0.650000X-0.325000X-0.650000X0.325000X-0.650000X0*%
%ADD14RoundRect,0.079500X0.100500X-0.079500X0.100500X0.079500X-0.100500X0.079500X-0.100500X-0.079500X0*%
%ADD15RoundRect,0.079500X-0.079500X-0.100500X0.079500X-0.100500X0.079500X0.100500X-0.079500X0.100500X0*%
%ADD16R,1.525000X0.650000*%
%ADD17R,2.400000X3.100000*%
%ADD18RoundRect,0.079500X-0.100500X0.079500X-0.100500X-0.079500X0.100500X-0.079500X0.100500X0.079500X0*%
%ADD19RoundRect,0.250000X-0.475000X0.250000X-0.475000X-0.250000X0.475000X-0.250000X0.475000X0.250000X0*%
%ADD20RoundRect,0.140000X-0.170000X0.140000X-0.170000X-0.140000X0.170000X-0.140000X0.170000X0.140000X0*%
%ADD21RoundRect,0.079500X0.079500X0.100500X-0.079500X0.100500X-0.079500X-0.100500X0.079500X-0.100500X0*%
%ADD22RoundRect,0.140000X-0.140000X-0.170000X0.140000X-0.170000X0.140000X0.170000X-0.140000X0.170000X0*%
%ADD23RoundRect,0.225000X0.250000X-0.225000X0.250000X0.225000X-0.250000X0.225000X-0.250000X-0.225000X0*%
%ADD24RoundRect,0.218750X0.218750X0.256250X-0.218750X0.256250X-0.218750X-0.256250X0.218750X-0.256250X0*%
%ADD25R,3.200000X2.900000*%
%ADD26R,2.700000X1.500000*%
%ADD27R,0.300000X1.400000*%
%ADD28R,0.600000X1.250000*%
%ADD29RoundRect,0.675000X0.675000X2.425000X-0.675000X2.425000X-0.675000X-2.425000X0.675000X-2.425000X0*%
%ADD30RoundRect,0.075000X0.662500X0.075000X-0.662500X0.075000X-0.662500X-0.075000X0.662500X-0.075000X0*%
%ADD31RoundRect,0.075000X0.075000X0.662500X-0.075000X0.662500X-0.075000X-0.662500X0.075000X-0.662500X0*%
G04 APERTURE END LIST*
D10*
%TO.C,D6*%
X95460000Y-49600000D03*
D11*
X97360000Y-49600000D03*
%TD*%
D12*
%TO.C,C2*%
X132940000Y-44920000D03*
X132940000Y-43960000D03*
%TD*%
D13*
%TO.C,C18*%
X93095000Y-46880000D03*
X90145000Y-46880000D03*
%TD*%
D14*
%TO.C,C10*%
X119600000Y-47245000D03*
X119600000Y-46555000D03*
%TD*%
D15*
%TO.C,R14*%
X99465000Y-49090000D03*
X100155000Y-49090000D03*
%TD*%
D16*
%TO.C,IC3*%
X95540000Y-43860000D03*
X95540000Y-45130000D03*
X95540000Y-46400000D03*
X95540000Y-47670000D03*
X100964000Y-47670000D03*
X100964000Y-46400000D03*
X100964000Y-45130000D03*
X100964000Y-43860000D03*
D17*
X98252000Y-45765000D03*
%TD*%
D18*
%TO.C,R19*%
X115200000Y-50400000D03*
X115200000Y-51090000D03*
%TD*%
%TO.C,R18*%
X114400000Y-50400000D03*
X114400000Y-51090000D03*
%TD*%
D15*
%TO.C,R11*%
X119065000Y-50660000D03*
X119755000Y-50660000D03*
%TD*%
D19*
%TO.C,C23*%
X113000000Y-40550000D03*
X113000000Y-42450000D03*
%TD*%
D15*
%TO.C,C6*%
X130175000Y-50080000D03*
X130865000Y-50080000D03*
%TD*%
D20*
%TO.C,C1*%
X132930000Y-45950000D03*
X132930000Y-46910000D03*
%TD*%
D14*
%TO.C,C12*%
X112400000Y-49645000D03*
X112400000Y-48955000D03*
%TD*%
D21*
%TO.C,C3*%
X122885000Y-40750000D03*
X122195000Y-40750000D03*
%TD*%
D18*
%TO.C,R17*%
X110130000Y-48305000D03*
X110130000Y-48995000D03*
%TD*%
D22*
%TO.C,C7*%
X132270000Y-42190000D03*
X133230000Y-42190000D03*
%TD*%
D23*
%TO.C,C20*%
X93550000Y-44865000D03*
X93550000Y-43315000D03*
%TD*%
D21*
%TO.C,R15*%
X101765000Y-49080000D03*
X101075000Y-49080000D03*
%TD*%
D19*
%TO.C,C22*%
X110800000Y-40550000D03*
X110800000Y-42450000D03*
%TD*%
D24*
%TO.C,D5*%
X120657500Y-49380000D03*
X119082500Y-49380000D03*
%TD*%
D25*
%TO.C,L2*%
X105990000Y-43960000D03*
X105990000Y-49560000D03*
%TD*%
D18*
%TO.C,R1*%
X112300000Y-47055000D03*
X112300000Y-47745000D03*
%TD*%
D26*
%TO.C,Y1*%
X135960000Y-46440000D03*
X135960000Y-44540000D03*
%TD*%
D15*
%TO.C,C8*%
X132305000Y-41280000D03*
X132995000Y-41280000D03*
%TD*%
%TO.C,C21*%
X100170000Y-42480000D03*
X100860000Y-42480000D03*
%TD*%
D27*
%TO.C,IC1*%
X115600000Y-44500000D03*
X115100000Y-44500000D03*
X114600000Y-44500000D03*
X114100000Y-44500000D03*
X113600000Y-44500000D03*
X113600000Y-48900000D03*
X114100000Y-48900000D03*
X114600000Y-48900000D03*
X115100000Y-48900000D03*
X115600000Y-48900000D03*
%TD*%
D18*
%TO.C,R16*%
X110120000Y-46565000D03*
X110120000Y-47255000D03*
%TD*%
D14*
%TO.C,C4*%
X120880000Y-47805000D03*
X120880000Y-47115000D03*
%TD*%
D28*
%TO.C,D7*%
X115200000Y-42000000D03*
X117100000Y-42000000D03*
X116150000Y-40000000D03*
%TD*%
D29*
%TO.C,R12*%
X118995000Y-55240000D03*
X110695000Y-55240000D03*
%TD*%
D30*
%TO.C,U1*%
X130722500Y-47720000D03*
X130722500Y-47220000D03*
X130722500Y-46720000D03*
X130722500Y-46220000D03*
X130722500Y-45720000D03*
X130722500Y-45220000D03*
X130722500Y-44720000D03*
X130722500Y-44220000D03*
X130722500Y-43720000D03*
X130722500Y-43220000D03*
X130722500Y-42720000D03*
X130722500Y-42220000D03*
D31*
X129310000Y-40807500D03*
X128810000Y-40807500D03*
X128310000Y-40807500D03*
X127810000Y-40807500D03*
X127310000Y-40807500D03*
X126810000Y-40807500D03*
X126310000Y-40807500D03*
X125810000Y-40807500D03*
X125310000Y-40807500D03*
X124810000Y-40807500D03*
X124310000Y-40807500D03*
X123810000Y-40807500D03*
D30*
X122397500Y-42220000D03*
X122397500Y-42720000D03*
X122397500Y-43220000D03*
X122397500Y-43720000D03*
X122397500Y-44220000D03*
X122397500Y-44720000D03*
X122397500Y-45220000D03*
X122397500Y-45720000D03*
X122397500Y-46220000D03*
X122397500Y-46720000D03*
X122397500Y-47220000D03*
X122397500Y-47720000D03*
D31*
X123810000Y-49132500D03*
X124310000Y-49132500D03*
X124810000Y-49132500D03*
X125310000Y-49132500D03*
X125810000Y-49132500D03*
X126310000Y-49132500D03*
X126810000Y-49132500D03*
X127310000Y-49132500D03*
X127810000Y-49132500D03*
X128310000Y-49132500D03*
X128810000Y-49132500D03*
X129310000Y-49132500D03*
%TD*%
D15*
%TO.C,R4*%
X127505000Y-51070000D03*
X128195000Y-51070000D03*
%TD*%
D18*
%TO.C,C5*%
X131350000Y-48605000D03*
X131350000Y-49295000D03*
%TD*%
D13*
%TO.C,C17*%
X93095000Y-49340000D03*
X90145000Y-49340000D03*
%TD*%
M02*
