M48
; DRILL file {KiCad 7.0.7} date Mon Sep 11 02:53:13 2023
; FORMAT={-:-/ absolute / metric / decimal}
; #@! TF.CreationDate,2023-09-11T02:53:13+05:30
; #@! TF.GenerationSoftware,Kicad,Pcbnew,7.0.7
; #@! TF.FileFunction,Plated,1,2,PTH
FMAT,2
METRIC
; #@! TA.AperFunction,Plated,PTH,ViaDrill
T1C0.300
; #@! TA.AperFunction,Plated,PTH,ComponentDrill
T2C0.600
; #@! TA.AperFunction,Plated,PTH,ComponentDrill
T3C1.000
; #@! TA.AperFunction,Plated,PTH,ComponentDrill
T4C2.700
%
G90
G05
T1
X90.09Y-49.38
X93.06Y-49.34
X96.68Y-41.79
X102.86Y-41.81
X104.63Y-47.11
X105.8Y-41.85
X108.58Y-47.4
X108.815Y-50.715
X110.5Y-45.5
X111.8Y-44.6
X112.1Y-51.5
X113.8Y-50.5
X115.2Y-42.0
X116.1Y-50.3
X116.15Y-40.0
X116.5Y-47.4
X116.55Y-42.15
X116.7Y-49.05
X116.9Y-46.7
X117.75Y-46.35
X118.55Y-46.55
X118.85Y-41.6
X120.2Y-47.6
X120.7Y-50.6
X120.9Y-44.6
X121.0Y-43.4
X122.1Y-41.35
X123.85Y-46.8
X124.1Y-42.35
X124.7Y-46.45
X124.7Y-50.4
X125.1Y-45.4
X125.2Y-43.0
X125.7Y-42.1
X126.4Y-47.3
X126.6Y-42.3
X126.75Y-43.6
X127.6Y-42.1
X127.9Y-45.85
X128.0Y-44.15
X128.0Y-45.05
X128.9Y-43.7
X129.5Y-45.55
X129.5Y-48.0
X131.6Y-39.6
X132.1Y-44.22
X132.2Y-46.4
X133.5Y-43.4
X133.5Y-47.5
X134.2Y-48.0
X134.3Y-43.0
X135.1Y-48.0
X135.2Y-43.0
X136.0Y-39.5
X136.0Y-43.0
X136.0Y-48.0
X136.8Y-43.0
X136.8Y-48.0
X137.6Y-43.0
X137.6Y-47.9
X138.1Y-43.7
X138.1Y-44.5
X138.1Y-45.4
X138.1Y-46.3
X138.1Y-47.2
X138.2Y-40.55
T3
X90.85Y-40.695
X90.85Y-43.235
X94.74Y-40.19
X97.28Y-40.19
X99.82Y-40.19
X102.36Y-40.19
X104.9Y-40.19
X107.44Y-40.19
T4
X105.24Y-55.41
X105.24Y-62.61
X124.43Y-55.34
X124.43Y-62.54
T2
G00X99.79Y-52.26
M15
G01X98.69Y-52.26
M16
G05
G00X99.79Y-65.76
M15
G01X98.69Y-65.76
M16
G05
G00X129.88Y-52.19
M15
G01X130.98Y-52.19
M16
G05
G00X129.88Y-65.69
M15
G01X130.98Y-65.69
M16
G05
T0
M30
