%TF.GenerationSoftware,KiCad,Pcbnew,7.0.7*%
%TF.CreationDate,2023-09-11T02:53:06+05:30*%
%TF.ProjectId,DR1-Powie,4452312d-506f-4776-9965-2e6b69636164,rev?*%
%TF.SameCoordinates,Original*%
%TF.FileFunction,Soldermask,Top*%
%TF.FilePolarity,Negative*%
%FSLAX46Y46*%
G04 Gerber Fmt 4.6, Leading zero omitted, Abs format (unit mm)*
G04 Created by KiCad (PCBNEW 7.0.7) date 2023-09-11 02:53:06*
%MOMM*%
%LPD*%
G01*
G04 APERTURE LIST*
G04 Aperture macros list*
%AMRoundRect*
0 Rectangle with rounded corners*
0 $1 Rounding radius*
0 $2 $3 $4 $5 $6 $7 $8 $9 X,Y pos of 4 corners*
0 Add a 4 corners polygon primitive as box body*
4,1,4,$2,$3,$4,$5,$6,$7,$8,$9,$2,$3,0*
0 Add four circle primitives for the rounded corners*
1,1,$1+$1,$2,$3*
1,1,$1+$1,$4,$5*
1,1,$1+$1,$6,$7*
1,1,$1+$1,$8,$9*
0 Add four rect primitives between the rounded corners*
20,1,$1+$1,$2,$3,$4,$5,0*
20,1,$1+$1,$4,$5,$6,$7,0*
20,1,$1+$1,$6,$7,$8,$9,0*
20,1,$1+$1,$8,$9,$2,$3,0*%
G04 Aperture macros list end*
%ADD10R,2.000000X1.100000*%
%ADD11R,0.800000X0.800000*%
%ADD12RoundRect,0.140000X0.170000X-0.140000X0.170000X0.140000X-0.170000X0.140000X-0.170000X-0.140000X0*%
%ADD13RoundRect,0.250000X0.325000X0.650000X-0.325000X0.650000X-0.325000X-0.650000X0.325000X-0.650000X0*%
%ADD14RoundRect,0.100000X0.100000X-0.130000X0.100000X0.130000X-0.100000X0.130000X-0.100000X-0.130000X0*%
%ADD15RoundRect,0.100000X-0.130000X-0.100000X0.130000X-0.100000X0.130000X0.100000X-0.130000X0.100000X0*%
%ADD16R,1.525000X0.650000*%
%ADD17R,2.400000X3.100000*%
%ADD18R,1.700000X1.700000*%
%ADD19O,1.700000X1.700000*%
%ADD20RoundRect,0.100000X-0.100000X0.130000X-0.100000X-0.130000X0.100000X-0.130000X0.100000X0.130000X0*%
%ADD21C,1.000000*%
%ADD22RoundRect,0.250000X-0.475000X0.250000X-0.475000X-0.250000X0.475000X-0.250000X0.475000X0.250000X0*%
%ADD23RoundRect,0.140000X-0.170000X0.140000X-0.170000X-0.140000X0.170000X-0.140000X0.170000X0.140000X0*%
%ADD24RoundRect,0.100000X0.130000X0.100000X-0.130000X0.100000X-0.130000X-0.100000X0.130000X-0.100000X0*%
%ADD25RoundRect,0.140000X-0.140000X-0.170000X0.140000X-0.170000X0.140000X0.170000X-0.140000X0.170000X0*%
%ADD26RoundRect,0.225000X0.250000X-0.225000X0.250000X0.225000X-0.250000X0.225000X-0.250000X-0.225000X0*%
%ADD27RoundRect,0.218750X0.218750X0.256250X-0.218750X0.256250X-0.218750X-0.256250X0.218750X-0.256250X0*%
%ADD28R,3.200000X2.900000*%
%ADD29R,2.700000X1.500000*%
%ADD30R,0.300000X1.400000*%
%ADD31R,0.600000X1.250000*%
%ADD32RoundRect,0.675000X0.675000X2.425000X-0.675000X2.425000X-0.675000X-2.425000X0.675000X-2.425000X0*%
%ADD33RoundRect,0.075000X0.662500X0.075000X-0.662500X0.075000X-0.662500X-0.075000X0.662500X-0.075000X0*%
%ADD34RoundRect,0.075000X0.075000X0.662500X-0.075000X0.662500X-0.075000X-0.662500X0.075000X-0.662500X0*%
%ADD35R,2.200000X1.100000*%
%ADD36RoundRect,1.025000X1.025000X-1.025000X1.025000X1.025000X-1.025000X1.025000X-1.025000X-1.025000X0*%
%ADD37C,4.100000*%
%ADD38RoundRect,1.025000X-1.025000X1.025000X-1.025000X-1.025000X1.025000X-1.025000X1.025000X1.025000X0*%
G04 APERTURE END LIST*
D10*
%TO.C,D6*%
X95460000Y-49600000D03*
D11*
X97360000Y-49600000D03*
%TD*%
D12*
%TO.C,C2*%
X132940000Y-44920000D03*
X132940000Y-43960000D03*
%TD*%
D13*
%TO.C,C18*%
X93095000Y-46880000D03*
X90145000Y-46880000D03*
%TD*%
D14*
%TO.C,C10*%
X119600000Y-47220000D03*
X119600000Y-46580000D03*
%TD*%
D15*
%TO.C,R14*%
X99490000Y-49090000D03*
X100130000Y-49090000D03*
%TD*%
D16*
%TO.C,IC3*%
X95540000Y-43860000D03*
X95540000Y-45130000D03*
X95540000Y-46400000D03*
X95540000Y-47670000D03*
X100964000Y-47670000D03*
X100964000Y-46400000D03*
X100964000Y-45130000D03*
X100964000Y-43860000D03*
D17*
X98252000Y-45765000D03*
%TD*%
D18*
%TO.C,J5*%
X107440000Y-40190000D03*
D19*
X104900000Y-40190000D03*
X102360000Y-40190000D03*
X99820000Y-40190000D03*
X97280000Y-40190000D03*
X94740000Y-40190000D03*
%TD*%
D20*
%TO.C,R19*%
X115200000Y-50425000D03*
X115200000Y-51065000D03*
%TD*%
D21*
%TO.C,TP2*%
X134980000Y-40720000D03*
%TD*%
D20*
%TO.C,R18*%
X114400000Y-50425000D03*
X114400000Y-51065000D03*
%TD*%
D15*
%TO.C,R11*%
X119090000Y-50660000D03*
X119730000Y-50660000D03*
%TD*%
D22*
%TO.C,C23*%
X113000000Y-40550000D03*
X113000000Y-42450000D03*
%TD*%
D15*
%TO.C,C6*%
X130200000Y-50080000D03*
X130840000Y-50080000D03*
%TD*%
D23*
%TO.C,C1*%
X132930000Y-45950000D03*
X132930000Y-46910000D03*
%TD*%
D18*
%TO.C,J4*%
X90850000Y-40695000D03*
D19*
X90850000Y-43235000D03*
%TD*%
D14*
%TO.C,C12*%
X112400000Y-49620000D03*
X112400000Y-48980000D03*
%TD*%
D24*
%TO.C,C3*%
X122860000Y-40750000D03*
X122220000Y-40750000D03*
%TD*%
D20*
%TO.C,R17*%
X110130000Y-48330000D03*
X110130000Y-48970000D03*
%TD*%
D25*
%TO.C,C7*%
X132270000Y-42190000D03*
X133230000Y-42190000D03*
%TD*%
D26*
%TO.C,C20*%
X93550000Y-44865000D03*
X93550000Y-43315000D03*
%TD*%
D24*
%TO.C,R15*%
X101740000Y-49080000D03*
X101100000Y-49080000D03*
%TD*%
D22*
%TO.C,C22*%
X110800000Y-40550000D03*
X110800000Y-42450000D03*
%TD*%
D27*
%TO.C,D5*%
X120657500Y-49380000D03*
X119082500Y-49380000D03*
%TD*%
D28*
%TO.C,L2*%
X105990000Y-43960000D03*
X105990000Y-49560000D03*
%TD*%
D20*
%TO.C,R1*%
X112300000Y-47080000D03*
X112300000Y-47720000D03*
%TD*%
D29*
%TO.C,Y1*%
X135960000Y-46440000D03*
X135960000Y-44540000D03*
%TD*%
D15*
%TO.C,C8*%
X132330000Y-41280000D03*
X132970000Y-41280000D03*
%TD*%
%TO.C,C21*%
X100195000Y-42480000D03*
X100835000Y-42480000D03*
%TD*%
D30*
%TO.C,IC1*%
X115600000Y-44500000D03*
X115100000Y-44500000D03*
X114600000Y-44500000D03*
X114100000Y-44500000D03*
X113600000Y-44500000D03*
X113600000Y-48900000D03*
X114100000Y-48900000D03*
X114600000Y-48900000D03*
X115100000Y-48900000D03*
X115600000Y-48900000D03*
%TD*%
D20*
%TO.C,R16*%
X110120000Y-46590000D03*
X110120000Y-47230000D03*
%TD*%
D14*
%TO.C,C4*%
X120880000Y-47780000D03*
X120880000Y-47140000D03*
%TD*%
D31*
%TO.C,D7*%
X115200000Y-42000000D03*
X117100000Y-42000000D03*
X116150000Y-40000000D03*
%TD*%
D32*
%TO.C,R12*%
X118995000Y-55240000D03*
X110695000Y-55240000D03*
%TD*%
D33*
%TO.C,U1*%
X130722500Y-47720000D03*
X130722500Y-47220000D03*
X130722500Y-46720000D03*
X130722500Y-46220000D03*
X130722500Y-45720000D03*
X130722500Y-45220000D03*
X130722500Y-44720000D03*
X130722500Y-44220000D03*
X130722500Y-43720000D03*
X130722500Y-43220000D03*
X130722500Y-42720000D03*
X130722500Y-42220000D03*
D34*
X129310000Y-40807500D03*
X128810000Y-40807500D03*
X128310000Y-40807500D03*
X127810000Y-40807500D03*
X127310000Y-40807500D03*
X126810000Y-40807500D03*
X126310000Y-40807500D03*
X125810000Y-40807500D03*
X125310000Y-40807500D03*
X124810000Y-40807500D03*
X124310000Y-40807500D03*
X123810000Y-40807500D03*
D33*
X122397500Y-42220000D03*
X122397500Y-42720000D03*
X122397500Y-43220000D03*
X122397500Y-43720000D03*
X122397500Y-44220000D03*
X122397500Y-44720000D03*
X122397500Y-45220000D03*
X122397500Y-45720000D03*
X122397500Y-46220000D03*
X122397500Y-46720000D03*
X122397500Y-47220000D03*
X122397500Y-47720000D03*
D34*
X123810000Y-49132500D03*
X124310000Y-49132500D03*
X124810000Y-49132500D03*
X125310000Y-49132500D03*
X125810000Y-49132500D03*
X126310000Y-49132500D03*
X126810000Y-49132500D03*
X127310000Y-49132500D03*
X127810000Y-49132500D03*
X128310000Y-49132500D03*
X128810000Y-49132500D03*
X129310000Y-49132500D03*
%TD*%
D15*
%TO.C,R4*%
X127530000Y-51070000D03*
X128170000Y-51070000D03*
%TD*%
D20*
%TO.C,C5*%
X131350000Y-48630000D03*
X131350000Y-49270000D03*
%TD*%
D13*
%TO.C,C17*%
X93095000Y-49340000D03*
X90145000Y-49340000D03*
%TD*%
D35*
%TO.C,J2*%
X130430000Y-65690000D03*
X130430000Y-52190000D03*
D36*
X124430000Y-55340000D03*
D37*
X124430000Y-62540000D03*
%TD*%
D35*
%TO.C,J1*%
X99240000Y-52260000D03*
X99240000Y-65760000D03*
D38*
X105240000Y-55410000D03*
D37*
X105240000Y-62610000D03*
%TD*%
G36*
X111975549Y-52361327D02*
G01*
X112030208Y-52415743D01*
X112050336Y-52490199D01*
X112050336Y-58382528D01*
X112030374Y-58457028D01*
X111975836Y-58511566D01*
X111901666Y-58531528D01*
X103170391Y-58550866D01*
X103095847Y-58531068D01*
X103041189Y-58476652D01*
X103021061Y-58402196D01*
X103021063Y-58401144D01*
X103049618Y-52509148D01*
X103069941Y-52434746D01*
X103124742Y-52380473D01*
X103198285Y-52360870D01*
X111901005Y-52341530D01*
X111975549Y-52361327D01*
G37*
G36*
X126605212Y-52361327D02*
G01*
X126659871Y-52415743D01*
X126679999Y-52490199D01*
X126679999Y-52490530D01*
X126680000Y-58382528D01*
X126660038Y-58457028D01*
X126605500Y-58511566D01*
X126531330Y-58531528D01*
X117800055Y-58550866D01*
X117725511Y-58531068D01*
X117670853Y-58476652D01*
X117650725Y-58402196D01*
X117650727Y-58401144D01*
X117679282Y-52509148D01*
X117699605Y-52434746D01*
X117754406Y-52380473D01*
X117827949Y-52360870D01*
X126530668Y-52341530D01*
X126605212Y-52361327D01*
G37*
G36*
X126923762Y-60020119D02*
G01*
X126978412Y-60074544D01*
X126998528Y-60149003D01*
X126998521Y-60150771D01*
X126951440Y-64953066D01*
X126930748Y-65027366D01*
X126875678Y-65081367D01*
X126803060Y-65100604D01*
X102802546Y-65199372D01*
X102727965Y-65179716D01*
X102673203Y-65125403D01*
X102652934Y-65050986D01*
X102652961Y-65047480D01*
X102747168Y-60195806D01*
X102768573Y-60121708D01*
X102824159Y-60068239D01*
X102895833Y-60049699D01*
X126849221Y-60000310D01*
X126923762Y-60020119D01*
G37*
M02*
