%TF.GenerationSoftware,KiCad,Pcbnew,7.0.7*%
%TF.CreationDate,2023-09-11T02:53:06+05:30*%
%TF.ProjectId,DR1-Powie,4452312d-506f-4776-9965-2e6b69636164,rev?*%
%TF.SameCoordinates,Original*%
%TF.FileFunction,Soldermask,Bot*%
%TF.FilePolarity,Negative*%
%FSLAX46Y46*%
G04 Gerber Fmt 4.6, Leading zero omitted, Abs format (unit mm)*
G04 Created by KiCad (PCBNEW 7.0.7) date 2023-09-11 02:53:06*
%MOMM*%
%LPD*%
G01*
G04 APERTURE LIST*
G04 Aperture macros list*
%AMRoundRect*
0 Rectangle with rounded corners*
0 $1 Rounding radius*
0 $2 $3 $4 $5 $6 $7 $8 $9 X,Y pos of 4 corners*
0 Add a 4 corners polygon primitive as box body*
4,1,4,$2,$3,$4,$5,$6,$7,$8,$9,$2,$3,0*
0 Add four circle primitives for the rounded corners*
1,1,$1+$1,$2,$3*
1,1,$1+$1,$4,$5*
1,1,$1+$1,$6,$7*
1,1,$1+$1,$8,$9*
0 Add four rect primitives between the rounded corners*
20,1,$1+$1,$2,$3,$4,$5,0*
20,1,$1+$1,$4,$5,$6,$7,0*
20,1,$1+$1,$6,$7,$8,$9,0*
20,1,$1+$1,$8,$9,$2,$3,0*%
G04 Aperture macros list end*
%ADD10R,1.700000X1.700000*%
%ADD11O,1.700000X1.700000*%
%ADD12R,1.750000X0.600000*%
%ADD13RoundRect,0.100000X0.100000X-0.130000X0.100000X0.130000X-0.100000X0.130000X-0.100000X-0.130000X0*%
%ADD14RoundRect,0.135000X-0.135000X-0.185000X0.135000X-0.185000X0.135000X0.185000X-0.135000X0.185000X0*%
%ADD15RoundRect,0.218750X0.256250X-0.218750X0.256250X0.218750X-0.256250X0.218750X-0.256250X-0.218750X0*%
%ADD16RoundRect,0.100000X-0.130000X-0.100000X0.130000X-0.100000X0.130000X0.100000X-0.130000X0.100000X0*%
%ADD17RoundRect,0.140000X-0.170000X0.140000X-0.170000X-0.140000X0.170000X-0.140000X0.170000X0.140000X0*%
%ADD18RoundRect,0.140000X-0.140000X-0.170000X0.140000X-0.170000X0.140000X0.170000X-0.140000X0.170000X0*%
%ADD19RoundRect,0.250000X0.325000X0.650000X-0.325000X0.650000X-0.325000X-0.650000X0.325000X-0.650000X0*%
%ADD20R,2.200000X1.100000*%
%ADD21RoundRect,1.025000X1.025000X-1.025000X1.025000X1.025000X-1.025000X1.025000X-1.025000X-1.025000X0*%
%ADD22C,4.100000*%
%ADD23RoundRect,0.100000X-0.100000X0.130000X-0.100000X-0.130000X0.100000X-0.130000X0.100000X0.130000X0*%
%ADD24R,0.650000X0.350000*%
%ADD25R,1.550000X2.400000*%
%ADD26RoundRect,1.025000X-1.025000X1.025000X-1.025000X-1.025000X1.025000X-1.025000X1.025000X1.025000X0*%
%ADD27RoundRect,0.100000X0.130000X0.100000X-0.130000X0.100000X-0.130000X-0.100000X0.130000X-0.100000X0*%
%ADD28R,0.980000X3.700000*%
%ADD29RoundRect,0.150000X-0.150000X-0.700000X0.150000X-0.700000X0.150000X0.700000X-0.150000X0.700000X0*%
%ADD30RoundRect,0.250000X-0.250000X-1.100000X0.250000X-1.100000X0.250000X1.100000X-0.250000X1.100000X0*%
%ADD31R,0.600000X1.200000*%
%ADD32RoundRect,0.135000X-0.185000X0.135000X-0.185000X-0.135000X0.185000X-0.135000X0.185000X0.135000X0*%
G04 APERTURE END LIST*
D10*
%TO.C,J5*%
X107440000Y-40190000D03*
D11*
X104900000Y-40190000D03*
X102360000Y-40190000D03*
X99820000Y-40190000D03*
X97280000Y-40190000D03*
X94740000Y-40190000D03*
%TD*%
D10*
%TO.C,J4*%
X90850000Y-40695000D03*
D11*
X90850000Y-43235000D03*
%TD*%
D12*
%TO.C,JDBG1*%
X111650000Y-47040000D03*
X109900000Y-48040000D03*
X111650000Y-49040000D03*
X109900000Y-50040000D03*
%TD*%
D13*
%TO.C,C11*%
X126560000Y-46520000D03*
X126560000Y-45880000D03*
%TD*%
D14*
%TO.C,R9*%
X122490000Y-44400000D03*
X123510000Y-44400000D03*
%TD*%
D15*
%TO.C,D2*%
X130870000Y-41187500D03*
X130870000Y-39612500D03*
%TD*%
D16*
%TO.C,R6*%
X136845000Y-40227500D03*
X137485000Y-40227500D03*
%TD*%
D17*
%TO.C,C16*%
X101930000Y-46330000D03*
X101930000Y-47290000D03*
%TD*%
D13*
%TO.C,C9*%
X127400000Y-46520000D03*
X127400000Y-45880000D03*
%TD*%
D16*
%TO.C,R5*%
X136890000Y-39327500D03*
X137530000Y-39327500D03*
%TD*%
D18*
%TO.C,C24*%
X114420000Y-50000000D03*
X115380000Y-50000000D03*
%TD*%
D19*
%TO.C,C19*%
X93095000Y-49340000D03*
X90145000Y-49340000D03*
%TD*%
D15*
%TO.C,D1*%
X129100000Y-41187500D03*
X129100000Y-39612500D03*
%TD*%
D20*
%TO.C,J2*%
X130430000Y-65690000D03*
X130430000Y-52190000D03*
D21*
X124430000Y-55340000D03*
D22*
X124430000Y-62540000D03*
%TD*%
D16*
%TO.C,R7*%
X136880000Y-41800000D03*
X137520000Y-41800000D03*
%TD*%
D23*
%TO.C,R2*%
X129950000Y-46220000D03*
X129950000Y-46860000D03*
%TD*%
D24*
%TO.C,U2*%
X125400000Y-45800000D03*
X125400000Y-46450000D03*
X125400000Y-47100000D03*
X125400000Y-47750000D03*
X122300000Y-47750000D03*
X122300000Y-47100000D03*
X122300000Y-46450000D03*
X122300000Y-45800000D03*
D25*
X123850000Y-46775000D03*
%TD*%
D20*
%TO.C,J1*%
X99240000Y-52260000D03*
X99240000Y-65760000D03*
D26*
X105240000Y-55410000D03*
D22*
X105240000Y-62610000D03*
%TD*%
D27*
%TO.C,R3*%
X100100000Y-48490000D03*
X99460000Y-48490000D03*
%TD*%
D28*
%TO.C,L1*%
X97797500Y-45757500D03*
X100167500Y-45757500D03*
%TD*%
D27*
%TO.C,C14*%
X94317500Y-43152500D03*
X93677500Y-43152500D03*
%TD*%
%TO.C,C13*%
X94327500Y-42322500D03*
X93687500Y-42322500D03*
%TD*%
D29*
%TO.C,J3*%
X112675000Y-43350000D03*
X113925000Y-43350000D03*
X115175000Y-43350000D03*
X116425000Y-43350000D03*
X117675000Y-43350000D03*
X118925000Y-43350000D03*
D30*
X110825000Y-40150000D03*
X120775000Y-40150000D03*
%TD*%
D27*
%TO.C,R13*%
X98510000Y-48500000D03*
X97870000Y-48500000D03*
%TD*%
D15*
%TO.C,D4*%
X134290000Y-41127500D03*
X134290000Y-39552500D03*
%TD*%
D27*
%TO.C,C15*%
X96810000Y-48540000D03*
X96170000Y-48540000D03*
%TD*%
D31*
%TO.C,IC2*%
X95742500Y-46992500D03*
X94792500Y-46992500D03*
X93842500Y-46992500D03*
X93842500Y-44492500D03*
X94792500Y-44492500D03*
X95742500Y-44492500D03*
%TD*%
D15*
%TO.C,D3*%
X132580000Y-41137500D03*
X132580000Y-39562500D03*
%TD*%
D32*
%TO.C,R10*%
X120870000Y-45900000D03*
X120870000Y-46920000D03*
%TD*%
D16*
%TO.C,R8*%
X136830000Y-41000000D03*
X137470000Y-41000000D03*
%TD*%
M02*
