%TF.GenerationSoftware,KiCad,Pcbnew,7.0.7*%
%TF.CreationDate,2023-09-11T02:53:06+05:30*%
%TF.ProjectId,DR1-Powie,4452312d-506f-4776-9965-2e6b69636164,rev?*%
%TF.SameCoordinates,Original*%
%TF.FileFunction,Copper,L2,Bot*%
%TF.FilePolarity,Positive*%
%FSLAX46Y46*%
G04 Gerber Fmt 4.6, Leading zero omitted, Abs format (unit mm)*
G04 Created by KiCad (PCBNEW 7.0.7) date 2023-09-11 02:53:06*
%MOMM*%
%LPD*%
G01*
G04 APERTURE LIST*
G04 Aperture macros list*
%AMRoundRect*
0 Rectangle with rounded corners*
0 $1 Rounding radius*
0 $2 $3 $4 $5 $6 $7 $8 $9 X,Y pos of 4 corners*
0 Add a 4 corners polygon primitive as box body*
4,1,4,$2,$3,$4,$5,$6,$7,$8,$9,$2,$3,0*
0 Add four circle primitives for the rounded corners*
1,1,$1+$1,$2,$3*
1,1,$1+$1,$4,$5*
1,1,$1+$1,$6,$7*
1,1,$1+$1,$8,$9*
0 Add four rect primitives between the rounded corners*
20,1,$1+$1,$2,$3,$4,$5,0*
20,1,$1+$1,$4,$5,$6,$7,0*
20,1,$1+$1,$6,$7,$8,$9,0*
20,1,$1+$1,$8,$9,$2,$3,0*%
G04 Aperture macros list end*
%TA.AperFunction,ComponentPad*%
%ADD10R,1.700000X1.700000*%
%TD*%
%TA.AperFunction,ComponentPad*%
%ADD11O,1.700000X1.700000*%
%TD*%
%TA.AperFunction,SMDPad,CuDef*%
%ADD12R,1.750000X0.600000*%
%TD*%
%TA.AperFunction,SMDPad,CuDef*%
%ADD13RoundRect,0.100000X0.100000X-0.130000X0.100000X0.130000X-0.100000X0.130000X-0.100000X-0.130000X0*%
%TD*%
%TA.AperFunction,SMDPad,CuDef*%
%ADD14RoundRect,0.135000X-0.135000X-0.185000X0.135000X-0.185000X0.135000X0.185000X-0.135000X0.185000X0*%
%TD*%
%TA.AperFunction,SMDPad,CuDef*%
%ADD15RoundRect,0.218750X0.256250X-0.218750X0.256250X0.218750X-0.256250X0.218750X-0.256250X-0.218750X0*%
%TD*%
%TA.AperFunction,SMDPad,CuDef*%
%ADD16RoundRect,0.100000X-0.130000X-0.100000X0.130000X-0.100000X0.130000X0.100000X-0.130000X0.100000X0*%
%TD*%
%TA.AperFunction,SMDPad,CuDef*%
%ADD17RoundRect,0.140000X-0.170000X0.140000X-0.170000X-0.140000X0.170000X-0.140000X0.170000X0.140000X0*%
%TD*%
%TA.AperFunction,SMDPad,CuDef*%
%ADD18RoundRect,0.140000X-0.140000X-0.170000X0.140000X-0.170000X0.140000X0.170000X-0.140000X0.170000X0*%
%TD*%
%TA.AperFunction,SMDPad,CuDef*%
%ADD19RoundRect,0.250000X0.325000X0.650000X-0.325000X0.650000X-0.325000X-0.650000X0.325000X-0.650000X0*%
%TD*%
%TA.AperFunction,ComponentPad*%
%ADD20R,2.200000X1.100000*%
%TD*%
%TA.AperFunction,ComponentPad*%
%ADD21RoundRect,1.025000X1.025000X-1.025000X1.025000X1.025000X-1.025000X1.025000X-1.025000X-1.025000X0*%
%TD*%
%TA.AperFunction,ComponentPad*%
%ADD22C,4.100000*%
%TD*%
%TA.AperFunction,SMDPad,CuDef*%
%ADD23RoundRect,0.100000X-0.100000X0.130000X-0.100000X-0.130000X0.100000X-0.130000X0.100000X0.130000X0*%
%TD*%
%TA.AperFunction,SMDPad,CuDef*%
%ADD24R,0.650000X0.350000*%
%TD*%
%TA.AperFunction,SMDPad,CuDef*%
%ADD25R,1.550000X2.400000*%
%TD*%
%TA.AperFunction,ComponentPad*%
%ADD26RoundRect,1.025000X-1.025000X1.025000X-1.025000X-1.025000X1.025000X-1.025000X1.025000X1.025000X0*%
%TD*%
%TA.AperFunction,SMDPad,CuDef*%
%ADD27RoundRect,0.100000X0.130000X0.100000X-0.130000X0.100000X-0.130000X-0.100000X0.130000X-0.100000X0*%
%TD*%
%TA.AperFunction,SMDPad,CuDef*%
%ADD28R,0.980000X3.700000*%
%TD*%
%TA.AperFunction,SMDPad,CuDef*%
%ADD29RoundRect,0.150000X-0.150000X-0.700000X0.150000X-0.700000X0.150000X0.700000X-0.150000X0.700000X0*%
%TD*%
%TA.AperFunction,SMDPad,CuDef*%
%ADD30RoundRect,0.250000X-0.250000X-1.100000X0.250000X-1.100000X0.250000X1.100000X-0.250000X1.100000X0*%
%TD*%
%TA.AperFunction,SMDPad,CuDef*%
%ADD31R,0.600000X1.200000*%
%TD*%
%TA.AperFunction,SMDPad,CuDef*%
%ADD32RoundRect,0.135000X-0.185000X0.135000X-0.185000X-0.135000X0.185000X-0.135000X0.185000X0.135000X0*%
%TD*%
%TA.AperFunction,ViaPad*%
%ADD33C,0.650000*%
%TD*%
%TA.AperFunction,Conductor*%
%ADD34C,0.160000*%
%TD*%
%TA.AperFunction,Conductor*%
%ADD35C,0.300000*%
%TD*%
%TA.AperFunction,Conductor*%
%ADD36C,0.200000*%
%TD*%
%TA.AperFunction,Conductor*%
%ADD37C,1.000000*%
%TD*%
G04 APERTURE END LIST*
D10*
%TO.P,J5,1,Pin_1*%
%TO.N,+5V*%
X107440000Y-40190000D03*
D11*
%TO.P,J5,2,Pin_2*%
X104900000Y-40190000D03*
%TO.P,J5,3,Pin_3*%
%TO.N,VDD*%
X102360000Y-40190000D03*
%TO.P,J5,4,Pin_4*%
X99820000Y-40190000D03*
%TO.P,J5,5,Pin_5*%
%TO.N,GND*%
X97280000Y-40190000D03*
%TO.P,J5,6,Pin_6*%
X94740000Y-40190000D03*
%TD*%
D10*
%TO.P,J4,1,Pin_1*%
%TO.N,GND*%
X90850000Y-40695000D03*
D11*
%TO.P,J4,2,Pin_2*%
%TO.N,+BATT*%
X90850000Y-43235000D03*
%TD*%
D12*
%TO.P,JDBG1,1,Pin_1*%
%TO.N,VDD*%
X111650000Y-47040000D03*
%TO.P,JDBG1,2,Pin_2*%
%TO.N,FMU_SWDIO*%
X109900000Y-48040000D03*
%TO.P,JDBG1,3,Pin_3*%
%TO.N,FMU_SWCLK*%
X111650000Y-49040000D03*
%TO.P,JDBG1,4,Pin_4*%
%TO.N,GND*%
X109900000Y-50040000D03*
%TD*%
D13*
%TO.P,C11,1*%
%TO.N,+5V*%
X126560000Y-46520000D03*
%TO.P,C11,2*%
%TO.N,GND*%
X126560000Y-45880000D03*
%TD*%
D14*
%TO.P,R9,1*%
%TO.N,Net-(U2-S)*%
X122490000Y-44400000D03*
%TO.P,R9,2*%
%TO.N,VDD*%
X123510000Y-44400000D03*
%TD*%
D15*
%TO.P,D2,1,K*%
%TO.N,GAUGE_LED2*%
X130870000Y-41187500D03*
%TO.P,D2,2,A*%
%TO.N,Net-(D2-A)*%
X130870000Y-39612500D03*
%TD*%
D16*
%TO.P,R6,1*%
%TO.N,Net-(D2-A)*%
X136845000Y-40227500D03*
%TO.P,R6,2*%
%TO.N,VDD*%
X137485000Y-40227500D03*
%TD*%
D17*
%TO.P,C16,1*%
%TO.N,VDD*%
X101930000Y-46330000D03*
%TO.P,C16,2*%
%TO.N,GND*%
X101930000Y-47290000D03*
%TD*%
D13*
%TO.P,C9,1*%
%TO.N,+5V*%
X127400000Y-46520000D03*
%TO.P,C9,2*%
%TO.N,GND*%
X127400000Y-45880000D03*
%TD*%
D16*
%TO.P,R5,1*%
%TO.N,Net-(D1-A)*%
X136890000Y-39327500D03*
%TO.P,R5,2*%
%TO.N,VDD*%
X137530000Y-39327500D03*
%TD*%
D18*
%TO.P,C24,1*%
%TO.N,CSENSE1*%
X114420000Y-50000000D03*
%TO.P,C24,2*%
%TO.N,CSENSE2*%
X115380000Y-50000000D03*
%TD*%
D19*
%TO.P,C19,1*%
%TO.N,+BATT*%
X93095000Y-49340000D03*
%TO.P,C19,2*%
%TO.N,GND*%
X90145000Y-49340000D03*
%TD*%
D15*
%TO.P,D1,1,K*%
%TO.N,GAUGE_LED1*%
X129100000Y-41187500D03*
%TO.P,D1,2,A*%
%TO.N,Net-(D1-A)*%
X129100000Y-39612500D03*
%TD*%
D20*
%TO.P,J2,*%
%TO.N,*%
X130430000Y-65690000D03*
X130430000Y-52190000D03*
D21*
%TO.P,J2,1,Pin_1*%
%TO.N,PSU2*%
X124430000Y-55340000D03*
D22*
%TO.P,J2,2,Pin_2*%
%TO.N,GND*%
X124430000Y-62540000D03*
%TD*%
D16*
%TO.P,R7,1*%
%TO.N,Net-(D3-A)*%
X136880000Y-41800000D03*
%TO.P,R7,2*%
%TO.N,VDD*%
X137520000Y-41800000D03*
%TD*%
D23*
%TO.P,R2,1*%
%TO.N,Net-(U1-NRST)*%
X129950000Y-46220000D03*
%TO.P,R2,2*%
%TO.N,VDD*%
X129950000Y-46860000D03*
%TD*%
D24*
%TO.P,U2,1,TXD*%
%TO.N,CAN1_TX*%
X125400000Y-45800000D03*
%TO.P,U2,2,GND*%
%TO.N,GND*%
X125400000Y-46450000D03*
%TO.P,U2,3,VCC*%
%TO.N,+5V*%
X125400000Y-47100000D03*
%TO.P,U2,4,RXD*%
%TO.N,CAN1_RX*%
X125400000Y-47750000D03*
%TO.P,U2,5,VIO*%
%TO.N,VDD*%
X122300000Y-47750000D03*
%TO.P,U2,6,CANL*%
%TO.N,CAN_L_1*%
X122300000Y-47100000D03*
%TO.P,U2,7,CANH*%
%TO.N,CAN_H_1*%
X122300000Y-46450000D03*
%TO.P,U2,8,S*%
%TO.N,Net-(U2-S)*%
X122300000Y-45800000D03*
D25*
%TO.P,U2,9,GND*%
%TO.N,GND*%
X123850000Y-46775000D03*
%TD*%
D20*
%TO.P,J1,*%
%TO.N,*%
X99240000Y-52260000D03*
X99240000Y-65760000D03*
D26*
%TO.P,J1,1,Pin_1*%
%TO.N,PSU*%
X105240000Y-55410000D03*
D22*
%TO.P,J1,2,Pin_2*%
%TO.N,GND*%
X105240000Y-62610000D03*
%TD*%
D27*
%TO.P,R3,1*%
%TO.N,VDD*%
X100100000Y-48490000D03*
%TO.P,R3,2*%
%TO.N,Net-(IC2-FB)*%
X99460000Y-48490000D03*
%TD*%
D28*
%TO.P,L1,1,1*%
%TO.N,Net-(IC2-SW)*%
X97797500Y-45757500D03*
%TO.P,L1,2,2*%
%TO.N,VDD*%
X100167500Y-45757500D03*
%TD*%
D27*
%TO.P,C14,1*%
%TO.N,+5V*%
X94317500Y-43152500D03*
%TO.P,C14,2*%
%TO.N,GND*%
X93677500Y-43152500D03*
%TD*%
%TO.P,C13,1*%
%TO.N,+5V*%
X94327500Y-42322500D03*
%TO.P,C13,2*%
%TO.N,GND*%
X93687500Y-42322500D03*
%TD*%
D29*
%TO.P,J3,1,Pin_1*%
%TO.N,+5V*%
X112675000Y-43350000D03*
%TO.P,J3,2,Pin_2*%
X113925000Y-43350000D03*
%TO.P,J3,3,Pin_3*%
%TO.N,CAN_L_1*%
X115175000Y-43350000D03*
%TO.P,J3,4,Pin_4*%
%TO.N,CAN_H_1*%
X116425000Y-43350000D03*
%TO.P,J3,5,Pin_5*%
%TO.N,GND*%
X117675000Y-43350000D03*
%TO.P,J3,6,Pin_6*%
X118925000Y-43350000D03*
D30*
%TO.P,J3,MP*%
%TO.N,N/C*%
X110825000Y-40150000D03*
X120775000Y-40150000D03*
%TD*%
D27*
%TO.P,R13,1*%
%TO.N,Net-(IC2-FB)*%
X98510000Y-48500000D03*
%TO.P,R13,2*%
%TO.N,GND*%
X97870000Y-48500000D03*
%TD*%
D15*
%TO.P,D4,1,K*%
%TO.N,GAUGE_LED4*%
X134290000Y-41127500D03*
%TO.P,D4,2,A*%
%TO.N,Net-(D4-A)*%
X134290000Y-39552500D03*
%TD*%
D27*
%TO.P,C15,1*%
%TO.N,Net-(IC2-SW)*%
X96810000Y-48540000D03*
%TO.P,C15,2*%
%TO.N,Net-(IC2-CB)*%
X96170000Y-48540000D03*
%TD*%
D31*
%TO.P,IC2,1,CB*%
%TO.N,Net-(IC2-CB)*%
X95742500Y-46992500D03*
%TO.P,IC2,2,GND*%
%TO.N,GND*%
X94792500Y-46992500D03*
%TO.P,IC2,3,FB*%
%TO.N,Net-(IC2-FB)*%
X93842500Y-46992500D03*
%TO.P,IC2,4,EN*%
%TO.N,+5V*%
X93842500Y-44492500D03*
%TO.P,IC2,5,VIN*%
X94792500Y-44492500D03*
%TO.P,IC2,6,SW*%
%TO.N,Net-(IC2-SW)*%
X95742500Y-44492500D03*
%TD*%
D15*
%TO.P,D3,1,K*%
%TO.N,GAUGE_LED3*%
X132580000Y-41137500D03*
%TO.P,D3,2,A*%
%TO.N,Net-(D3-A)*%
X132580000Y-39562500D03*
%TD*%
D32*
%TO.P,R10,1*%
%TO.N,CAN_H_1*%
X120870000Y-45900000D03*
%TO.P,R10,2*%
%TO.N,CAN_L_1*%
X120870000Y-46920000D03*
%TD*%
D16*
%TO.P,R8,1*%
%TO.N,Net-(D4-A)*%
X136830000Y-41000000D03*
%TO.P,R8,2*%
%TO.N,VDD*%
X137470000Y-41000000D03*
%TD*%
D33*
%TO.N,VDD*%
X129500000Y-48000000D03*
X120700000Y-50600000D03*
X111800000Y-44600000D03*
X138200000Y-40550000D03*
X128000000Y-45050000D03*
X116900000Y-46700000D03*
X120200000Y-47600000D03*
%TO.N,+5V*%
X128000000Y-44150000D03*
X96680000Y-41790000D03*
X102860000Y-41810000D03*
X124100000Y-42350000D03*
X118850000Y-41600000D03*
%TO.N,GND*%
X138100000Y-47200000D03*
X135200000Y-43000000D03*
X122100000Y-41350000D03*
X110500000Y-45500000D03*
X133500000Y-43400000D03*
X123850000Y-46800000D03*
X136800000Y-48000000D03*
X108815000Y-50715000D03*
X136000000Y-48000000D03*
X133500000Y-47500000D03*
X128900000Y-43700000D03*
X138100000Y-46300000D03*
X116150000Y-40000000D03*
X132100000Y-44220000D03*
X135100000Y-48000000D03*
X118550000Y-46550000D03*
X116500000Y-47400000D03*
X138100000Y-43700000D03*
X136800000Y-43000000D03*
X105800000Y-41850000D03*
X138100000Y-44500000D03*
X127900000Y-45850000D03*
X112100000Y-51500000D03*
X137600000Y-47900000D03*
X138100000Y-45400000D03*
X90090000Y-49380000D03*
X134300000Y-43000000D03*
X137600000Y-43000000D03*
X136000000Y-43000000D03*
X132200000Y-46400000D03*
X124700000Y-46450000D03*
X134200000Y-48000000D03*
%TO.N,GAUGE_LED1*%
X127600000Y-42100000D03*
%TO.N,GAUGE_LED2*%
X126600000Y-42300000D03*
%TO.N,Net-(D2-A)*%
X131600000Y-39600000D03*
X136000000Y-39500000D03*
%TO.N,GAUGE_LED3*%
X125700000Y-42100000D03*
%TO.N,GAUGE_LED4*%
X124700000Y-50400000D03*
%TO.N,+BATT*%
X93060000Y-49340000D03*
%TO.N,CSENSE1*%
X113800000Y-50500000D03*
%TO.N,CSNSR_CS*%
X121000000Y-43400000D03*
X125200000Y-43000000D03*
%TO.N,CSNSR_ALERT*%
X120900000Y-44600000D03*
X126750000Y-43600000D03*
%TO.N,CSENSE2*%
X116100000Y-50300000D03*
%TO.N,CAN_L_1*%
X115200000Y-42000000D03*
%TO.N,CAN_H_1*%
X116550000Y-42150000D03*
%TO.N,FMU_SWDIO*%
X117750000Y-46350000D03*
%TO.N,FMU_SWCLK*%
X116700000Y-49050000D03*
%TO.N,Net-(U1-NRST)*%
X129500000Y-45550000D03*
%TO.N,CAN1_RX*%
X126400000Y-47300000D03*
%TO.N,CAN1_TX*%
X125100000Y-45400000D03*
%TO.N,Net-(IC3-FB)*%
X108580000Y-47400000D03*
X104630000Y-47110000D03*
%TD*%
D34*
%TO.N,VDD*%
X120700000Y-50600000D02*
X122300000Y-49000000D01*
X129950000Y-47550000D02*
X129500000Y-48000000D01*
D35*
X102330000Y-46330000D02*
X101930000Y-46330000D01*
X109200000Y-44600000D02*
X111800000Y-44600000D01*
D34*
X120350000Y-47750000D02*
X120200000Y-47600000D01*
D35*
X101930000Y-40620000D02*
X102360000Y-40190000D01*
D36*
X111650000Y-44750000D02*
X111800000Y-44600000D01*
D35*
X113900000Y-46700000D02*
X115300000Y-46700000D01*
D34*
X137807500Y-40550000D02*
X137485000Y-40227500D01*
X129950000Y-46860000D02*
X129950000Y-47550000D01*
X137520000Y-41800000D02*
X137520000Y-39337500D01*
D35*
X100100000Y-48490000D02*
X102020000Y-48490000D01*
X103660000Y-44600000D02*
X108000000Y-44600000D01*
D34*
X127350000Y-44400000D02*
X123510000Y-44400000D01*
D35*
X108000000Y-44600000D02*
X109455000Y-44600000D01*
D34*
X137520000Y-39337500D02*
X137530000Y-39327500D01*
X128000000Y-45050000D02*
X127350000Y-44400000D01*
D36*
X111650000Y-47040000D02*
X111650000Y-44750000D01*
D34*
X122300000Y-47750000D02*
X120350000Y-47750000D01*
D35*
X116900000Y-46700000D02*
X115300000Y-46700000D01*
D34*
X137530000Y-41827500D02*
X137430000Y-41927500D01*
X138200000Y-40550000D02*
X137807500Y-40550000D01*
D35*
X111800000Y-44600000D02*
X113900000Y-46700000D01*
X101930000Y-46330000D02*
X100740000Y-46330000D01*
X101930000Y-46330000D02*
X101930000Y-40620000D01*
X111800000Y-44600000D02*
X113890000Y-46690000D01*
X102630000Y-46630000D02*
X102330000Y-46330000D01*
D34*
X122300000Y-49000000D02*
X122300000Y-47750000D01*
D35*
X101930000Y-46330000D02*
X103660000Y-44600000D01*
X102020000Y-48490000D02*
X102630000Y-47880000D01*
X102630000Y-47880000D02*
X102630000Y-46630000D01*
X100740000Y-46330000D02*
X100167500Y-45757500D01*
X102360000Y-40190000D02*
X99820000Y-40190000D01*
%TO.N,+5V*%
X102860000Y-41810000D02*
X103280000Y-41810000D01*
X94792500Y-44492500D02*
X94792500Y-43627500D01*
D34*
X124100000Y-42350000D02*
X119600000Y-42350000D01*
D35*
X96680000Y-41790000D02*
X96700000Y-41810000D01*
X94792500Y-44492500D02*
X93842500Y-44492500D01*
D37*
X107440000Y-41340000D02*
X107440000Y-40190000D01*
X113600000Y-43350000D02*
X112675000Y-43350000D01*
D34*
X128550000Y-45208000D02*
X128550000Y-46350000D01*
X128600000Y-44750000D02*
X128600000Y-45158000D01*
D37*
X104900000Y-40190000D02*
X107440000Y-40190000D01*
D36*
X125700000Y-47100000D02*
X126280000Y-46520000D01*
D35*
X94317500Y-42332500D02*
X94327500Y-42322500D01*
D34*
X128000000Y-44150000D02*
X128600000Y-44750000D01*
X128550000Y-46350000D02*
X128350000Y-46550000D01*
D35*
X94317500Y-43572500D02*
X94317500Y-43152500D01*
X94317500Y-43152500D02*
X94317500Y-42332500D01*
X103280000Y-41810000D02*
X104900000Y-40190000D01*
X93842500Y-44047500D02*
X94317500Y-43572500D01*
D34*
X128350000Y-46550000D02*
X127430000Y-46550000D01*
D36*
X125400000Y-47100000D02*
X125700000Y-47100000D01*
D34*
X127430000Y-46550000D02*
X127400000Y-46520000D01*
D35*
X94792500Y-43627500D02*
X94317500Y-43152500D01*
X94327500Y-42322500D02*
X94840000Y-41810000D01*
D37*
X112675000Y-43350000D02*
X109450000Y-43350000D01*
D35*
X94840000Y-41810000D02*
X96660000Y-41810000D01*
X96660000Y-41810000D02*
X96680000Y-41790000D01*
D36*
X126560000Y-46520000D02*
X127400000Y-46520000D01*
D37*
X109450000Y-43350000D02*
X107440000Y-41340000D01*
D35*
X93842500Y-44492500D02*
X93842500Y-44047500D01*
D34*
X119600000Y-42350000D02*
X118850000Y-41600000D01*
D36*
X126280000Y-46520000D02*
X126560000Y-46520000D01*
D34*
X128600000Y-45158000D02*
X128550000Y-45208000D01*
D36*
%TO.N,GND*%
X125400000Y-46450000D02*
X125750000Y-46450000D01*
D35*
X92060000Y-40695000D02*
X90850000Y-40695000D01*
X115800000Y-51500000D02*
X112100000Y-51500000D01*
X93687500Y-42322500D02*
X92060000Y-40695000D01*
D36*
X109900000Y-50040000D02*
X109490000Y-50040000D01*
D34*
X123850000Y-46800000D02*
X123825000Y-46800000D01*
D35*
X98620000Y-38850000D02*
X97280000Y-40190000D01*
D37*
X97010000Y-62610000D02*
X105240000Y-62610000D01*
X118925000Y-43350000D02*
X117675000Y-43350000D01*
D36*
X125750000Y-46450000D02*
X126320000Y-45880000D01*
X109490000Y-50040000D02*
X108815000Y-50715000D01*
D37*
X105240000Y-62610000D02*
X107990000Y-62610000D01*
X110640000Y-50040000D02*
X109900000Y-50040000D01*
D36*
X126560000Y-45880000D02*
X127400000Y-45880000D01*
D35*
X93647500Y-43152500D02*
X93677500Y-43152500D01*
D37*
X112140000Y-51540000D02*
X112100000Y-51500000D01*
D34*
X121550000Y-41900000D02*
X120250000Y-41900000D01*
D37*
X90090000Y-55690000D02*
X97010000Y-62610000D01*
D35*
X93677500Y-42332500D02*
X93687500Y-42322500D01*
D37*
X112140000Y-58460000D02*
X112140000Y-51540000D01*
D34*
X127900000Y-45850000D02*
X127430000Y-45850000D01*
D35*
X97250000Y-49250000D02*
X95510000Y-49250000D01*
D34*
X132200000Y-46400000D02*
X132100000Y-46300000D01*
D35*
X118150000Y-49150000D02*
X115800000Y-51500000D01*
D34*
X120250000Y-41900000D02*
X118350000Y-40000000D01*
D35*
X101270000Y-47950000D02*
X101930000Y-47290000D01*
X94792500Y-48532500D02*
X94792500Y-46992500D01*
D34*
X124175000Y-46450000D02*
X123850000Y-46775000D01*
D35*
X92800000Y-44000000D02*
X93647500Y-43152500D01*
D37*
X117675000Y-43350000D02*
X117675000Y-41525000D01*
D34*
X124700000Y-46450000D02*
X124175000Y-46450000D01*
D35*
X93677500Y-43152500D02*
X93677500Y-42332500D01*
X98100000Y-47950000D02*
X101270000Y-47950000D01*
D37*
X90090000Y-49380000D02*
X90090000Y-55690000D01*
D36*
X126320000Y-45880000D02*
X126560000Y-45880000D01*
D34*
X123825000Y-46800000D02*
X123850000Y-46775000D01*
X125400000Y-46450000D02*
X124700000Y-46450000D01*
X118350000Y-40000000D02*
X116150000Y-40000000D01*
D35*
X92800000Y-45500000D02*
X92800000Y-44000000D01*
X118550000Y-46550000D02*
X118150000Y-46950000D01*
X94792500Y-46992500D02*
X94792500Y-46192500D01*
X109500000Y-39600000D02*
X108750000Y-38850000D01*
X97870000Y-48630000D02*
X97250000Y-49250000D01*
D37*
X107990000Y-62610000D02*
X112140000Y-58460000D01*
X117675000Y-41525000D02*
X116150000Y-40000000D01*
D35*
X116150000Y-40000000D02*
X113450000Y-40000000D01*
X108750000Y-38850000D02*
X98620000Y-38850000D01*
D34*
X122100000Y-41350000D02*
X121550000Y-41900000D01*
D37*
X112100000Y-51500000D02*
X110640000Y-50040000D01*
D35*
X95510000Y-49250000D02*
X94792500Y-48532500D01*
X109500000Y-41500000D02*
X109500000Y-39600000D01*
X113450000Y-40000000D02*
X111550000Y-41900000D01*
X97870000Y-48500000D02*
X97870000Y-48180000D01*
X93100000Y-45800000D02*
X92800000Y-45500000D01*
X109900000Y-41900000D02*
X109500000Y-41500000D01*
D34*
X132100000Y-46300000D02*
X132100000Y-44220000D01*
D35*
X94400000Y-45800000D02*
X93100000Y-45800000D01*
X118150000Y-46950000D02*
X118150000Y-49150000D01*
D34*
X127430000Y-45850000D02*
X127400000Y-45880000D01*
D35*
X111550000Y-41900000D02*
X109900000Y-41900000D01*
D34*
X123850000Y-46775000D02*
X123850000Y-46800000D01*
D35*
X97870000Y-48500000D02*
X97870000Y-48630000D01*
X94792500Y-46192500D02*
X94400000Y-45800000D01*
X97870000Y-48180000D02*
X98100000Y-47950000D01*
D34*
%TO.N,GAUGE_LED1*%
X129100000Y-41600000D02*
X129100000Y-41187500D01*
X128600000Y-42100000D02*
X129100000Y-41600000D01*
X127600000Y-42100000D02*
X128600000Y-42100000D01*
%TO.N,Net-(D1-A)*%
X129100000Y-39200000D02*
X129550000Y-38750000D01*
X136312500Y-38750000D02*
X136890000Y-39327500D01*
X129550000Y-38750000D02*
X136312500Y-38750000D01*
X129100000Y-39612500D02*
X129100000Y-39200000D01*
%TO.N,GAUGE_LED2*%
X127000000Y-42700000D02*
X126600000Y-42300000D01*
X130870000Y-41187500D02*
X130412500Y-41187500D01*
X128900000Y-42700000D02*
X127000000Y-42700000D01*
X130412500Y-41187500D02*
X128900000Y-42700000D01*
%TO.N,Net-(D2-A)*%
X136000000Y-39500000D02*
X136727500Y-40227500D01*
X130882500Y-39600000D02*
X130870000Y-39612500D01*
X136727500Y-40227500D02*
X136845000Y-40227500D01*
X131600000Y-39600000D02*
X130882500Y-39600000D01*
%TO.N,GAUGE_LED3*%
X125700000Y-42100000D02*
X125700000Y-42400000D01*
X126313000Y-43013000D02*
X130704500Y-43013000D01*
X125700000Y-42400000D02*
X126313000Y-43013000D01*
X130704500Y-43013000D02*
X132580000Y-41137500D01*
%TO.N,Net-(D3-A)*%
X136600000Y-41800000D02*
X135150000Y-40350000D01*
X135150000Y-40350000D02*
X133367500Y-40350000D01*
X136880000Y-41800000D02*
X136600000Y-41800000D01*
X133367500Y-40350000D02*
X132580000Y-39562500D01*
%TO.N,GAUGE_LED4*%
X133517500Y-41900000D02*
X134290000Y-41127500D01*
X128900000Y-48800000D02*
X128900000Y-45300000D01*
X127200000Y-50500000D02*
X128900000Y-48800000D01*
X124700000Y-50400000D02*
X124800000Y-50500000D01*
X128900000Y-45300000D02*
X132300000Y-41900000D01*
X132300000Y-41900000D02*
X133517500Y-41900000D01*
X124800000Y-50500000D02*
X127200000Y-50500000D01*
%TO.N,Net-(D4-A)*%
X136830000Y-41000000D02*
X136550000Y-41000000D01*
X135102500Y-39552500D02*
X134290000Y-39552500D01*
X136550000Y-41000000D02*
X135102500Y-39552500D01*
D36*
%TO.N,CSENSE1*%
X114300000Y-50000000D02*
X114420000Y-50000000D01*
X113800000Y-50500000D02*
X114300000Y-50000000D01*
D34*
%TO.N,CSNSR_CS*%
X121400000Y-43000000D02*
X121000000Y-43400000D01*
X125200000Y-43000000D02*
X121400000Y-43000000D01*
%TO.N,CSNSR_ALERT*%
X126750000Y-43600000D02*
X121900000Y-43600000D01*
X121900000Y-43600000D02*
X120900000Y-44600000D01*
D36*
%TO.N,CSENSE2*%
X115380000Y-50000000D02*
X115800000Y-50000000D01*
X115800000Y-50000000D02*
X116100000Y-50300000D01*
D35*
%TO.N,Net-(IC2-SW)*%
X95742500Y-44492500D02*
X96532500Y-44492500D01*
X97797500Y-47342500D02*
X97797500Y-45757500D01*
X96810000Y-48330000D02*
X97797500Y-47342500D01*
X96532500Y-44492500D02*
X97797500Y-45757500D01*
X96810000Y-48540000D02*
X96810000Y-48330000D01*
D36*
%TO.N,CAN_L_1*%
X122300000Y-47100000D02*
X121050000Y-47100000D01*
X121050000Y-47100000D02*
X120870000Y-46920000D01*
D34*
X115175000Y-43350000D02*
X115175000Y-42025000D01*
D36*
X115175000Y-43775000D02*
X117100000Y-45700000D01*
X117100000Y-45700000D02*
X119650000Y-45700000D01*
X115175000Y-43350000D02*
X115175000Y-43775000D01*
D34*
X115175000Y-42025000D02*
X115200000Y-42000000D01*
D36*
X119650000Y-45700000D02*
X120870000Y-46920000D01*
%TO.N,CAN_H_1*%
X121420000Y-46450000D02*
X120870000Y-45900000D01*
D34*
X116425000Y-43350000D02*
X116425000Y-42275000D01*
D36*
X120870000Y-45900000D02*
X120870000Y-45870000D01*
X120870000Y-45870000D02*
X120300000Y-45300000D01*
X122300000Y-46450000D02*
X121420000Y-46450000D01*
X117200000Y-45300000D02*
X116425000Y-44525000D01*
X116425000Y-44525000D02*
X116425000Y-43350000D01*
X120300000Y-45300000D02*
X117200000Y-45300000D01*
D34*
X116425000Y-42275000D02*
X116550000Y-42150000D01*
%TO.N,FMU_SWDIO*%
X117750000Y-46350000D02*
X117750000Y-47300000D01*
X117750000Y-47300000D02*
X117010000Y-48040000D01*
X117010000Y-48040000D02*
X109900000Y-48040000D01*
%TO.N,FMU_SWCLK*%
X116700000Y-49050000D02*
X116690000Y-49040000D01*
X116690000Y-49040000D02*
X111650000Y-49040000D01*
%TO.N,Net-(U1-NRST)*%
X129500000Y-45750000D02*
X129500000Y-45550000D01*
X129950000Y-46220000D02*
X129950000Y-46200000D01*
X129950000Y-46200000D02*
X129700000Y-45950000D01*
X129700000Y-45950000D02*
X129500000Y-45750000D01*
%TO.N,Net-(U2-S)*%
X122300000Y-45800000D02*
X122300000Y-44590000D01*
X122300000Y-44590000D02*
X122490000Y-44400000D01*
D36*
%TO.N,CAN1_RX*%
X125950000Y-47750000D02*
X125400000Y-47750000D01*
X126400000Y-47300000D02*
X125950000Y-47750000D01*
%TO.N,CAN1_TX*%
X125100000Y-45400000D02*
X125400000Y-45700000D01*
X125400000Y-45700000D02*
X125400000Y-45800000D01*
D35*
%TO.N,Net-(IC2-CB)*%
X95742500Y-48112500D02*
X96170000Y-48540000D01*
X95742500Y-46992500D02*
X95742500Y-48112500D01*
%TO.N,Net-(IC2-FB)*%
X98510000Y-48500000D02*
X98510000Y-48810000D01*
X97610000Y-49710000D02*
X95320000Y-49710000D01*
X98510000Y-48810000D02*
X97610000Y-49710000D01*
X95320000Y-49710000D02*
X93842500Y-48232500D01*
X99460000Y-48490000D02*
X99450000Y-48500000D01*
X99450000Y-48500000D02*
X98510000Y-48500000D01*
X93842500Y-48232500D02*
X93842500Y-46992500D01*
D36*
%TO.N,Net-(IC3-FB)*%
X108290000Y-47110000D02*
X108580000Y-47400000D01*
X104630000Y-47110000D02*
X108290000Y-47110000D01*
%TD*%
%TA.AperFunction,Conductor*%
%TO.N,GND*%
G36*
X138100000Y-43500000D02*
G01*
X138200000Y-47200000D01*
X137500000Y-48000000D01*
X134100000Y-48000000D01*
X132200000Y-46300000D01*
X130449500Y-46300000D01*
X130391309Y-46281093D01*
X130355345Y-46231593D01*
X130350500Y-46201001D01*
X130350499Y-46045140D01*
X130350499Y-46045136D01*
X130347585Y-46020009D01*
X130302206Y-45917235D01*
X130222765Y-45837794D01*
X130119991Y-45792415D01*
X130119990Y-45792414D01*
X130119988Y-45792414D01*
X130099818Y-45790074D01*
X130044194Y-45764585D01*
X130014176Y-45711270D01*
X130013076Y-45678811D01*
X130030035Y-45550000D01*
X130011974Y-45412817D01*
X130000000Y-45383908D01*
X130000000Y-44900000D01*
X131449999Y-44900000D01*
X131450000Y-44900000D01*
X132250000Y-44100000D01*
X132700000Y-44100000D01*
X133800000Y-43000000D01*
X137600000Y-43000000D01*
X138100000Y-43500000D01*
G37*
%TD.AperFunction*%
%TA.AperFunction,Conductor*%
G36*
X131028996Y-44521004D02*
G01*
X130974479Y-44548781D01*
X130958992Y-44550000D01*
X130285695Y-44550000D01*
X130227504Y-44531093D01*
X130191540Y-44481593D01*
X130191540Y-44420407D01*
X130215691Y-44380996D01*
X130496687Y-44100000D01*
X131450000Y-44100000D01*
X131028996Y-44521004D01*
G37*
%TD.AperFunction*%
%TD*%
%TA.AperFunction,Conductor*%
%TO.N,GND*%
G36*
X110313223Y-38618515D02*
G01*
X110339558Y-38664129D01*
X110330412Y-38716000D01*
X110318175Y-38731947D01*
X110242038Y-38808083D01*
X110242034Y-38808089D01*
X110183576Y-38922819D01*
X110168500Y-39018010D01*
X110168500Y-41281988D01*
X110183576Y-41377180D01*
X110206599Y-41422365D01*
X110242035Y-41491913D01*
X110333087Y-41582965D01*
X110447819Y-41641423D01*
X110543009Y-41656500D01*
X111106990Y-41656499D01*
X111202181Y-41641423D01*
X111316913Y-41582965D01*
X111407965Y-41491913D01*
X111466423Y-41377181D01*
X111481500Y-41281991D01*
X111481499Y-39018010D01*
X111466423Y-38922819D01*
X111407965Y-38808087D01*
X111331825Y-38731946D01*
X111309565Y-38684211D01*
X111323197Y-38633335D01*
X111366343Y-38603124D01*
X111386272Y-38600500D01*
X120213728Y-38600500D01*
X120263223Y-38618515D01*
X120289558Y-38664129D01*
X120280412Y-38716000D01*
X120268175Y-38731947D01*
X120192038Y-38808083D01*
X120192034Y-38808089D01*
X120133576Y-38922819D01*
X120118500Y-39018010D01*
X120118500Y-41281988D01*
X120133576Y-41377180D01*
X120156599Y-41422365D01*
X120192035Y-41491913D01*
X120283087Y-41582965D01*
X120397819Y-41641423D01*
X120493009Y-41656500D01*
X121056990Y-41656499D01*
X121152181Y-41641423D01*
X121266913Y-41582965D01*
X121357965Y-41491913D01*
X121416423Y-41377181D01*
X121431500Y-41281991D01*
X121431499Y-39018010D01*
X121416423Y-38922819D01*
X121357965Y-38808087D01*
X121281825Y-38731946D01*
X121259565Y-38684211D01*
X121273197Y-38633335D01*
X121316343Y-38603124D01*
X121336272Y-38600500D01*
X129179143Y-38600500D01*
X129228638Y-38618515D01*
X129254973Y-38664129D01*
X129245827Y-38716000D01*
X129233590Y-38731947D01*
X128969590Y-38995947D01*
X128921854Y-39018207D01*
X128915144Y-39018500D01*
X128808139Y-39018500D01*
X128735197Y-39029126D01*
X128735195Y-39029127D01*
X128622687Y-39084129D01*
X128622682Y-39084132D01*
X128534132Y-39172682D01*
X128534129Y-39172687D01*
X128479129Y-39285191D01*
X128479126Y-39285199D01*
X128468500Y-39358133D01*
X128468500Y-39866860D01*
X128479126Y-39939802D01*
X128479127Y-39939804D01*
X128534129Y-40052312D01*
X128534132Y-40052317D01*
X128622682Y-40140867D01*
X128622684Y-40140868D01*
X128622686Y-40140870D01*
X128735197Y-40195873D01*
X128808135Y-40206500D01*
X129391864Y-40206499D01*
X129464803Y-40195873D01*
X129577314Y-40140870D01*
X129665870Y-40052314D01*
X129720873Y-39939803D01*
X129731500Y-39866865D01*
X129731499Y-39358136D01*
X129720873Y-39285197D01*
X129665870Y-39172686D01*
X129665868Y-39172684D01*
X129665867Y-39172682D01*
X129618270Y-39125085D01*
X129596010Y-39077349D01*
X129609642Y-39026473D01*
X129618274Y-39016187D01*
X129625413Y-39009049D01*
X129673150Y-38986793D01*
X129679856Y-38986500D01*
X130304421Y-38986500D01*
X130353916Y-39004515D01*
X130380251Y-39050129D01*
X130371105Y-39102000D01*
X130358868Y-39117947D01*
X130304132Y-39172682D01*
X130304129Y-39172687D01*
X130249129Y-39285191D01*
X130249126Y-39285199D01*
X130238500Y-39358133D01*
X130238500Y-39866860D01*
X130249126Y-39939802D01*
X130249127Y-39939804D01*
X130304129Y-40052312D01*
X130304132Y-40052317D01*
X130392682Y-40140867D01*
X130392684Y-40140868D01*
X130392686Y-40140870D01*
X130505197Y-40195873D01*
X130578135Y-40206500D01*
X131161864Y-40206499D01*
X131234803Y-40195873D01*
X131347314Y-40140870D01*
X131402543Y-40085639D01*
X131450279Y-40063379D01*
X131478681Y-40066204D01*
X131530771Y-40081500D01*
X131530773Y-40081500D01*
X131669227Y-40081500D01*
X131669229Y-40081500D01*
X131802079Y-40042491D01*
X131905582Y-39975973D01*
X131956959Y-39964369D01*
X132003774Y-39988505D01*
X132009920Y-39997482D01*
X132010424Y-39997123D01*
X132014132Y-40002317D01*
X132102682Y-40090867D01*
X132102684Y-40090868D01*
X132102686Y-40090870D01*
X132215197Y-40145873D01*
X132288135Y-40156500D01*
X132807644Y-40156499D01*
X132857139Y-40174513D01*
X132862090Y-40179052D01*
X133195185Y-40512146D01*
X133196547Y-40513581D01*
X133203045Y-40520798D01*
X133223660Y-40543694D01*
X133225383Y-40545607D01*
X133248765Y-40556017D01*
X133259377Y-40561778D01*
X133280852Y-40575725D01*
X133289740Y-40577132D01*
X133309012Y-40582841D01*
X133317230Y-40586500D01*
X133342822Y-40586500D01*
X133354867Y-40587448D01*
X133380154Y-40591453D01*
X133388846Y-40589123D01*
X133408776Y-40586500D01*
X133650245Y-40586500D01*
X133699740Y-40604515D01*
X133726075Y-40650129D01*
X133719421Y-40697318D01*
X133669129Y-40800191D01*
X133669126Y-40800199D01*
X133658500Y-40873133D01*
X133658500Y-41381865D01*
X133658702Y-41384637D01*
X133657567Y-41384719D01*
X133647657Y-41432471D01*
X133636609Y-41446428D01*
X133442090Y-41640947D01*
X133394356Y-41663207D01*
X133387645Y-41663500D01*
X133227088Y-41663500D01*
X133177593Y-41645485D01*
X133151258Y-41599871D01*
X133157912Y-41552682D01*
X133176297Y-41515074D01*
X133200873Y-41464803D01*
X133211500Y-41391865D01*
X133211499Y-40883136D01*
X133200873Y-40810197D01*
X133145870Y-40697686D01*
X133145868Y-40697684D01*
X133145867Y-40697682D01*
X133057317Y-40609132D01*
X133057312Y-40609129D01*
X132944808Y-40554129D01*
X132944800Y-40554126D01*
X132871866Y-40543500D01*
X132288139Y-40543500D01*
X132215197Y-40554126D01*
X132215195Y-40554127D01*
X132102687Y-40609129D01*
X132102682Y-40609132D01*
X132014132Y-40697682D01*
X132014129Y-40697687D01*
X131959129Y-40810191D01*
X131959126Y-40810199D01*
X131948500Y-40883133D01*
X131948500Y-41391865D01*
X131948702Y-41394637D01*
X131947567Y-41394719D01*
X131937657Y-41442471D01*
X131926609Y-41456428D01*
X130629092Y-42753947D01*
X130581356Y-42776207D01*
X130574645Y-42776500D01*
X129343855Y-42776500D01*
X129294360Y-42758485D01*
X129268025Y-42712871D01*
X129277171Y-42661000D01*
X129289408Y-42645053D01*
X129526379Y-42408082D01*
X130251191Y-41683268D01*
X130298926Y-41661009D01*
X130349802Y-41674641D01*
X130360084Y-41683269D01*
X130392682Y-41715867D01*
X130392684Y-41715868D01*
X130392686Y-41715870D01*
X130505197Y-41770873D01*
X130578135Y-41781500D01*
X131161864Y-41781499D01*
X131234803Y-41770873D01*
X131347314Y-41715870D01*
X131435870Y-41627314D01*
X131490873Y-41514803D01*
X131501500Y-41441865D01*
X131501499Y-40933136D01*
X131490873Y-40860197D01*
X131435870Y-40747686D01*
X131435868Y-40747684D01*
X131435867Y-40747682D01*
X131347317Y-40659132D01*
X131347312Y-40659129D01*
X131234808Y-40604129D01*
X131234800Y-40604126D01*
X131161866Y-40593500D01*
X130578139Y-40593500D01*
X130505197Y-40604126D01*
X130505195Y-40604127D01*
X130392687Y-40659129D01*
X130392682Y-40659132D01*
X130304132Y-40747682D01*
X130304129Y-40747687D01*
X130249129Y-40860191D01*
X130249126Y-40860199D01*
X130238500Y-40933133D01*
X130238500Y-40995143D01*
X130220485Y-41044638D01*
X130215947Y-41049590D01*
X129862946Y-41402590D01*
X129815210Y-41424850D01*
X129764334Y-41411218D01*
X129734123Y-41368072D01*
X129731499Y-41348149D01*
X129731499Y-40933136D01*
X129720873Y-40860197D01*
X129665870Y-40747686D01*
X129665868Y-40747684D01*
X129665867Y-40747682D01*
X129577317Y-40659132D01*
X129577312Y-40659129D01*
X129464808Y-40604129D01*
X129464800Y-40604126D01*
X129391866Y-40593500D01*
X128808139Y-40593500D01*
X128735197Y-40604126D01*
X128735195Y-40604127D01*
X128622687Y-40659129D01*
X128622682Y-40659132D01*
X128534132Y-40747682D01*
X128534129Y-40747687D01*
X128479129Y-40860191D01*
X128479126Y-40860199D01*
X128468500Y-40933133D01*
X128468500Y-41441860D01*
X128479126Y-41514802D01*
X128479127Y-41514804D01*
X128534129Y-41627312D01*
X128534132Y-41627317D01*
X128581729Y-41674914D01*
X128603989Y-41722650D01*
X128590357Y-41773526D01*
X128581730Y-41783807D01*
X128524593Y-41840946D01*
X128476857Y-41863207D01*
X128470145Y-41863500D01*
X128067351Y-41863500D01*
X128017856Y-41845485D01*
X128009163Y-41836929D01*
X127918558Y-41732365D01*
X127802079Y-41657509D01*
X127669229Y-41618500D01*
X127530771Y-41618500D01*
X127397921Y-41657509D01*
X127397920Y-41657509D01*
X127281442Y-41732365D01*
X127190770Y-41837005D01*
X127133254Y-41962950D01*
X127130466Y-41982341D01*
X127105589Y-42028767D01*
X127056691Y-42048341D01*
X127006650Y-42031905D01*
X126996057Y-42021804D01*
X126918558Y-41932365D01*
X126802079Y-41857509D01*
X126669229Y-41818500D01*
X126530771Y-41818500D01*
X126397921Y-41857509D01*
X126397920Y-41857509D01*
X126281443Y-41932364D01*
X126281442Y-41932364D01*
X126281442Y-41932365D01*
X126275644Y-41939055D01*
X126229618Y-41964662D01*
X126177899Y-41954693D01*
X126147412Y-41920616D01*
X126109229Y-41837005D01*
X126018558Y-41732365D01*
X125902079Y-41657509D01*
X125769229Y-41618500D01*
X125630771Y-41618500D01*
X125497921Y-41657509D01*
X125497920Y-41657509D01*
X125381442Y-41732365D01*
X125290770Y-41837005D01*
X125233254Y-41962950D01*
X125233254Y-41962951D01*
X125218457Y-42065868D01*
X125213549Y-42100000D01*
X125222075Y-42159302D01*
X125233254Y-42237048D01*
X125233254Y-42237049D01*
X125290770Y-42362994D01*
X125290771Y-42362995D01*
X125315103Y-42391076D01*
X125333901Y-42440278D01*
X125316675Y-42490052D01*
X125271484Y-42517108D01*
X125256911Y-42518500D01*
X125130771Y-42518500D01*
X124997921Y-42557509D01*
X124997920Y-42557509D01*
X124901092Y-42619737D01*
X124881442Y-42632365D01*
X124790840Y-42736924D01*
X124744815Y-42762533D01*
X124732649Y-42763500D01*
X124547422Y-42763500D01*
X124497927Y-42745485D01*
X124471592Y-42699871D01*
X124480738Y-42648000D01*
X124489229Y-42636076D01*
X124509229Y-42612995D01*
X124566746Y-42487049D01*
X124586451Y-42350000D01*
X124566746Y-42212951D01*
X124509229Y-42087005D01*
X124418558Y-41982365D01*
X124302079Y-41907509D01*
X124169229Y-41868500D01*
X124030771Y-41868500D01*
X123897921Y-41907509D01*
X123897920Y-41907509D01*
X123806905Y-41966001D01*
X123781442Y-41982365D01*
X123690840Y-42086924D01*
X123644815Y-42112533D01*
X123632649Y-42113500D01*
X119729856Y-42113500D01*
X119680361Y-42095485D01*
X119675409Y-42090947D01*
X119511510Y-41927048D01*
X119344597Y-41760136D01*
X119322338Y-41712401D01*
X119322828Y-41694738D01*
X119336451Y-41600000D01*
X119336432Y-41599871D01*
X119332601Y-41573226D01*
X119316746Y-41462951D01*
X119259229Y-41337005D01*
X119168558Y-41232365D01*
X119052079Y-41157509D01*
X118919229Y-41118500D01*
X118780771Y-41118500D01*
X118647921Y-41157509D01*
X118647920Y-41157509D01*
X118531442Y-41232365D01*
X118440770Y-41337005D01*
X118383254Y-41462950D01*
X118383254Y-41462951D01*
X118363568Y-41599871D01*
X118363549Y-41600000D01*
X118380208Y-41715867D01*
X118383254Y-41737048D01*
X118383254Y-41737049D01*
X118440770Y-41862994D01*
X118443994Y-41866715D01*
X118494726Y-41925263D01*
X118511834Y-41945006D01*
X118530631Y-41994208D01*
X118513404Y-42043983D01*
X118492838Y-42061707D01*
X118373442Y-42132318D01*
X118354446Y-42151314D01*
X118306709Y-42173573D01*
X118255833Y-42159940D01*
X118245554Y-42151314D01*
X118226557Y-42132318D01*
X118226554Y-42132315D01*
X118085199Y-42048719D01*
X118085198Y-42048718D01*
X117927490Y-42002900D01*
X117924999Y-42002703D01*
X117924999Y-43099999D01*
X117925000Y-43100000D01*
X119724999Y-43100000D01*
X119725000Y-42663500D01*
X119743015Y-42614005D01*
X119788629Y-42587670D01*
X119802000Y-42586500D01*
X123632649Y-42586500D01*
X123682144Y-42604515D01*
X123690842Y-42613077D01*
X123710771Y-42636077D01*
X123729568Y-42685279D01*
X123712341Y-42735053D01*
X123667149Y-42762109D01*
X123652578Y-42763500D01*
X121407195Y-42763500D01*
X121405188Y-42763447D01*
X121397271Y-42763032D01*
X121362179Y-42761192D01*
X121358686Y-42762533D01*
X121338274Y-42770367D01*
X121326703Y-42773795D01*
X121301657Y-42779119D01*
X121294377Y-42784409D01*
X121276717Y-42793997D01*
X121268318Y-42797221D01*
X121268315Y-42797223D01*
X121250214Y-42815323D01*
X121241031Y-42823166D01*
X121220321Y-42838213D01*
X121220318Y-42838216D01*
X121215817Y-42846012D01*
X121203583Y-42861953D01*
X121161681Y-42903855D01*
X121113945Y-42926115D01*
X121085543Y-42923290D01*
X121077440Y-42920911D01*
X121069229Y-42918500D01*
X120930771Y-42918500D01*
X120797921Y-42957509D01*
X120797920Y-42957509D01*
X120681442Y-43032365D01*
X120590770Y-43137005D01*
X120533254Y-43262950D01*
X120533254Y-43262951D01*
X120520379Y-43352500D01*
X120513549Y-43400000D01*
X120521426Y-43454788D01*
X120533254Y-43537048D01*
X120533254Y-43537049D01*
X120590770Y-43662994D01*
X120590771Y-43662995D01*
X120681442Y-43767635D01*
X120797921Y-43842491D01*
X120930771Y-43881500D01*
X120930773Y-43881500D01*
X121069227Y-43881500D01*
X121069229Y-43881500D01*
X121083868Y-43877201D01*
X121136430Y-43880539D01*
X121174552Y-43916884D01*
X121180392Y-43969231D01*
X121160009Y-44005528D01*
X121061682Y-44103855D01*
X121013946Y-44126115D01*
X120985543Y-44123289D01*
X120969235Y-44118500D01*
X120969229Y-44118500D01*
X120830771Y-44118500D01*
X120697921Y-44157509D01*
X120697920Y-44157509D01*
X120581442Y-44232365D01*
X120490770Y-44337005D01*
X120433254Y-44462950D01*
X120433254Y-44462951D01*
X120414839Y-44591031D01*
X120413549Y-44600000D01*
X120417649Y-44628519D01*
X120433254Y-44737048D01*
X120433254Y-44737049D01*
X120490770Y-44862994D01*
X120490771Y-44862995D01*
X120581442Y-44967635D01*
X120697921Y-45042491D01*
X120830771Y-45081500D01*
X120830773Y-45081500D01*
X120969227Y-45081500D01*
X120969229Y-45081500D01*
X121102079Y-45042491D01*
X121218558Y-44967635D01*
X121309229Y-44862995D01*
X121366746Y-44737049D01*
X121386451Y-44600000D01*
X121372829Y-44505265D01*
X121383615Y-44453713D01*
X121394593Y-44439866D01*
X121975408Y-43859053D01*
X122023145Y-43836793D01*
X122029856Y-43836500D01*
X122135362Y-43836500D01*
X122184857Y-43854515D01*
X122211192Y-43900129D01*
X122202046Y-43952000D01*
X122189809Y-43967947D01*
X122110351Y-44047404D01*
X122110347Y-44047410D01*
X122066327Y-44147104D01*
X122063500Y-44171480D01*
X122063500Y-44565322D01*
X122062552Y-44577367D01*
X122058547Y-44602651D01*
X122058547Y-44602657D01*
X122060876Y-44611348D01*
X122063499Y-44631275D01*
X122063500Y-45391500D01*
X122045485Y-45440995D01*
X121999871Y-45467330D01*
X121986500Y-45468500D01*
X121959586Y-45468500D01*
X121913936Y-45477580D01*
X121913937Y-45477580D01*
X121913934Y-45477581D01*
X121862170Y-45512168D01*
X121862168Y-45512170D01*
X121827581Y-45563934D01*
X121827580Y-45563937D01*
X121818500Y-45609586D01*
X121818500Y-45990414D01*
X121827580Y-46036063D01*
X121844901Y-46061985D01*
X121852743Y-46073722D01*
X121865261Y-46124884D01*
X121841965Y-46172123D01*
X121793754Y-46193335D01*
X121788719Y-46193500D01*
X121558140Y-46193500D01*
X121508645Y-46175485D01*
X121503693Y-46170947D01*
X121369052Y-46036305D01*
X121346792Y-45988569D01*
X121346499Y-45981858D01*
X121346499Y-45721481D01*
X121346498Y-45721480D01*
X121343672Y-45697105D01*
X121339628Y-45687947D01*
X121318551Y-45640211D01*
X121299652Y-45597409D01*
X121299650Y-45597407D01*
X121299648Y-45597404D01*
X121222595Y-45520351D01*
X121222589Y-45520347D01*
X121122895Y-45476327D01*
X121098519Y-45473500D01*
X120868140Y-45473500D01*
X120818645Y-45455485D01*
X120813693Y-45450947D01*
X120504598Y-45141852D01*
X120495022Y-45130184D01*
X120484926Y-45115074D01*
X120463510Y-45100764D01*
X120463509Y-45100763D01*
X120400082Y-45058382D01*
X120300000Y-45038475D01*
X120299999Y-45038475D01*
X120299998Y-45038475D01*
X120282171Y-45042021D01*
X120267151Y-45043500D01*
X117338140Y-45043500D01*
X117288645Y-45025485D01*
X117283693Y-45020947D01*
X116704980Y-44442234D01*
X116682720Y-44394498D01*
X116696352Y-44343622D01*
X116728324Y-44317349D01*
X116751215Y-44307242D01*
X116792153Y-44266303D01*
X116839888Y-44244044D01*
X116890765Y-44257676D01*
X116920542Y-44299267D01*
X116923716Y-44310194D01*
X116923719Y-44310199D01*
X117007317Y-44451557D01*
X117123442Y-44567682D01*
X117264800Y-44651280D01*
X117264801Y-44651281D01*
X117422510Y-44697099D01*
X117424999Y-44697295D01*
X117924999Y-44697295D01*
X117927493Y-44697099D01*
X118085198Y-44651281D01*
X118085199Y-44651280D01*
X118226554Y-44567683D01*
X118245549Y-44548688D01*
X118293285Y-44526426D01*
X118344162Y-44540056D01*
X118354446Y-44548686D01*
X118373442Y-44567682D01*
X118514800Y-44651280D01*
X118514801Y-44651281D01*
X118672509Y-44697099D01*
X118675000Y-44697295D01*
X118675000Y-43600000D01*
X119175000Y-43600000D01*
X119175000Y-44697295D01*
X119177490Y-44697099D01*
X119335198Y-44651281D01*
X119335199Y-44651280D01*
X119476557Y-44567682D01*
X119592682Y-44451557D01*
X119676280Y-44310199D01*
X119676281Y-44310198D01*
X119722099Y-44152489D01*
X119725000Y-44115639D01*
X119725000Y-43600000D01*
X119175000Y-43600000D01*
X118675000Y-43600000D01*
X117925000Y-43600000D01*
X117924999Y-44697295D01*
X117424999Y-44697295D01*
X117425000Y-43600000D01*
X117424999Y-42002703D01*
X117424998Y-42002703D01*
X117422508Y-42002900D01*
X117264801Y-42048718D01*
X117264800Y-42048719D01*
X117139962Y-42122548D01*
X117088190Y-42132237D01*
X117042302Y-42106381D01*
X117024550Y-42067230D01*
X117024354Y-42065868D01*
X117016746Y-42012951D01*
X116959229Y-41887005D01*
X116868558Y-41782365D01*
X116752079Y-41707509D01*
X116619229Y-41668500D01*
X116480771Y-41668500D01*
X116347921Y-41707509D01*
X116347920Y-41707509D01*
X116231442Y-41782365D01*
X116140770Y-41887005D01*
X116083254Y-42012950D01*
X116083254Y-42012951D01*
X116063549Y-42149999D01*
X116063549Y-42150000D01*
X116083254Y-42287049D01*
X116083254Y-42287050D01*
X116089168Y-42300000D01*
X116098704Y-42320881D01*
X116099055Y-42321648D01*
X116103229Y-42374153D01*
X116083460Y-42408082D01*
X116017761Y-42473780D01*
X116017757Y-42473786D01*
X115971473Y-42578607D01*
X115971472Y-42578613D01*
X115968499Y-42604238D01*
X115968500Y-44019860D01*
X115950485Y-44069355D01*
X115904871Y-44095690D01*
X115853000Y-44086544D01*
X115837053Y-44074307D01*
X115654053Y-43891307D01*
X115631793Y-43843571D01*
X115631500Y-43836860D01*
X115631500Y-42604238D01*
X115628587Y-42579132D01*
X115628527Y-42578611D01*
X115628526Y-42578609D01*
X115628526Y-42578607D01*
X115593817Y-42500000D01*
X115582242Y-42473785D01*
X115582240Y-42473783D01*
X115582238Y-42473780D01*
X115549536Y-42441078D01*
X115527276Y-42393342D01*
X115540908Y-42342466D01*
X115545790Y-42336207D01*
X115556185Y-42324211D01*
X115609229Y-42262995D01*
X115666746Y-42137049D01*
X115686451Y-42000000D01*
X115666746Y-41862951D01*
X115609229Y-41737005D01*
X115518558Y-41632365D01*
X115402079Y-41557509D01*
X115269229Y-41518500D01*
X115130771Y-41518500D01*
X114997921Y-41557509D01*
X114997920Y-41557509D01*
X114881442Y-41632365D01*
X114790770Y-41737005D01*
X114733254Y-41862950D01*
X114733254Y-41862951D01*
X114714181Y-41995607D01*
X114713549Y-42000000D01*
X114731150Y-42122419D01*
X114733254Y-42137048D01*
X114733254Y-42137049D01*
X114790770Y-42262994D01*
X114790771Y-42262995D01*
X114825242Y-42302777D01*
X114830998Y-42309419D01*
X114849795Y-42358621D01*
X114832568Y-42408396D01*
X114827252Y-42414290D01*
X114767761Y-42473780D01*
X114767757Y-42473786D01*
X114721473Y-42578607D01*
X114721472Y-42578613D01*
X114718500Y-42604238D01*
X114718500Y-44095761D01*
X114721472Y-44121386D01*
X114721473Y-44121392D01*
X114767757Y-44226213D01*
X114767761Y-44226219D01*
X114848780Y-44307238D01*
X114848783Y-44307240D01*
X114848785Y-44307242D01*
X114887108Y-44324163D01*
X114953607Y-44353526D01*
X114953609Y-44353526D01*
X114953611Y-44353527D01*
X114979238Y-44356500D01*
X114979239Y-44356500D01*
X115361861Y-44356500D01*
X115411356Y-44374515D01*
X115416308Y-44379053D01*
X116895399Y-45858144D01*
X116904974Y-45869811D01*
X116915074Y-45884926D01*
X116935991Y-45898902D01*
X116948872Y-45907509D01*
X116999916Y-45941617D01*
X116999918Y-45941618D01*
X117100000Y-45961525D01*
X117112721Y-45958994D01*
X117117829Y-45957979D01*
X117132849Y-45956500D01*
X117285248Y-45956500D01*
X117334743Y-45974515D01*
X117361078Y-46020129D01*
X117351932Y-46072000D01*
X117343441Y-46083924D01*
X117340770Y-46087005D01*
X117283254Y-46212950D01*
X117283254Y-46212952D01*
X117279116Y-46241731D01*
X117254240Y-46288158D01*
X117205342Y-46307733D01*
X117161271Y-46295549D01*
X117102079Y-46257509D01*
X117083450Y-46252039D01*
X116969229Y-46218500D01*
X116830771Y-46218500D01*
X116697921Y-46257509D01*
X116697920Y-46257509D01*
X116591026Y-46326206D01*
X116581442Y-46332365D01*
X116551495Y-46366924D01*
X116505470Y-46392533D01*
X116493304Y-46393500D01*
X114058851Y-46393500D01*
X114009356Y-46375485D01*
X114004404Y-46370947D01*
X113075001Y-45441545D01*
X112307043Y-44673587D01*
X112284783Y-44625851D01*
X112285275Y-44608176D01*
X112286420Y-44600219D01*
X112286451Y-44600000D01*
X112266746Y-44462951D01*
X112241086Y-44406764D01*
X112236913Y-44354261D01*
X112267466Y-44311357D01*
X112318449Y-44298129D01*
X112341281Y-44306572D01*
X112342258Y-44304360D01*
X112453607Y-44353526D01*
X112453609Y-44353526D01*
X112453611Y-44353527D01*
X112479238Y-44356500D01*
X112479239Y-44356500D01*
X112870761Y-44356500D01*
X112870762Y-44356500D01*
X112896389Y-44353527D01*
X112896390Y-44353526D01*
X112896392Y-44353526D01*
X112933808Y-44337005D01*
X113001215Y-44307242D01*
X113082242Y-44226215D01*
X113126425Y-44126150D01*
X113128526Y-44121392D01*
X113128526Y-44121390D01*
X113128527Y-44121389D01*
X113131500Y-44095762D01*
X113131500Y-44083500D01*
X113149515Y-44034005D01*
X113195129Y-44007670D01*
X113208500Y-44006500D01*
X113391500Y-44006500D01*
X113440995Y-44024515D01*
X113467330Y-44070129D01*
X113468500Y-44083500D01*
X113468500Y-44095761D01*
X113471472Y-44121386D01*
X113471473Y-44121392D01*
X113517757Y-44226213D01*
X113517761Y-44226219D01*
X113598780Y-44307238D01*
X113598783Y-44307240D01*
X113598785Y-44307242D01*
X113637108Y-44324163D01*
X113703607Y-44353526D01*
X113703609Y-44353526D01*
X113703611Y-44353527D01*
X113729238Y-44356500D01*
X113729239Y-44356500D01*
X114120761Y-44356500D01*
X114120762Y-44356500D01*
X114146389Y-44353527D01*
X114146390Y-44353526D01*
X114146392Y-44353526D01*
X114183808Y-44337005D01*
X114251215Y-44307242D01*
X114332242Y-44226215D01*
X114376425Y-44126150D01*
X114378526Y-44121392D01*
X114378526Y-44121390D01*
X114378527Y-44121389D01*
X114381500Y-44095762D01*
X114381500Y-42604238D01*
X114378527Y-42578611D01*
X114378526Y-42578609D01*
X114378526Y-42578607D01*
X114343817Y-42500000D01*
X114332242Y-42473785D01*
X114332240Y-42473783D01*
X114332238Y-42473780D01*
X114251219Y-42392761D01*
X114251213Y-42392757D01*
X114146392Y-42346473D01*
X114146386Y-42346472D01*
X114124631Y-42343948D01*
X114120762Y-42343500D01*
X113729238Y-42343500D01*
X113725875Y-42343890D01*
X113703613Y-42346472D01*
X113703607Y-42346473D01*
X113598786Y-42392757D01*
X113598780Y-42392761D01*
X113517761Y-42473780D01*
X113517757Y-42473786D01*
X113471473Y-42578607D01*
X113471472Y-42578613D01*
X113468500Y-42604238D01*
X113468500Y-42616500D01*
X113450485Y-42665995D01*
X113404871Y-42692330D01*
X113391500Y-42693500D01*
X113208500Y-42693500D01*
X113159005Y-42675485D01*
X113132670Y-42629871D01*
X113131500Y-42616500D01*
X113131500Y-42604238D01*
X113128587Y-42579132D01*
X113128527Y-42578611D01*
X113128526Y-42578609D01*
X113128526Y-42578607D01*
X113093817Y-42500000D01*
X113082242Y-42473785D01*
X113082240Y-42473783D01*
X113082238Y-42473780D01*
X113001219Y-42392761D01*
X113001213Y-42392757D01*
X112896392Y-42346473D01*
X112896386Y-42346472D01*
X112874631Y-42343948D01*
X112870762Y-42343500D01*
X112479238Y-42343500D01*
X112475875Y-42343890D01*
X112453613Y-42346472D01*
X112453607Y-42346473D01*
X112348786Y-42392757D01*
X112348780Y-42392761D01*
X112267761Y-42473780D01*
X112267757Y-42473786D01*
X112221473Y-42578607D01*
X112221472Y-42578613D01*
X112218500Y-42604238D01*
X112218500Y-42616500D01*
X112200485Y-42665995D01*
X112154871Y-42692330D01*
X112141500Y-42693500D01*
X109753825Y-42693500D01*
X109704330Y-42675485D01*
X109699378Y-42670947D01*
X108336353Y-41307921D01*
X108314093Y-41260185D01*
X108327725Y-41209309D01*
X108348022Y-41189450D01*
X108351058Y-41187420D01*
X108351063Y-41187420D01*
X108402830Y-41152830D01*
X108402830Y-41152828D01*
X108402832Y-41152828D01*
X108421364Y-41125092D01*
X108437420Y-41101063D01*
X108446500Y-41055414D01*
X108446500Y-39324586D01*
X108437420Y-39278937D01*
X108433354Y-39272852D01*
X108402831Y-39227170D01*
X108402829Y-39227168D01*
X108351065Y-39192581D01*
X108351063Y-39192580D01*
X108305414Y-39183500D01*
X106574586Y-39183500D01*
X106528937Y-39192580D01*
X106528934Y-39192581D01*
X106477170Y-39227168D01*
X106477168Y-39227170D01*
X106442581Y-39278934D01*
X106442580Y-39278937D01*
X106433661Y-39323781D01*
X106433500Y-39324588D01*
X106433500Y-39456500D01*
X106415485Y-39505995D01*
X106369871Y-39532330D01*
X106356500Y-39533500D01*
X105699695Y-39533500D01*
X105650200Y-39515485D01*
X105640173Y-39505348D01*
X105625781Y-39487811D01*
X105615147Y-39474853D01*
X105461887Y-39349077D01*
X105420163Y-39326775D01*
X105287036Y-39255616D01*
X105287031Y-39255614D01*
X105097308Y-39198063D01*
X104900003Y-39178630D01*
X104899997Y-39178630D01*
X104702692Y-39198063D01*
X104702691Y-39198063D01*
X104512968Y-39255614D01*
X104512963Y-39255616D01*
X104338112Y-39349077D01*
X104184853Y-39474853D01*
X104059077Y-39628112D01*
X103965616Y-39802963D01*
X103965614Y-39802968D01*
X103908063Y-39992691D01*
X103908063Y-39992692D01*
X103888630Y-40189997D01*
X103888630Y-40190002D01*
X103908063Y-40387307D01*
X103908063Y-40387308D01*
X103965613Y-40577027D01*
X103965618Y-40577040D01*
X103978367Y-40600891D01*
X103985811Y-40653034D01*
X103964906Y-40691635D01*
X103244118Y-41412424D01*
X103196382Y-41434684D01*
X103148042Y-41422754D01*
X103147435Y-41422364D01*
X103062079Y-41367509D01*
X102929229Y-41328500D01*
X102790771Y-41328500D01*
X102657921Y-41367509D01*
X102657920Y-41367509D01*
X102541442Y-41442365D01*
X102450770Y-41547005D01*
X102393254Y-41672950D01*
X102393254Y-41672951D01*
X102391771Y-41683269D01*
X102389716Y-41697559D01*
X102364841Y-41743986D01*
X102315942Y-41763561D01*
X102265901Y-41747126D01*
X102238132Y-41702369D01*
X102236500Y-41686600D01*
X102236500Y-41274162D01*
X102254515Y-41224667D01*
X102300129Y-41198332D01*
X102321044Y-41197533D01*
X102360000Y-41201370D01*
X102360003Y-41201370D01*
X102409456Y-41196499D01*
X102557308Y-41181937D01*
X102747035Y-41124384D01*
X102921887Y-41030923D01*
X103075147Y-40905147D01*
X103200923Y-40751887D01*
X103294384Y-40577035D01*
X103351937Y-40387308D01*
X103368857Y-40215514D01*
X103371370Y-40190002D01*
X103371370Y-40189997D01*
X103364602Y-40121281D01*
X103351937Y-39992692D01*
X103294384Y-39802965D01*
X103286919Y-39789000D01*
X103245320Y-39711174D01*
X103200923Y-39628113D01*
X103075147Y-39474853D01*
X102921887Y-39349077D01*
X102880163Y-39326775D01*
X102747036Y-39255616D01*
X102747031Y-39255614D01*
X102557308Y-39198063D01*
X102360003Y-39178630D01*
X102359997Y-39178630D01*
X102162692Y-39198063D01*
X102162691Y-39198063D01*
X101972968Y-39255614D01*
X101972963Y-39255616D01*
X101798112Y-39349077D01*
X101644853Y-39474853D01*
X101519077Y-39628112D01*
X101425616Y-39802963D01*
X101425614Y-39802968D01*
X101417763Y-39828852D01*
X101386157Y-39870986D01*
X101344079Y-39883500D01*
X100835921Y-39883500D01*
X100786426Y-39865485D01*
X100762237Y-39828852D01*
X100754385Y-39802968D01*
X100754383Y-39802963D01*
X100705320Y-39711174D01*
X100660923Y-39628113D01*
X100535147Y-39474853D01*
X100381887Y-39349077D01*
X100340163Y-39326775D01*
X100207036Y-39255616D01*
X100207031Y-39255614D01*
X100017308Y-39198063D01*
X99820003Y-39178630D01*
X99819997Y-39178630D01*
X99622692Y-39198063D01*
X99622691Y-39198063D01*
X99432968Y-39255614D01*
X99432963Y-39255616D01*
X99258112Y-39349077D01*
X99104853Y-39474853D01*
X98979077Y-39628112D01*
X98885616Y-39802963D01*
X98885614Y-39802968D01*
X98828063Y-39992691D01*
X98828063Y-39992692D01*
X98808630Y-40189997D01*
X98808630Y-40190002D01*
X98828063Y-40387307D01*
X98828063Y-40387308D01*
X98885614Y-40577031D01*
X98885616Y-40577036D01*
X98976832Y-40747687D01*
X98979077Y-40751887D01*
X99104853Y-40905147D01*
X99258113Y-41030923D01*
X99432965Y-41124384D01*
X99432967Y-41124384D01*
X99432968Y-41124385D01*
X99454665Y-41130966D01*
X99622692Y-41181937D01*
X99761487Y-41195607D01*
X99819997Y-41201370D01*
X99820000Y-41201370D01*
X99820003Y-41201370D01*
X99869456Y-41196499D01*
X100017308Y-41181937D01*
X100207035Y-41124384D01*
X100381887Y-41030923D01*
X100535147Y-40905147D01*
X100660923Y-40751887D01*
X100754384Y-40577035D01*
X100760761Y-40556014D01*
X100762237Y-40551148D01*
X100793843Y-40509014D01*
X100835921Y-40496500D01*
X101344079Y-40496500D01*
X101393574Y-40514515D01*
X101417763Y-40551148D01*
X101425614Y-40577031D01*
X101425616Y-40577036D01*
X101516832Y-40747687D01*
X101519077Y-40751887D01*
X101606022Y-40857831D01*
X101623500Y-40906678D01*
X101623500Y-45877297D01*
X101605485Y-45926792D01*
X101590019Y-45940819D01*
X101589539Y-45941147D01*
X101529738Y-46000948D01*
X101482001Y-46023207D01*
X101475291Y-46023500D01*
X100898851Y-46023500D01*
X100849356Y-46005485D01*
X100844404Y-46000947D01*
X100836553Y-45993096D01*
X100814293Y-45945360D01*
X100814000Y-45938649D01*
X100814000Y-43892090D01*
X100814000Y-43892086D01*
X100804920Y-43846437D01*
X100794895Y-43831434D01*
X100770331Y-43794670D01*
X100770329Y-43794668D01*
X100718565Y-43760081D01*
X100718563Y-43760080D01*
X100672914Y-43751000D01*
X99662086Y-43751000D01*
X99632158Y-43756953D01*
X99616437Y-43760080D01*
X99616434Y-43760081D01*
X99564670Y-43794668D01*
X99564668Y-43794670D01*
X99530081Y-43846434D01*
X99530080Y-43846437D01*
X99521000Y-43892086D01*
X99521000Y-47622914D01*
X99530080Y-47668562D01*
X99530081Y-47668565D01*
X99564668Y-47720329D01*
X99564670Y-47720331D01*
X99607577Y-47749000D01*
X99616437Y-47754920D01*
X99662086Y-47764000D01*
X99662090Y-47764000D01*
X100672910Y-47764000D01*
X100672914Y-47764000D01*
X100718563Y-47754920D01*
X100763961Y-47724586D01*
X100770329Y-47720331D01*
X100770331Y-47720329D01*
X100781859Y-47703074D01*
X100804920Y-47668563D01*
X100814000Y-47622914D01*
X100814000Y-46713500D01*
X100832015Y-46664005D01*
X100877629Y-46637670D01*
X100891000Y-46636500D01*
X101185143Y-46636500D01*
X101234638Y-46654515D01*
X101260973Y-46700129D01*
X101251827Y-46752000D01*
X101251420Y-46752696D01*
X101167969Y-46893803D01*
X101167968Y-46893804D01*
X101125494Y-47040000D01*
X102103000Y-47040000D01*
X102152495Y-47058015D01*
X102178830Y-47103629D01*
X102180000Y-47117000D01*
X102180000Y-47463000D01*
X102161985Y-47512495D01*
X102116371Y-47538830D01*
X102103000Y-47540000D01*
X101125495Y-47540000D01*
X101167968Y-47686195D01*
X101167969Y-47686196D01*
X101250281Y-47825379D01*
X101364620Y-47939718D01*
X101503803Y-48022030D01*
X101503804Y-48022031D01*
X101540034Y-48032557D01*
X101582538Y-48063665D01*
X101595102Y-48114816D01*
X101571847Y-48162076D01*
X101523655Y-48183331D01*
X101518552Y-48183500D01*
X100405996Y-48183500D01*
X100363217Y-48170523D01*
X100350575Y-48162076D01*
X100330081Y-48148382D01*
X100255263Y-48133500D01*
X100255259Y-48133500D01*
X99944739Y-48133500D01*
X99944736Y-48133501D01*
X99907584Y-48140890D01*
X99869919Y-48148382D01*
X99869918Y-48148382D01*
X99869916Y-48148383D01*
X99822778Y-48179880D01*
X99771616Y-48192399D01*
X99737221Y-48179880D01*
X99690081Y-48148382D01*
X99615263Y-48133500D01*
X99615259Y-48133500D01*
X99304739Y-48133500D01*
X99304736Y-48133501D01*
X99229918Y-48148382D01*
X99211114Y-48160947D01*
X99181816Y-48180523D01*
X99139038Y-48193500D01*
X98815996Y-48193500D01*
X98773217Y-48180523D01*
X98745609Y-48162076D01*
X98740081Y-48158382D01*
X98665263Y-48143500D01*
X98665260Y-48143500D01*
X98594640Y-48143500D01*
X98545145Y-48125485D01*
X98527424Y-48101317D01*
X98526622Y-48101781D01*
X98524097Y-48097408D01*
X98427925Y-47972074D01*
X98321670Y-47890541D01*
X98293370Y-47846118D01*
X98300245Y-47793898D01*
X98339079Y-47758314D01*
X98343888Y-47756856D01*
X98348557Y-47754921D01*
X98348563Y-47754920D01*
X98393961Y-47724586D01*
X98400329Y-47720331D01*
X98400331Y-47720329D01*
X98411860Y-47703074D01*
X98434920Y-47668563D01*
X98444000Y-47622914D01*
X98444000Y-43892086D01*
X98434920Y-43846437D01*
X98424895Y-43831434D01*
X98400331Y-43794670D01*
X98400329Y-43794668D01*
X98348565Y-43760081D01*
X98348563Y-43760080D01*
X98302914Y-43751000D01*
X97292086Y-43751000D01*
X97262158Y-43756953D01*
X97246437Y-43760080D01*
X97246434Y-43760081D01*
X97194670Y-43794668D01*
X97194668Y-43794670D01*
X97160081Y-43846434D01*
X97160080Y-43846437D01*
X97152114Y-43886488D01*
X97151000Y-43892088D01*
X97151000Y-44491649D01*
X97132985Y-44541144D01*
X97087371Y-44567479D01*
X97035500Y-44558333D01*
X97019553Y-44546096D01*
X96793464Y-44320008D01*
X96786173Y-44309875D01*
X96785629Y-44310287D01*
X96781329Y-44304593D01*
X96778097Y-44301647D01*
X96744855Y-44271343D01*
X96743588Y-44270132D01*
X96729152Y-44255696D01*
X96729146Y-44255690D01*
X96725464Y-44253168D01*
X96721285Y-44249857D01*
X96696645Y-44227394D01*
X96684706Y-44222769D01*
X96669006Y-44214493D01*
X96658445Y-44207258D01*
X96625980Y-44199622D01*
X96620884Y-44198044D01*
X96589795Y-44186000D01*
X96576991Y-44186000D01*
X96559364Y-44183955D01*
X96546901Y-44181024D01*
X96513875Y-44185630D01*
X96508551Y-44186000D01*
X96276000Y-44186000D01*
X96226505Y-44167985D01*
X96200170Y-44122371D01*
X96199000Y-44109000D01*
X96199000Y-43877090D01*
X96199000Y-43877086D01*
X96189920Y-43831437D01*
X96183286Y-43821509D01*
X96155331Y-43779670D01*
X96155329Y-43779668D01*
X96103565Y-43745081D01*
X96103563Y-43745080D01*
X96057914Y-43736000D01*
X95427086Y-43736000D01*
X95390944Y-43743189D01*
X95381437Y-43745080D01*
X95381434Y-43745081D01*
X95329670Y-43779668D01*
X95324307Y-43785032D01*
X95322667Y-43783392D01*
X95289031Y-43808045D01*
X95236474Y-43804590D01*
X95211825Y-43783899D01*
X95210693Y-43785032D01*
X95205329Y-43779668D01*
X95153564Y-43745080D01*
X95148998Y-43743189D01*
X95110167Y-43707603D01*
X95101551Y-43675608D01*
X95101318Y-43670579D01*
X95101319Y-43670578D01*
X95099602Y-43633458D01*
X95099041Y-43621310D01*
X95099000Y-43619532D01*
X95099000Y-43599106D01*
X95099000Y-43599100D01*
X95098181Y-43594719D01*
X95097565Y-43589416D01*
X95096026Y-43556111D01*
X95090853Y-43544396D01*
X95085606Y-43527449D01*
X95083253Y-43514863D01*
X95083253Y-43514862D01*
X95065699Y-43486511D01*
X95063212Y-43481792D01*
X95049743Y-43451287D01*
X95049742Y-43451286D01*
X95049742Y-43451285D01*
X95044000Y-43445543D01*
X95040687Y-43442230D01*
X95029665Y-43428315D01*
X95026475Y-43423162D01*
X95022930Y-43417436D01*
X95022928Y-43417434D01*
X94996320Y-43397341D01*
X94992300Y-43393843D01*
X94807064Y-43208607D01*
X94726552Y-43128094D01*
X94704292Y-43080358D01*
X94703999Y-43073647D01*
X94703999Y-43027238D01*
X94703999Y-43027237D01*
X94689118Y-42952419D01*
X94678255Y-42936161D01*
X94636977Y-42874383D01*
X94624000Y-42831604D01*
X94624000Y-42657746D01*
X94639666Y-42614703D01*
X94638212Y-42613732D01*
X94642425Y-42607426D01*
X94642426Y-42607426D01*
X94699118Y-42522581D01*
X94703610Y-42500000D01*
X94713999Y-42447771D01*
X94713999Y-42447768D01*
X94714000Y-42447763D01*
X94713999Y-42401350D01*
X94732013Y-42351857D01*
X94736540Y-42346916D01*
X94944403Y-42139053D01*
X94992140Y-42116793D01*
X94998851Y-42116500D01*
X96290633Y-42116500D01*
X96340128Y-42134515D01*
X96348825Y-42143075D01*
X96361439Y-42157633D01*
X96361441Y-42157634D01*
X96361442Y-42157635D01*
X96477921Y-42232491D01*
X96610771Y-42271500D01*
X96610773Y-42271500D01*
X96749227Y-42271500D01*
X96749229Y-42271500D01*
X96882079Y-42232491D01*
X96998558Y-42157635D01*
X97089229Y-42052995D01*
X97146746Y-41927049D01*
X97166451Y-41790000D01*
X97146746Y-41652951D01*
X97089229Y-41527005D01*
X97048805Y-41480353D01*
X97030009Y-41431153D01*
X97029999Y-41429931D01*
X97030000Y-40745316D01*
X97048015Y-40695821D01*
X97093629Y-40669486D01*
X97132030Y-40674387D01*
X97132400Y-40673128D01*
X97137680Y-40674678D01*
X97137685Y-40674680D01*
X97208539Y-40684867D01*
X97244234Y-40690000D01*
X97244237Y-40690000D01*
X97315766Y-40690000D01*
X97347874Y-40685382D01*
X97422315Y-40674680D01*
X97422321Y-40674677D01*
X97427600Y-40673128D01*
X97428065Y-40674714D01*
X97473517Y-40671100D01*
X97516422Y-40701651D01*
X97530000Y-40745316D01*
X97530000Y-41520634D01*
X97743490Y-41463431D01*
X97743492Y-41463430D01*
X97957577Y-41363600D01*
X97957586Y-41363595D01*
X98151074Y-41228111D01*
X98151082Y-41228105D01*
X98318105Y-41061082D01*
X98318111Y-41061074D01*
X98453595Y-40867586D01*
X98453602Y-40867573D01*
X98553431Y-40653489D01*
X98553431Y-40653488D01*
X98610636Y-40440000D01*
X97830562Y-40440000D01*
X97781067Y-40421985D01*
X97754732Y-40376371D01*
X97756681Y-40341306D01*
X97772625Y-40287005D01*
X97780000Y-40261889D01*
X97780000Y-40118111D01*
X97756681Y-40038693D01*
X97760022Y-39986129D01*
X97796369Y-39948009D01*
X97830562Y-39940000D01*
X98610636Y-39940000D01*
X98553433Y-39726516D01*
X98553431Y-39726512D01*
X98453601Y-39512424D01*
X98453599Y-39512421D01*
X98318109Y-39318922D01*
X98318105Y-39318917D01*
X98151082Y-39151894D01*
X98151074Y-39151888D01*
X97957586Y-39016404D01*
X97957573Y-39016397D01*
X97743488Y-38916568D01*
X97530000Y-38859363D01*
X97530000Y-39634684D01*
X97511985Y-39684179D01*
X97466371Y-39710514D01*
X97427968Y-39705614D01*
X97427599Y-39706872D01*
X97422316Y-39705320D01*
X97422315Y-39705320D01*
X97395677Y-39701490D01*
X97315766Y-39690000D01*
X97315763Y-39690000D01*
X97244237Y-39690000D01*
X97244234Y-39690000D01*
X97137685Y-39705320D01*
X97132401Y-39706872D01*
X97131935Y-39705287D01*
X97086475Y-39708898D01*
X97043573Y-39678342D01*
X97030000Y-39634684D01*
X97030000Y-38859363D01*
X96816516Y-38916566D01*
X96816512Y-38916568D01*
X96602424Y-39016398D01*
X96602421Y-39016400D01*
X96408922Y-39151890D01*
X96408917Y-39151894D01*
X96241894Y-39318917D01*
X96106399Y-39512422D01*
X96106396Y-39512428D01*
X96079784Y-39569497D01*
X96042540Y-39606740D01*
X95990069Y-39611330D01*
X95946924Y-39581118D01*
X95940213Y-39569495D01*
X95913602Y-39512428D01*
X95913596Y-39512417D01*
X95778109Y-39318922D01*
X95778105Y-39318917D01*
X95611082Y-39151894D01*
X95611074Y-39151888D01*
X95417586Y-39016404D01*
X95417573Y-39016397D01*
X95203488Y-38916568D01*
X94990000Y-38859363D01*
X94990000Y-39634684D01*
X94971985Y-39684179D01*
X94926371Y-39710514D01*
X94887968Y-39705614D01*
X94887599Y-39706872D01*
X94882316Y-39705320D01*
X94882315Y-39705320D01*
X94855677Y-39701490D01*
X94775766Y-39690000D01*
X94775763Y-39690000D01*
X94704237Y-39690000D01*
X94704234Y-39690000D01*
X94597685Y-39705320D01*
X94592401Y-39706872D01*
X94591936Y-39705290D01*
X94546467Y-39708896D01*
X94503568Y-39678336D01*
X94489999Y-39634684D01*
X94489999Y-38859363D01*
X94276516Y-38916566D01*
X94276512Y-38916568D01*
X94062424Y-39016398D01*
X94062421Y-39016400D01*
X93868922Y-39151890D01*
X93868917Y-39151894D01*
X93701894Y-39318917D01*
X93701890Y-39318922D01*
X93566400Y-39512421D01*
X93566398Y-39512424D01*
X93466568Y-39726512D01*
X93466566Y-39726516D01*
X93409363Y-39940000D01*
X94189438Y-39940000D01*
X94238933Y-39958015D01*
X94265268Y-40003629D01*
X94263319Y-40038694D01*
X94240000Y-40118109D01*
X94240000Y-40261890D01*
X94263319Y-40341306D01*
X94259978Y-40393871D01*
X94223631Y-40431991D01*
X94189438Y-40440000D01*
X93409364Y-40440000D01*
X93466568Y-40653488D01*
X93466568Y-40653489D01*
X93566397Y-40867573D01*
X93566404Y-40867586D01*
X93701888Y-41061074D01*
X93701894Y-41061082D01*
X93868917Y-41228105D01*
X93868925Y-41228111D01*
X94062413Y-41363595D01*
X94062426Y-41363602D01*
X94276510Y-41463431D01*
X94504679Y-41524569D01*
X94512406Y-41525245D01*
X94560142Y-41547505D01*
X94582402Y-41595241D01*
X94568770Y-41646117D01*
X94560142Y-41656399D01*
X94384160Y-41832381D01*
X94336424Y-41854641D01*
X94285548Y-41841009D01*
X94268625Y-41824809D01*
X94245425Y-41794574D01*
X94120091Y-41698402D01*
X94120092Y-41698402D01*
X93974131Y-41637944D01*
X93887500Y-41626538D01*
X93887500Y-43020606D01*
X93877500Y-43048080D01*
X93877500Y-43275500D01*
X93859485Y-43324995D01*
X93813871Y-43351330D01*
X93800500Y-43352500D01*
X92955488Y-43352500D01*
X92962942Y-43409125D01*
X92962944Y-43409131D01*
X93023402Y-43555092D01*
X93119574Y-43680425D01*
X93244907Y-43776597D01*
X93338466Y-43815349D01*
X93377299Y-43850933D01*
X93386000Y-43886488D01*
X93386000Y-45107914D01*
X93392374Y-45139957D01*
X93395080Y-45153562D01*
X93395081Y-45153565D01*
X93429668Y-45205329D01*
X93429670Y-45205331D01*
X93481434Y-45239918D01*
X93481437Y-45239920D01*
X93527086Y-45249000D01*
X93527090Y-45249000D01*
X94157910Y-45249000D01*
X94157914Y-45249000D01*
X94203563Y-45239920D01*
X94255330Y-45205330D01*
X94255331Y-45205329D01*
X94260693Y-45199968D01*
X94262337Y-45201612D01*
X94295928Y-45176965D01*
X94348487Y-45180393D01*
X94373174Y-45201100D01*
X94374307Y-45199968D01*
X94379670Y-45205331D01*
X94431434Y-45239918D01*
X94431437Y-45239920D01*
X94477086Y-45249000D01*
X94477090Y-45249000D01*
X95107910Y-45249000D01*
X95107914Y-45249000D01*
X95153563Y-45239920D01*
X95205330Y-45205330D01*
X95205331Y-45205329D01*
X95210693Y-45199968D01*
X95212337Y-45201612D01*
X95245928Y-45176965D01*
X95298487Y-45180393D01*
X95323174Y-45201100D01*
X95324307Y-45199968D01*
X95329670Y-45205331D01*
X95381434Y-45239918D01*
X95381437Y-45239920D01*
X95427086Y-45249000D01*
X95427090Y-45249000D01*
X96057910Y-45249000D01*
X96057914Y-45249000D01*
X96103563Y-45239920D01*
X96155330Y-45205330D01*
X96157815Y-45201612D01*
X96170675Y-45182365D01*
X96189920Y-45153563D01*
X96199000Y-45107914D01*
X96199000Y-44876000D01*
X96217015Y-44826505D01*
X96262629Y-44800170D01*
X96276000Y-44799000D01*
X96373649Y-44799000D01*
X96423144Y-44817015D01*
X96428096Y-44821553D01*
X97128447Y-45521904D01*
X97150707Y-45569640D01*
X97151000Y-45576351D01*
X97151000Y-47523649D01*
X97132985Y-47573144D01*
X97128447Y-47578096D01*
X96637505Y-48069037D01*
X96627376Y-48076328D01*
X96627786Y-48076871D01*
X96622095Y-48081169D01*
X96588861Y-48117623D01*
X96587634Y-48118908D01*
X96573191Y-48133352D01*
X96573187Y-48133356D01*
X96570667Y-48137035D01*
X96567358Y-48141211D01*
X96544897Y-48165850D01*
X96544894Y-48165854D01*
X96540267Y-48177797D01*
X96531989Y-48193498D01*
X96531286Y-48194524D01*
X96488449Y-48225171D01*
X96435934Y-48221113D01*
X96424987Y-48215024D01*
X96400081Y-48198382D01*
X96325263Y-48183500D01*
X96325260Y-48183500D01*
X96278850Y-48183500D01*
X96229355Y-48165485D01*
X96224403Y-48160947D01*
X96071553Y-48008096D01*
X96049293Y-47960360D01*
X96049000Y-47953649D01*
X96049000Y-47813965D01*
X96067015Y-47764470D01*
X96098089Y-47746529D01*
X96096554Y-47742823D01*
X96103557Y-47739921D01*
X96103563Y-47739920D01*
X96155330Y-47705330D01*
X96189920Y-47653563D01*
X96199000Y-47607914D01*
X96199000Y-46377086D01*
X96189920Y-46331437D01*
X96186621Y-46326500D01*
X96155331Y-46279670D01*
X96155329Y-46279668D01*
X96103565Y-46245081D01*
X96103563Y-46245080D01*
X96057914Y-46236000D01*
X95621238Y-46236000D01*
X95571743Y-46217985D01*
X95549092Y-46185908D01*
X95535852Y-46150409D01*
X95449688Y-46035311D01*
X95334587Y-45949145D01*
X95199875Y-45898902D01*
X95140324Y-45892500D01*
X95042500Y-45892500D01*
X95042500Y-48092500D01*
X95140324Y-48092500D01*
X95199874Y-48086097D01*
X95199876Y-48086097D01*
X95331527Y-48036995D01*
X95384196Y-48036577D01*
X95424812Y-48070112D01*
X95435353Y-48105582D01*
X95435959Y-48118686D01*
X95436000Y-48120465D01*
X95436000Y-48140901D01*
X95436818Y-48145282D01*
X95437432Y-48150578D01*
X95438974Y-48183887D01*
X95438975Y-48183892D01*
X95444145Y-48195602D01*
X95449393Y-48212549D01*
X95451746Y-48225137D01*
X95451747Y-48225138D01*
X95469302Y-48253491D01*
X95471787Y-48258208D01*
X95485257Y-48288714D01*
X95494310Y-48297767D01*
X95505330Y-48311679D01*
X95512068Y-48322562D01*
X95512072Y-48322566D01*
X95538681Y-48342660D01*
X95542700Y-48346157D01*
X95664543Y-48468000D01*
X95760947Y-48564404D01*
X95783207Y-48612140D01*
X95783500Y-48618849D01*
X95783500Y-48665260D01*
X95783501Y-48665263D01*
X95798382Y-48740083D01*
X95855073Y-48824926D01*
X95874043Y-48837601D01*
X95939919Y-48881618D01*
X96014737Y-48896500D01*
X96325262Y-48896499D01*
X96400081Y-48881618D01*
X96400082Y-48881617D01*
X96400083Y-48881617D01*
X96447221Y-48850120D01*
X96498382Y-48837601D01*
X96532779Y-48850120D01*
X96539071Y-48854324D01*
X96579919Y-48881618D01*
X96654737Y-48896500D01*
X96965262Y-48896499D01*
X97040081Y-48881618D01*
X97092972Y-48846276D01*
X97144133Y-48833758D01*
X97191373Y-48857053D01*
X97206889Y-48880833D01*
X97215900Y-48902588D01*
X97215902Y-48902591D01*
X97312074Y-49027925D01*
X97437408Y-49124097D01*
X97437407Y-49124097D01*
X97560777Y-49175198D01*
X97599611Y-49210782D01*
X97606486Y-49263003D01*
X97585759Y-49300784D01*
X97554124Y-49332418D01*
X97505596Y-49380947D01*
X97457862Y-49403207D01*
X97451150Y-49403500D01*
X95478850Y-49403500D01*
X95429355Y-49385485D01*
X95424403Y-49380947D01*
X94227820Y-48184363D01*
X94205560Y-48136627D01*
X94219192Y-48085751D01*
X94262338Y-48055540D01*
X94309175Y-48057771D01*
X94385124Y-48086097D01*
X94444676Y-48092500D01*
X94542500Y-48092500D01*
X94542500Y-45892500D01*
X94444676Y-45892500D01*
X94385125Y-45898902D01*
X94385123Y-45898902D01*
X94250412Y-45949145D01*
X94135311Y-46035311D01*
X94049147Y-46150409D01*
X94035908Y-46185908D01*
X94001733Y-46225987D01*
X93963762Y-46236000D01*
X93527086Y-46236000D01*
X93481437Y-46245080D01*
X93481434Y-46245081D01*
X93429670Y-46279668D01*
X93429668Y-46279670D01*
X93395081Y-46331434D01*
X93395080Y-46331437D01*
X93386000Y-46377086D01*
X93386000Y-47607914D01*
X93391716Y-47636649D01*
X93395080Y-47653562D01*
X93395081Y-47653565D01*
X93429668Y-47705329D01*
X93429670Y-47705331D01*
X93477139Y-47737048D01*
X93481437Y-47739920D01*
X93481440Y-47739920D01*
X93488446Y-47742823D01*
X93486902Y-47746550D01*
X93517869Y-47764332D01*
X93536000Y-47813785D01*
X93536000Y-48169944D01*
X93533991Y-48182261D01*
X93534667Y-48182356D01*
X93533681Y-48189422D01*
X93534315Y-48203132D01*
X93518605Y-48253405D01*
X93474255Y-48281819D01*
X93455016Y-48283190D01*
X93455016Y-48283500D01*
X92738011Y-48283500D01*
X92642819Y-48298576D01*
X92528089Y-48357034D01*
X92528083Y-48357038D01*
X92437038Y-48448083D01*
X92437034Y-48448089D01*
X92378576Y-48562819D01*
X92363500Y-48658010D01*
X92363500Y-50021988D01*
X92378576Y-50117180D01*
X92391576Y-50142693D01*
X92437035Y-50231913D01*
X92528087Y-50322965D01*
X92642819Y-50381423D01*
X92738009Y-50396500D01*
X93451990Y-50396499D01*
X93547181Y-50381423D01*
X93661913Y-50322965D01*
X93694878Y-50290000D01*
X108525000Y-50290000D01*
X108525000Y-50387824D01*
X108531402Y-50447374D01*
X108531402Y-50447376D01*
X108581645Y-50582087D01*
X108667811Y-50697188D01*
X108782912Y-50783354D01*
X108917624Y-50833597D01*
X108977176Y-50840000D01*
X109650000Y-50840000D01*
X109650000Y-50290000D01*
X110150000Y-50290000D01*
X110150000Y-50840000D01*
X110822824Y-50840000D01*
X110882374Y-50833597D01*
X110882376Y-50833597D01*
X111017087Y-50783354D01*
X111132188Y-50697188D01*
X111218354Y-50582087D01*
X111248970Y-50500000D01*
X113313549Y-50500000D01*
X113322606Y-50562995D01*
X113333254Y-50637048D01*
X113333254Y-50637049D01*
X113390770Y-50762994D01*
X113402874Y-50776962D01*
X113481442Y-50867635D01*
X113597921Y-50942491D01*
X113730771Y-50981500D01*
X113730773Y-50981500D01*
X113869227Y-50981500D01*
X113869229Y-50981500D01*
X114002079Y-50942491D01*
X114118558Y-50867635D01*
X114209229Y-50762995D01*
X114266746Y-50637049D01*
X114281772Y-50532540D01*
X114306647Y-50486114D01*
X114355545Y-50466539D01*
X114357988Y-50466500D01*
X114604269Y-50466500D01*
X114604270Y-50466500D01*
X114629060Y-50463624D01*
X114730465Y-50418849D01*
X114808849Y-50340465D01*
X114829561Y-50293555D01*
X114866032Y-50255555D01*
X114918397Y-50249888D01*
X114962154Y-50279207D01*
X114970436Y-50293552D01*
X114991151Y-50340465D01*
X115069535Y-50418849D01*
X115170940Y-50463624D01*
X115195730Y-50466500D01*
X115195731Y-50466500D01*
X115564267Y-50466500D01*
X115564270Y-50466500D01*
X115586911Y-50463873D01*
X115638151Y-50476064D01*
X115665825Y-50508373D01*
X115690768Y-50562991D01*
X115690770Y-50562993D01*
X115690771Y-50562995D01*
X115781442Y-50667635D01*
X115897921Y-50742491D01*
X116030771Y-50781500D01*
X116030773Y-50781500D01*
X116169227Y-50781500D01*
X116169229Y-50781500D01*
X116302079Y-50742491D01*
X116418558Y-50667635D01*
X116509229Y-50562995D01*
X116566746Y-50437049D01*
X116586451Y-50300000D01*
X116566746Y-50162951D01*
X116509229Y-50037005D01*
X116418558Y-49932365D01*
X116302079Y-49857509D01*
X116169229Y-49818500D01*
X116030771Y-49818500D01*
X116030770Y-49818500D01*
X116026463Y-49819119D01*
X115974909Y-49808329D01*
X115972753Y-49806940D01*
X115963510Y-49800764D01*
X115963509Y-49800763D01*
X115900082Y-49758382D01*
X115900077Y-49758380D01*
X115843312Y-49747089D01*
X115798283Y-49719765D01*
X115787895Y-49702670D01*
X115768850Y-49659538D01*
X115768849Y-49659535D01*
X115690465Y-49581151D01*
X115589060Y-49536376D01*
X115589059Y-49536375D01*
X115589057Y-49536375D01*
X115568013Y-49533934D01*
X115564270Y-49533500D01*
X115195730Y-49533500D01*
X115192477Y-49533877D01*
X115170942Y-49536375D01*
X115069536Y-49581150D01*
X115069533Y-49581152D01*
X114991152Y-49659533D01*
X114991150Y-49659537D01*
X114970439Y-49706443D01*
X114933967Y-49744444D01*
X114881602Y-49750111D01*
X114837845Y-49720792D01*
X114829561Y-49706443D01*
X114823261Y-49692175D01*
X114808849Y-49659535D01*
X114730465Y-49581151D01*
X114629060Y-49536376D01*
X114629059Y-49536375D01*
X114629057Y-49536375D01*
X114608013Y-49533934D01*
X114604270Y-49533500D01*
X114235730Y-49533500D01*
X114232477Y-49533877D01*
X114210942Y-49536375D01*
X114109536Y-49581150D01*
X114109533Y-49581152D01*
X114031152Y-49659533D01*
X114031150Y-49659536D01*
X113986375Y-49760942D01*
X113983499Y-49785730D01*
X113983500Y-49921859D01*
X113965485Y-49971354D01*
X113960956Y-49976296D01*
X113949248Y-49988005D01*
X113939780Y-49997473D01*
X113892043Y-50019731D01*
X113874374Y-50019240D01*
X113869229Y-50018500D01*
X113730771Y-50018500D01*
X113597921Y-50057509D01*
X113597920Y-50057509D01*
X113481442Y-50132365D01*
X113390770Y-50237005D01*
X113333254Y-50362950D01*
X113333254Y-50362951D01*
X113315546Y-50486114D01*
X113313549Y-50500000D01*
X111248970Y-50500000D01*
X111268597Y-50447376D01*
X111268597Y-50447374D01*
X111275000Y-50387824D01*
X111275000Y-50290000D01*
X110150000Y-50290000D01*
X109650000Y-50290000D01*
X108525000Y-50290000D01*
X93694878Y-50290000D01*
X93752965Y-50231913D01*
X93811423Y-50117181D01*
X93826500Y-50021991D01*
X93826499Y-48835849D01*
X93844514Y-48786355D01*
X93890128Y-48760020D01*
X93941999Y-48769166D01*
X93957946Y-48781403D01*
X95059036Y-49882492D01*
X95066328Y-49892624D01*
X95066872Y-49892214D01*
X95071172Y-49897908D01*
X95107623Y-49931137D01*
X95108910Y-49932366D01*
X95123355Y-49946811D01*
X95127024Y-49949324D01*
X95131213Y-49952642D01*
X95147227Y-49967240D01*
X95155854Y-49975105D01*
X95167791Y-49979729D01*
X95183492Y-49988005D01*
X95194054Y-49995241D01*
X95226525Y-50002878D01*
X95231610Y-50004453D01*
X95262705Y-50016500D01*
X95275504Y-50016500D01*
X95293132Y-50018545D01*
X95296088Y-50019240D01*
X95305599Y-50021477D01*
X95326617Y-50018545D01*
X95338630Y-50016870D01*
X95343955Y-50016500D01*
X97547443Y-50016500D01*
X97559759Y-50018509D01*
X97559854Y-50017833D01*
X97566917Y-50018817D01*
X97566922Y-50018819D01*
X97612798Y-50016697D01*
X97616188Y-50016541D01*
X97617967Y-50016500D01*
X97638397Y-50016500D01*
X97638400Y-50016500D01*
X97642775Y-50015681D01*
X97648080Y-50015066D01*
X97658479Y-50014584D01*
X97681389Y-50013526D01*
X97693099Y-50008355D01*
X97710055Y-50003105D01*
X97722638Y-50000753D01*
X97750988Y-49983199D01*
X97755707Y-49980712D01*
X97786215Y-49967242D01*
X97795267Y-49958188D01*
X97809185Y-49947165D01*
X97820064Y-49940430D01*
X97840166Y-49913808D01*
X97843654Y-49909801D01*
X97963455Y-49790000D01*
X108525000Y-49790000D01*
X109650000Y-49790000D01*
X109650000Y-49240000D01*
X108977176Y-49240000D01*
X108917625Y-49246402D01*
X108917623Y-49246402D01*
X108782912Y-49296645D01*
X108667811Y-49382811D01*
X108581645Y-49497912D01*
X108531402Y-49632623D01*
X108531402Y-49632625D01*
X108525000Y-49692175D01*
X108525000Y-49790000D01*
X97963455Y-49790000D01*
X98682494Y-49070961D01*
X98692626Y-49063674D01*
X98692214Y-49063128D01*
X98697907Y-49058829D01*
X98705956Y-49049999D01*
X98731146Y-49022366D01*
X98732336Y-49021119D01*
X98746810Y-49006647D01*
X98749331Y-49002965D01*
X98752627Y-48998801D01*
X98775105Y-48974146D01*
X98779730Y-48962205D01*
X98788005Y-48946506D01*
X98795240Y-48935946D01*
X98802875Y-48903478D01*
X98804447Y-48898403D01*
X98816500Y-48867295D01*
X98816500Y-48867293D01*
X98819078Y-48860640D01*
X98820856Y-48861329D01*
X98842918Y-48824010D01*
X98891804Y-48806500D01*
X99168970Y-48806500D01*
X99211748Y-48819476D01*
X99229919Y-48831618D01*
X99304737Y-48846500D01*
X99615262Y-48846499D01*
X99690081Y-48831618D01*
X99690082Y-48831617D01*
X99690083Y-48831617D01*
X99737221Y-48800120D01*
X99788382Y-48787601D01*
X99822779Y-48800120D01*
X99827838Y-48803500D01*
X99869919Y-48831618D01*
X99944737Y-48846500D01*
X100255262Y-48846499D01*
X100330081Y-48831618D01*
X100363217Y-48809476D01*
X100405996Y-48796500D01*
X101957443Y-48796500D01*
X101969759Y-48798509D01*
X101969854Y-48797833D01*
X101976917Y-48798817D01*
X101976922Y-48798819D01*
X102022798Y-48796697D01*
X102026188Y-48796541D01*
X102027967Y-48796500D01*
X102048397Y-48796500D01*
X102048400Y-48796500D01*
X102052775Y-48795681D01*
X102058080Y-48795066D01*
X102068479Y-48794584D01*
X102091389Y-48793526D01*
X102103099Y-48788355D01*
X102120055Y-48783105D01*
X102132638Y-48780753D01*
X102160988Y-48763199D01*
X102165707Y-48760712D01*
X102167274Y-48760020D01*
X102196215Y-48747242D01*
X102205267Y-48738188D01*
X102219185Y-48727165D01*
X102230064Y-48720430D01*
X102250166Y-48693808D01*
X102253654Y-48689801D01*
X102802494Y-48140961D01*
X102812626Y-48133674D01*
X102812214Y-48133128D01*
X102817907Y-48128829D01*
X102822359Y-48123945D01*
X102851146Y-48092366D01*
X102852336Y-48091119D01*
X102866810Y-48076647D01*
X102869331Y-48072965D01*
X102872627Y-48068801D01*
X102895105Y-48044146D01*
X102899728Y-48032210D01*
X102908002Y-48016511D01*
X102915240Y-48005947D01*
X102922877Y-47973476D01*
X102924453Y-47968390D01*
X102936500Y-47937295D01*
X102936500Y-47924491D01*
X102938545Y-47906863D01*
X102938960Y-47905094D01*
X102941476Y-47894401D01*
X102936868Y-47861370D01*
X102936499Y-47856064D01*
X102936499Y-46692560D01*
X102938510Y-46680237D01*
X102937833Y-46680143D01*
X102938819Y-46673078D01*
X102936541Y-46623811D01*
X102936500Y-46622033D01*
X102936500Y-46601606D01*
X102936500Y-46601600D01*
X102935681Y-46597219D01*
X102935065Y-46591916D01*
X102934622Y-46582330D01*
X102933526Y-46558611D01*
X102928353Y-46546896D01*
X102923106Y-46529949D01*
X102920753Y-46517363D01*
X102920753Y-46517362D01*
X102903199Y-46489011D01*
X102900712Y-46484292D01*
X102887243Y-46453787D01*
X102887242Y-46453786D01*
X102887242Y-46453785D01*
X102878190Y-46444733D01*
X102867168Y-46430818D01*
X102860433Y-46419940D01*
X102860431Y-46419938D01*
X102860430Y-46419936D01*
X102833817Y-46399838D01*
X102829794Y-46396337D01*
X102617903Y-46184446D01*
X102595643Y-46136710D01*
X102609275Y-46085834D01*
X102617897Y-46075558D01*
X103764403Y-44929053D01*
X103812140Y-44906793D01*
X103818851Y-44906500D01*
X107942705Y-44906500D01*
X109142705Y-44906500D01*
X111316500Y-44906500D01*
X111365995Y-44924515D01*
X111392330Y-44970129D01*
X111393500Y-44983500D01*
X111393500Y-46506500D01*
X111375485Y-46555995D01*
X111329871Y-46582330D01*
X111316500Y-46583500D01*
X110759586Y-46583500D01*
X110717275Y-46591916D01*
X110713937Y-46592580D01*
X110713934Y-46592581D01*
X110662170Y-46627168D01*
X110662168Y-46627170D01*
X110627581Y-46678934D01*
X110627580Y-46678937D01*
X110618500Y-46724586D01*
X110618500Y-47355414D01*
X110627369Y-47400000D01*
X110627580Y-47401062D01*
X110627581Y-47401065D01*
X110666383Y-47459137D01*
X110665096Y-47459996D01*
X110683652Y-47499789D01*
X110670020Y-47550665D01*
X110626874Y-47580876D01*
X110606945Y-47583500D01*
X109128930Y-47583500D01*
X109079435Y-47565485D01*
X109053100Y-47519871D01*
X109052714Y-47495541D01*
X109066451Y-47400000D01*
X109046746Y-47262951D01*
X108989229Y-47137005D01*
X108898558Y-47032365D01*
X108782079Y-46957509D01*
X108649229Y-46918500D01*
X108510771Y-46918500D01*
X108505317Y-46919284D01*
X108505008Y-46917136D01*
X108460988Y-46914326D01*
X108449103Y-46907819D01*
X108390082Y-46868382D01*
X108290000Y-46848475D01*
X108289999Y-46848475D01*
X108289998Y-46848475D01*
X108272171Y-46852021D01*
X108257151Y-46853500D01*
X105080021Y-46853500D01*
X105030526Y-46835485D01*
X105021832Y-46826928D01*
X104948558Y-46742365D01*
X104832079Y-46667509D01*
X104699229Y-46628500D01*
X104560771Y-46628500D01*
X104427921Y-46667509D01*
X104427920Y-46667509D01*
X104311442Y-46742365D01*
X104220770Y-46847005D01*
X104164725Y-46969729D01*
X104163254Y-46972951D01*
X104143549Y-47110000D01*
X104157536Y-47207283D01*
X104163254Y-47247048D01*
X104163254Y-47247049D01*
X104220770Y-47372994D01*
X104220771Y-47372995D01*
X104311442Y-47477635D01*
X104427921Y-47552491D01*
X104560771Y-47591500D01*
X104560773Y-47591500D01*
X104699227Y-47591500D01*
X104699229Y-47591500D01*
X104832079Y-47552491D01*
X104948558Y-47477635D01*
X105021829Y-47393075D01*
X105067855Y-47367467D01*
X105080021Y-47366500D01*
X108022012Y-47366500D01*
X108071507Y-47384515D01*
X108097842Y-47430129D01*
X108098225Y-47432526D01*
X108109724Y-47512495D01*
X108113254Y-47537048D01*
X108113254Y-47537049D01*
X108170770Y-47662994D01*
X108175595Y-47668562D01*
X108261442Y-47767635D01*
X108377921Y-47842491D01*
X108510771Y-47881500D01*
X108510773Y-47881500D01*
X108649227Y-47881500D01*
X108649229Y-47881500D01*
X108769808Y-47846094D01*
X108822371Y-47849434D01*
X108860491Y-47885781D01*
X108868500Y-47919974D01*
X108868500Y-48355414D01*
X108870931Y-48367634D01*
X108877580Y-48401062D01*
X108877581Y-48401065D01*
X108912168Y-48452829D01*
X108912170Y-48452831D01*
X108955077Y-48481500D01*
X108963937Y-48487420D01*
X109009586Y-48496500D01*
X109009590Y-48496500D01*
X110606945Y-48496500D01*
X110656440Y-48514515D01*
X110682775Y-48560129D01*
X110673629Y-48612000D01*
X110663385Y-48625348D01*
X110627581Y-48678934D01*
X110627580Y-48678937D01*
X110625421Y-48689794D01*
X110618500Y-48724588D01*
X110618500Y-49163000D01*
X110600485Y-49212495D01*
X110554871Y-49238830D01*
X110541500Y-49240000D01*
X110150000Y-49240000D01*
X110150000Y-49790000D01*
X111275000Y-49790000D01*
X111275000Y-49692175D01*
X111268597Y-49632625D01*
X111268597Y-49632623D01*
X111256582Y-49600408D01*
X111256164Y-49547739D01*
X111289700Y-49507123D01*
X111328727Y-49496500D01*
X112540410Y-49496500D01*
X112540414Y-49496500D01*
X112586063Y-49487420D01*
X112637830Y-49452830D01*
X112672420Y-49401063D01*
X112681500Y-49355414D01*
X112681500Y-49353500D01*
X112681758Y-49352790D01*
X112681871Y-49351645D01*
X112682164Y-49351673D01*
X112699515Y-49304005D01*
X112745129Y-49277670D01*
X112758500Y-49276500D01*
X116225272Y-49276500D01*
X116274767Y-49294515D01*
X116290047Y-49311869D01*
X116290768Y-49312991D01*
X116290770Y-49312993D01*
X116290771Y-49312995D01*
X116381442Y-49417635D01*
X116497921Y-49492491D01*
X116630771Y-49531500D01*
X116630773Y-49531500D01*
X116769227Y-49531500D01*
X116769229Y-49531500D01*
X116902079Y-49492491D01*
X117018558Y-49417635D01*
X117109229Y-49312995D01*
X117166746Y-49187049D01*
X117186451Y-49050000D01*
X117166746Y-48912951D01*
X117109229Y-48787005D01*
X117018558Y-48682365D01*
X116902079Y-48607509D01*
X116769229Y-48568500D01*
X116630771Y-48568500D01*
X116497921Y-48607509D01*
X116497920Y-48607509D01*
X116419341Y-48658009D01*
X116381442Y-48682365D01*
X116299505Y-48776924D01*
X116253480Y-48802533D01*
X116241314Y-48803500D01*
X112758500Y-48803500D01*
X112709005Y-48785485D01*
X112682670Y-48739871D01*
X112681500Y-48726500D01*
X112681500Y-48724590D01*
X112681500Y-48724586D01*
X112672420Y-48678937D01*
X112658437Y-48658010D01*
X112637831Y-48627170D01*
X112637829Y-48627168D01*
X112586065Y-48592581D01*
X112586063Y-48592580D01*
X112540414Y-48583500D01*
X110943055Y-48583500D01*
X110893560Y-48565485D01*
X110867225Y-48519871D01*
X110876371Y-48468000D01*
X110886614Y-48454651D01*
X110913114Y-48414990D01*
X110922420Y-48401063D01*
X110931500Y-48355414D01*
X110931500Y-48353500D01*
X110931758Y-48352790D01*
X110931871Y-48351645D01*
X110932164Y-48351673D01*
X110949515Y-48304005D01*
X110995129Y-48277670D01*
X111008500Y-48276500D01*
X117002805Y-48276500D01*
X117004811Y-48276552D01*
X117035080Y-48278139D01*
X117047821Y-48278807D01*
X117047821Y-48278806D01*
X117047823Y-48278807D01*
X117071717Y-48269633D01*
X117083296Y-48266204D01*
X117108342Y-48260881D01*
X117115621Y-48255591D01*
X117133287Y-48245999D01*
X117141684Y-48242777D01*
X117159789Y-48224671D01*
X117168964Y-48216835D01*
X117186558Y-48204054D01*
X117189680Y-48201786D01*
X117189680Y-48201785D01*
X117189681Y-48201785D01*
X117194179Y-48193991D01*
X117206415Y-48178044D01*
X117912145Y-47472314D01*
X117913562Y-47470969D01*
X117945607Y-47442117D01*
X117956019Y-47418727D01*
X117961780Y-47408119D01*
X117975725Y-47386648D01*
X117977132Y-47377757D01*
X117982839Y-47358491D01*
X117986500Y-47350270D01*
X117986500Y-47324677D01*
X117987448Y-47312631D01*
X117991453Y-47287346D01*
X117989122Y-47278650D01*
X117986499Y-47258731D01*
X117986500Y-46812415D01*
X118004515Y-46762920D01*
X118021868Y-46747640D01*
X118068558Y-46717635D01*
X118159229Y-46612995D01*
X118216746Y-46487049D01*
X118236451Y-46350000D01*
X118216746Y-46212951D01*
X118159229Y-46087005D01*
X118156558Y-46083923D01*
X118137762Y-46034721D01*
X118154989Y-45984947D01*
X118200180Y-45957891D01*
X118214752Y-45956500D01*
X119511860Y-45956500D01*
X119561355Y-45974515D01*
X119566307Y-45979053D01*
X120370947Y-46783693D01*
X120393207Y-46831429D01*
X120393500Y-46838140D01*
X120393500Y-47052129D01*
X120375485Y-47101624D01*
X120329871Y-47127959D01*
X120294808Y-47126010D01*
X120269232Y-47118500D01*
X120269229Y-47118500D01*
X120130771Y-47118500D01*
X119997921Y-47157509D01*
X119997920Y-47157509D01*
X119881442Y-47232365D01*
X119790770Y-47337005D01*
X119733254Y-47462950D01*
X119733254Y-47462951D01*
X119718512Y-47565485D01*
X119713549Y-47600000D01*
X119730938Y-47720944D01*
X119733254Y-47737048D01*
X119733254Y-47737049D01*
X119790770Y-47862994D01*
X119790771Y-47862995D01*
X119881442Y-47967635D01*
X119997921Y-48042491D01*
X120130771Y-48081500D01*
X120130773Y-48081500D01*
X120269227Y-48081500D01*
X120269229Y-48081500D01*
X120402079Y-48042491D01*
X120470184Y-47998722D01*
X120511812Y-47986500D01*
X121786715Y-47986500D01*
X121836210Y-48004515D01*
X121850737Y-48020720D01*
X121859706Y-48034143D01*
X121862171Y-48037831D01*
X121892013Y-48057771D01*
X121913937Y-48072420D01*
X121959586Y-48081500D01*
X121986500Y-48081500D01*
X122035995Y-48099515D01*
X122062330Y-48145129D01*
X122063500Y-48158500D01*
X122063500Y-48870144D01*
X122045485Y-48919639D01*
X122040947Y-48924591D01*
X120861682Y-50103855D01*
X120813946Y-50126115D01*
X120785543Y-50123289D01*
X120769235Y-50118500D01*
X120769229Y-50118500D01*
X120630771Y-50118500D01*
X120497921Y-50157509D01*
X120497920Y-50157509D01*
X120381442Y-50232365D01*
X120290770Y-50337005D01*
X120233254Y-50462950D01*
X120233254Y-50462951D01*
X120216125Y-50582087D01*
X120213549Y-50600000D01*
X120232169Y-50729506D01*
X120233254Y-50737048D01*
X120233254Y-50737049D01*
X120290770Y-50862994D01*
X120302874Y-50876962D01*
X120381442Y-50967635D01*
X120497921Y-51042491D01*
X120630771Y-51081500D01*
X120630773Y-51081500D01*
X120769227Y-51081500D01*
X120769229Y-51081500D01*
X120902079Y-51042491D01*
X121018558Y-50967635D01*
X121109229Y-50862995D01*
X121166746Y-50737049D01*
X121186451Y-50600000D01*
X121172829Y-50505265D01*
X121183615Y-50453713D01*
X121194594Y-50439865D01*
X122462155Y-49172305D01*
X122463572Y-49170960D01*
X122495607Y-49142117D01*
X122506019Y-49118728D01*
X122511772Y-49108131D01*
X122525725Y-49086648D01*
X122527132Y-49077757D01*
X122532839Y-49058491D01*
X122536500Y-49050270D01*
X122536500Y-49024676D01*
X122537448Y-49012630D01*
X122541453Y-48987345D01*
X122539123Y-48978652D01*
X122536500Y-48958723D01*
X122536500Y-48648440D01*
X122536500Y-48321331D01*
X122554514Y-48271839D01*
X122600128Y-48245504D01*
X122651999Y-48254650D01*
X122675140Y-48275189D01*
X122717810Y-48332188D01*
X122832912Y-48418354D01*
X122967624Y-48468597D01*
X123027176Y-48475000D01*
X123600000Y-48475000D01*
X123600000Y-45075000D01*
X123027176Y-45075000D01*
X122967625Y-45081402D01*
X122967623Y-45081402D01*
X122832912Y-45131645D01*
X122717811Y-45217811D01*
X122675141Y-45274810D01*
X122631058Y-45303636D01*
X122578760Y-45297383D01*
X122542717Y-45258975D01*
X122536500Y-45228665D01*
X122536500Y-44953499D01*
X122554515Y-44904004D01*
X122600129Y-44877669D01*
X122613500Y-44876499D01*
X122668518Y-44876499D01*
X122692895Y-44873672D01*
X122792591Y-44829652D01*
X122869652Y-44752591D01*
X122913672Y-44652895D01*
X122916500Y-44628519D01*
X122916499Y-44171482D01*
X122913672Y-44147105D01*
X122907997Y-44134253D01*
X122885588Y-44083500D01*
X122869652Y-44047409D01*
X122869650Y-44047407D01*
X122869648Y-44047404D01*
X122790191Y-43967947D01*
X122767931Y-43920211D01*
X122781563Y-43869335D01*
X122824709Y-43839124D01*
X122844638Y-43836500D01*
X123155362Y-43836500D01*
X123204857Y-43854515D01*
X123231192Y-43900129D01*
X123222046Y-43952000D01*
X123209809Y-43967947D01*
X123130351Y-44047404D01*
X123130347Y-44047410D01*
X123086327Y-44147104D01*
X123083500Y-44171481D01*
X123083500Y-44628518D01*
X123083501Y-44628519D01*
X123086327Y-44652892D01*
X123086328Y-44652897D01*
X123130347Y-44752589D01*
X123130351Y-44752595D01*
X123207404Y-44829648D01*
X123207407Y-44829650D01*
X123207409Y-44829652D01*
X123257256Y-44851662D01*
X123307104Y-44873672D01*
X123309638Y-44873965D01*
X123331481Y-44876500D01*
X123688518Y-44876499D01*
X123712895Y-44873672D01*
X123812591Y-44829652D01*
X123889652Y-44752591D01*
X123920645Y-44682397D01*
X123957118Y-44644397D01*
X123991085Y-44636500D01*
X127220145Y-44636500D01*
X127269640Y-44654515D01*
X127274592Y-44659053D01*
X127505400Y-44889861D01*
X127527660Y-44937597D01*
X127527169Y-44955266D01*
X127513549Y-45049997D01*
X127513549Y-45050000D01*
X127525984Y-45136489D01*
X127533254Y-45187048D01*
X127533254Y-45187049D01*
X127593042Y-45317968D01*
X127600000Y-45349954D01*
X127600000Y-45680000D01*
X128095960Y-45680000D01*
X128084748Y-45594827D01*
X128096148Y-45543404D01*
X128137935Y-45511341D01*
X128139329Y-45510916D01*
X128202079Y-45492491D01*
X128202081Y-45492489D01*
X128204514Y-45491379D01*
X128206367Y-45491231D01*
X128207364Y-45490939D01*
X128207425Y-45491147D01*
X128257019Y-45487205D01*
X128299924Y-45517758D01*
X128313500Y-45561421D01*
X128313499Y-46220145D01*
X128295484Y-46269640D01*
X128290947Y-46274591D01*
X128274592Y-46290946D01*
X128226858Y-46313207D01*
X128220145Y-46313500D01*
X128138960Y-46313500D01*
X128089465Y-46295485D01*
X128063130Y-46249871D01*
X128067821Y-46207034D01*
X128084557Y-46166628D01*
X128095961Y-46080001D01*
X128095960Y-46080000D01*
X126437000Y-46080000D01*
X126387505Y-46061985D01*
X126361170Y-46016371D01*
X126360000Y-46003000D01*
X126360000Y-45679999D01*
X126759999Y-45679999D01*
X126760000Y-45680000D01*
X127200000Y-45680000D01*
X127200000Y-45157988D01*
X127199999Y-45157988D01*
X127143367Y-45165444D01*
X127009466Y-45220907D01*
X126956845Y-45223204D01*
X126950534Y-45220907D01*
X126816632Y-45165444D01*
X126760000Y-45157988D01*
X126759999Y-45679999D01*
X126360000Y-45679999D01*
X126360000Y-45157988D01*
X126359999Y-45157988D01*
X126303368Y-45165444D01*
X126157407Y-45225902D01*
X126032074Y-45322074D01*
X125935902Y-45447407D01*
X125929537Y-45462775D01*
X125893951Y-45501607D01*
X125841731Y-45508480D01*
X125815621Y-45497330D01*
X125806056Y-45490939D01*
X125786063Y-45477580D01*
X125740414Y-45468500D01*
X125740411Y-45468500D01*
X125663021Y-45468500D01*
X125613526Y-45450485D01*
X125587191Y-45404871D01*
X125586805Y-45402459D01*
X125579255Y-45349954D01*
X125566746Y-45262951D01*
X125509229Y-45137005D01*
X125418558Y-45032365D01*
X125302079Y-44957509D01*
X125169229Y-44918500D01*
X125030771Y-44918500D01*
X124897921Y-44957509D01*
X124897920Y-44957509D01*
X124781439Y-45032367D01*
X124764766Y-45051609D01*
X124718739Y-45077217D01*
X124698345Y-45077743D01*
X124672827Y-45075000D01*
X124100000Y-45075000D01*
X124099999Y-48474999D01*
X124100000Y-48475000D01*
X124672824Y-48475000D01*
X124732374Y-48468597D01*
X124732376Y-48468597D01*
X124867087Y-48418354D01*
X124982188Y-48332188D01*
X125068354Y-48217087D01*
X125100242Y-48131592D01*
X125134417Y-48091513D01*
X125172387Y-48081500D01*
X125740410Y-48081500D01*
X125740414Y-48081500D01*
X125786063Y-48072420D01*
X125828379Y-48044145D01*
X125837829Y-48037831D01*
X125843193Y-48032468D01*
X125844868Y-48034143D01*
X125878378Y-48009575D01*
X125899922Y-48006500D01*
X125917151Y-48006500D01*
X125932171Y-48007979D01*
X125938378Y-48009213D01*
X125950000Y-48011525D01*
X126050082Y-47991618D01*
X126113509Y-47949237D01*
X126113509Y-47949236D01*
X126121848Y-47943665D01*
X126121851Y-47943661D01*
X126134926Y-47934926D01*
X126145025Y-47919810D01*
X126154593Y-47908151D01*
X126260217Y-47802527D01*
X126307952Y-47780268D01*
X126325628Y-47780760D01*
X126330770Y-47781499D01*
X126330771Y-47781500D01*
X126330772Y-47781500D01*
X126469227Y-47781500D01*
X126469229Y-47781500D01*
X126602079Y-47742491D01*
X126718558Y-47667635D01*
X126809229Y-47562995D01*
X126866746Y-47437049D01*
X126886451Y-47300000D01*
X126866746Y-47162951D01*
X126809229Y-47037005D01*
X126768575Y-46990088D01*
X126749779Y-46940886D01*
X126767006Y-46891112D01*
X126783991Y-46875642D01*
X126844925Y-46834927D01*
X126847263Y-46831429D01*
X126854417Y-46820722D01*
X126861100Y-46810721D01*
X126903577Y-46779576D01*
X126925123Y-46776500D01*
X127034877Y-46776500D01*
X127084372Y-46794515D01*
X127098900Y-46810721D01*
X127115073Y-46834926D01*
X127133151Y-46847005D01*
X127199919Y-46891618D01*
X127274737Y-46906500D01*
X127525262Y-46906499D01*
X127600081Y-46891618D01*
X127600082Y-46891617D01*
X127600083Y-46891617D01*
X127657128Y-46853500D01*
X127684926Y-46834926D01*
X127694417Y-46820720D01*
X127736892Y-46789576D01*
X127758440Y-46786500D01*
X128342805Y-46786500D01*
X128344811Y-46786552D01*
X128375080Y-46788139D01*
X128387821Y-46788807D01*
X128387821Y-46788806D01*
X128387823Y-46788807D01*
X128411717Y-46779633D01*
X128423296Y-46776204D01*
X128448342Y-46770881D01*
X128455621Y-46765591D01*
X128473287Y-46755999D01*
X128481684Y-46752777D01*
X128499782Y-46734678D01*
X128508966Y-46726835D01*
X128536229Y-46707028D01*
X128537019Y-46708116D01*
X128575780Y-46687505D01*
X128627301Y-46698453D01*
X128659730Y-46739957D01*
X128663500Y-46763755D01*
X128663500Y-48670144D01*
X128645485Y-48719639D01*
X128640947Y-48724591D01*
X127124592Y-50240947D01*
X127076856Y-50263207D01*
X127070145Y-50263500D01*
X125216482Y-50263500D01*
X125166987Y-50245485D01*
X125146440Y-50218487D01*
X125121078Y-50162951D01*
X125109229Y-50137005D01*
X125018558Y-50032365D01*
X124902079Y-49957509D01*
X124769229Y-49918500D01*
X124630771Y-49918500D01*
X124497921Y-49957509D01*
X124497920Y-49957509D01*
X124381442Y-50032365D01*
X124290770Y-50137005D01*
X124233254Y-50262950D01*
X124233254Y-50262951D01*
X124226616Y-50309122D01*
X124213549Y-50400000D01*
X124220360Y-50447374D01*
X124233254Y-50537048D01*
X124233254Y-50537049D01*
X124290770Y-50662994D01*
X124300616Y-50674357D01*
X124381442Y-50767635D01*
X124497921Y-50842491D01*
X124630771Y-50881500D01*
X124630773Y-50881500D01*
X124769227Y-50881500D01*
X124769229Y-50881500D01*
X124902079Y-50842491D01*
X125018558Y-50767635D01*
X125022510Y-50763073D01*
X125068538Y-50737467D01*
X125080702Y-50736500D01*
X127192805Y-50736500D01*
X127194811Y-50736552D01*
X127225080Y-50738139D01*
X127237821Y-50738807D01*
X127237821Y-50738806D01*
X127237823Y-50738807D01*
X127261717Y-50729633D01*
X127273296Y-50726204D01*
X127298342Y-50720881D01*
X127305621Y-50715591D01*
X127323287Y-50705999D01*
X127331684Y-50702777D01*
X127349789Y-50684671D01*
X127358964Y-50676835D01*
X127379681Y-50661785D01*
X127384179Y-50653991D01*
X127396415Y-50638044D01*
X129062145Y-48972314D01*
X129063562Y-48970969D01*
X129095607Y-48942117D01*
X129106019Y-48918727D01*
X129111780Y-48908119D01*
X129125725Y-48886648D01*
X129127132Y-48877757D01*
X129132839Y-48858491D01*
X129136500Y-48850270D01*
X129136500Y-48824677D01*
X129137448Y-48812631D01*
X129141453Y-48787346D01*
X129139123Y-48778653D01*
X129136500Y-48758724D01*
X129136500Y-48479766D01*
X129154515Y-48430271D01*
X129200129Y-48403936D01*
X129252000Y-48413082D01*
X129255097Y-48414970D01*
X129297921Y-48442491D01*
X129430771Y-48481500D01*
X129430773Y-48481500D01*
X129569227Y-48481500D01*
X129569229Y-48481500D01*
X129702079Y-48442491D01*
X129818558Y-48367635D01*
X129909229Y-48262995D01*
X129966746Y-48137049D01*
X129986451Y-48000000D01*
X129986267Y-47998723D01*
X129982639Y-47973491D01*
X129972829Y-47905265D01*
X129983615Y-47853713D01*
X129994594Y-47839865D01*
X130112145Y-47722314D01*
X130113562Y-47720969D01*
X130145607Y-47692117D01*
X130156019Y-47668727D01*
X130161780Y-47658119D01*
X130175725Y-47636648D01*
X130177132Y-47627757D01*
X130182839Y-47608491D01*
X130186500Y-47600270D01*
X130186500Y-47574677D01*
X130187448Y-47562631D01*
X130188259Y-47557509D01*
X130191453Y-47537346D01*
X130189123Y-47528653D01*
X130186500Y-47508724D01*
X130186500Y-47248440D01*
X130204515Y-47198945D01*
X130220718Y-47184418D01*
X130234926Y-47174926D01*
X130291618Y-47090081D01*
X130306500Y-47015263D01*
X130306499Y-46704738D01*
X130305249Y-46698453D01*
X130303970Y-46692020D01*
X130311984Y-46639962D01*
X130351586Y-46605235D01*
X130379491Y-46600000D01*
X131520921Y-46600000D01*
X131570416Y-46618015D01*
X131571802Y-46619206D01*
X132239348Y-47207283D01*
X133649998Y-48449999D01*
X133650000Y-48450000D01*
X137750000Y-48450000D01*
X138600000Y-47450000D01*
X138600000Y-43400000D01*
X138600000Y-43399999D01*
X138145250Y-42918500D01*
X137750000Y-42500000D01*
X133600000Y-42500000D01*
X132949998Y-42600000D01*
X131450000Y-44100000D01*
X130434461Y-44100000D01*
X132375408Y-42159053D01*
X132423144Y-42136793D01*
X132429855Y-42136500D01*
X133510305Y-42136500D01*
X133512311Y-42136552D01*
X133542580Y-42138139D01*
X133555321Y-42138807D01*
X133555321Y-42138806D01*
X133555323Y-42138807D01*
X133579217Y-42129633D01*
X133590796Y-42126204D01*
X133615842Y-42120881D01*
X133623121Y-42115591D01*
X133640787Y-42105999D01*
X133649184Y-42102777D01*
X133667289Y-42084671D01*
X133676464Y-42076835D01*
X133697181Y-42061785D01*
X133701679Y-42053991D01*
X133713915Y-42038044D01*
X134007908Y-41744052D01*
X134055644Y-41721792D01*
X134062355Y-41721499D01*
X134581861Y-41721499D01*
X134581864Y-41721499D01*
X134654803Y-41710873D01*
X134767314Y-41655870D01*
X134855870Y-41567314D01*
X134910873Y-41454803D01*
X134921500Y-41381865D01*
X134921499Y-40873136D01*
X134910873Y-40800197D01*
X134885200Y-40747682D01*
X134860579Y-40697318D01*
X134855025Y-40644941D01*
X134884438Y-40601247D01*
X134929755Y-40586500D01*
X135020145Y-40586500D01*
X135069640Y-40604515D01*
X135074591Y-40609052D01*
X136427694Y-41962156D01*
X136429056Y-41963591D01*
X136445938Y-41982341D01*
X136457883Y-41995607D01*
X136481262Y-42006016D01*
X136491879Y-42011780D01*
X136513352Y-42025725D01*
X136520141Y-42030134D01*
X136518555Y-42032575D01*
X136543304Y-42052346D01*
X136565073Y-42084926D01*
X136594738Y-42104747D01*
X136649919Y-42141618D01*
X136724737Y-42156500D01*
X137035262Y-42156499D01*
X137110081Y-42141618D01*
X137110082Y-42141617D01*
X137110083Y-42141617D01*
X137157221Y-42110120D01*
X137208382Y-42097601D01*
X137242779Y-42110120D01*
X137289917Y-42141617D01*
X137289919Y-42141618D01*
X137344064Y-42152387D01*
X137363998Y-42159300D01*
X137367422Y-42161045D01*
X137434355Y-42164553D01*
X137467821Y-42166307D01*
X137467821Y-42166306D01*
X137467823Y-42166307D01*
X137480048Y-42161613D01*
X137507644Y-42156499D01*
X137675261Y-42156499D01*
X137675262Y-42156499D01*
X137750081Y-42141618D01*
X137750082Y-42141617D01*
X137750083Y-42141617D01*
X137834926Y-42084926D01*
X137847660Y-42065868D01*
X137891618Y-42000081D01*
X137906500Y-41925263D01*
X137906499Y-41674738D01*
X137891618Y-41599919D01*
X137891617Y-41599918D01*
X137891617Y-41599916D01*
X137834926Y-41515073D01*
X137790721Y-41485536D01*
X137759576Y-41443059D01*
X137756500Y-41421513D01*
X137756500Y-41345076D01*
X137774515Y-41295581D01*
X137779972Y-41290693D01*
X137779565Y-41290286D01*
X137784922Y-41284928D01*
X137784926Y-41284926D01*
X137841618Y-41200081D01*
X137856500Y-41125263D01*
X137856499Y-41042618D01*
X137874513Y-40993125D01*
X137920127Y-40966789D01*
X137971998Y-40975935D01*
X137975111Y-40977832D01*
X137997921Y-40992491D01*
X138130771Y-41031500D01*
X138130773Y-41031500D01*
X138269227Y-41031500D01*
X138269229Y-41031500D01*
X138402079Y-40992491D01*
X138518558Y-40917635D01*
X138609229Y-40812995D01*
X138666746Y-40687049D01*
X138686451Y-40550000D01*
X138685516Y-40543500D01*
X138681216Y-40513590D01*
X138666746Y-40412951D01*
X138609229Y-40287005D01*
X138518558Y-40182365D01*
X138402079Y-40107509D01*
X138269229Y-40068500D01*
X138130771Y-40068500D01*
X138015872Y-40102238D01*
X137997921Y-40107509D01*
X137997917Y-40107510D01*
X137981852Y-40117835D01*
X137930475Y-40129437D01*
X137883660Y-40105300D01*
X137864704Y-40068078D01*
X137856618Y-40027419D01*
X137847875Y-40014335D01*
X137799928Y-39942577D01*
X137799926Y-39942574D01*
X137799922Y-39942571D01*
X137790719Y-39936421D01*
X137759575Y-39893944D01*
X137756500Y-39872400D01*
X137756500Y-39712667D01*
X137774515Y-39663172D01*
X137790716Y-39648647D01*
X137844926Y-39612426D01*
X137901618Y-39527581D01*
X137916500Y-39452763D01*
X137916499Y-39202238D01*
X137901618Y-39127419D01*
X137901617Y-39127418D01*
X137901617Y-39127416D01*
X137844926Y-39042573D01*
X137775144Y-38995947D01*
X137760081Y-38985882D01*
X137685263Y-38971000D01*
X137685259Y-38971000D01*
X137374739Y-38971000D01*
X137374736Y-38971001D01*
X137337584Y-38978390D01*
X137299919Y-38985882D01*
X137299918Y-38985882D01*
X137299916Y-38985883D01*
X137252778Y-39017380D01*
X137201616Y-39029899D01*
X137167221Y-39017380D01*
X137120081Y-38985882D01*
X137045263Y-38971000D01*
X137045260Y-38971000D01*
X136899856Y-38971000D01*
X136850361Y-38952985D01*
X136845409Y-38948447D01*
X136756325Y-38859363D01*
X136628907Y-38731946D01*
X136606648Y-38684211D01*
X136620280Y-38633335D01*
X136663426Y-38603124D01*
X136683355Y-38600500D01*
X140122500Y-38600500D01*
X140171995Y-38618515D01*
X140198330Y-38664129D01*
X140199500Y-38677500D01*
X140199500Y-66922500D01*
X140181485Y-66971995D01*
X140135871Y-66998330D01*
X140122500Y-66999500D01*
X88577500Y-66999500D01*
X88528005Y-66981485D01*
X88501670Y-66935871D01*
X88500500Y-66922500D01*
X88500500Y-66325414D01*
X97983500Y-66325414D01*
X97992580Y-66371062D01*
X97992581Y-66371065D01*
X98027168Y-66422829D01*
X98027170Y-66422831D01*
X98078934Y-66457418D01*
X98078937Y-66457420D01*
X98124586Y-66466500D01*
X98124590Y-66466500D01*
X100355410Y-66466500D01*
X100355414Y-66466500D01*
X100401063Y-66457420D01*
X100452830Y-66422830D01*
X100487420Y-66371063D01*
X100496500Y-66325414D01*
X100496500Y-66255414D01*
X129173500Y-66255414D01*
X129182580Y-66301062D01*
X129182581Y-66301065D01*
X129217168Y-66352829D01*
X129217170Y-66352831D01*
X129244457Y-66371063D01*
X129268937Y-66387420D01*
X129314586Y-66396500D01*
X129314590Y-66396500D01*
X131545410Y-66396500D01*
X131545414Y-66396500D01*
X131591063Y-66387420D01*
X131642830Y-66352830D01*
X131677420Y-66301063D01*
X131686500Y-66255414D01*
X131686500Y-65124586D01*
X131677420Y-65078937D01*
X131666491Y-65062581D01*
X131642831Y-65027170D01*
X131642829Y-65027168D01*
X131591065Y-64992581D01*
X131591063Y-64992580D01*
X131545414Y-64983500D01*
X129314586Y-64983500D01*
X129268937Y-64992580D01*
X129268934Y-64992581D01*
X129217170Y-65027168D01*
X129217168Y-65027170D01*
X129182581Y-65078934D01*
X129182580Y-65078937D01*
X129173500Y-65124586D01*
X129173500Y-66255414D01*
X100496500Y-66255414D01*
X100496500Y-65194586D01*
X100487420Y-65148937D01*
X100471152Y-65124590D01*
X100452831Y-65097170D01*
X100452829Y-65097168D01*
X100401065Y-65062581D01*
X100401063Y-65062580D01*
X100355414Y-65053500D01*
X98124586Y-65053500D01*
X98078936Y-65062580D01*
X98078937Y-65062580D01*
X98078934Y-65062581D01*
X98027170Y-65097168D01*
X98027168Y-65097170D01*
X97992581Y-65148934D01*
X97992580Y-65148937D01*
X97983500Y-65194586D01*
X97983500Y-66325414D01*
X88500500Y-66325414D01*
X88500500Y-62610000D01*
X102684958Y-62610000D01*
X102705105Y-62930232D01*
X102705106Y-62930241D01*
X102765226Y-63245402D01*
X102765231Y-63245422D01*
X102864378Y-63550566D01*
X102864378Y-63550567D01*
X103001003Y-63840906D01*
X103172922Y-64111807D01*
X103172929Y-64111817D01*
X103268772Y-64227672D01*
X103268773Y-64227672D01*
X104060185Y-63436260D01*
X104107921Y-63414000D01*
X104158797Y-63427632D01*
X104177706Y-63446540D01*
X104188947Y-63462593D01*
X104201890Y-63481078D01*
X104368922Y-63648110D01*
X104368925Y-63648112D01*
X104403457Y-63672292D01*
X104433668Y-63715438D01*
X104429076Y-63767908D01*
X104413738Y-63789813D01*
X103619175Y-64584375D01*
X103870936Y-64767291D01*
X103870938Y-64767292D01*
X104152115Y-64921870D01*
X104450446Y-65039988D01*
X104761233Y-65119785D01*
X105079570Y-65160000D01*
X105400429Y-65160000D01*
X105718765Y-65119785D01*
X105718767Y-65119785D01*
X106029553Y-65039988D01*
X106327884Y-64921870D01*
X106609061Y-64767292D01*
X106609063Y-64767291D01*
X106860823Y-64584375D01*
X106066260Y-63789813D01*
X106044000Y-63742077D01*
X106057632Y-63691201D01*
X106076537Y-63672295D01*
X106111078Y-63648110D01*
X106278110Y-63481078D01*
X106302293Y-63446539D01*
X106345436Y-63416331D01*
X106397907Y-63420921D01*
X106419813Y-63436260D01*
X107211225Y-64227672D01*
X107211227Y-64227672D01*
X107307069Y-64111819D01*
X107307077Y-64111807D01*
X107478996Y-63840906D01*
X107615621Y-63550567D01*
X107615621Y-63550566D01*
X107714768Y-63245422D01*
X107714773Y-63245402D01*
X107774893Y-62930241D01*
X107774894Y-62930232D01*
X107795042Y-62610000D01*
X107795042Y-62609999D01*
X107790638Y-62540000D01*
X121874958Y-62540000D01*
X121895105Y-62860232D01*
X121895106Y-62860241D01*
X121955226Y-63175402D01*
X121955231Y-63175422D01*
X122054378Y-63480566D01*
X122054378Y-63480567D01*
X122191003Y-63770906D01*
X122362922Y-64041807D01*
X122362929Y-64041817D01*
X122458772Y-64157672D01*
X122458773Y-64157672D01*
X123250185Y-63366260D01*
X123297921Y-63344000D01*
X123348797Y-63357632D01*
X123367706Y-63376540D01*
X123378947Y-63392593D01*
X123391890Y-63411078D01*
X123558922Y-63578110D01*
X123558925Y-63578112D01*
X123593457Y-63602292D01*
X123623668Y-63645438D01*
X123619076Y-63697908D01*
X123603738Y-63719813D01*
X122809175Y-64514375D01*
X123060936Y-64697291D01*
X123060938Y-64697292D01*
X123342115Y-64851870D01*
X123640446Y-64969988D01*
X123951233Y-65049785D01*
X124269570Y-65090000D01*
X124590429Y-65090000D01*
X124908765Y-65049785D01*
X124908767Y-65049785D01*
X125219553Y-64969988D01*
X125517884Y-64851870D01*
X125799061Y-64697292D01*
X125799063Y-64697291D01*
X126050823Y-64514375D01*
X125256260Y-63719813D01*
X125234000Y-63672077D01*
X125247632Y-63621201D01*
X125266537Y-63602295D01*
X125301078Y-63578110D01*
X125468110Y-63411078D01*
X125492293Y-63376539D01*
X125535436Y-63346331D01*
X125587907Y-63350921D01*
X125609813Y-63366260D01*
X126401225Y-64157672D01*
X126401227Y-64157672D01*
X126497069Y-64041819D01*
X126497077Y-64041807D01*
X126668996Y-63770906D01*
X126805621Y-63480567D01*
X126805621Y-63480566D01*
X126904768Y-63175422D01*
X126904773Y-63175402D01*
X126964893Y-62860241D01*
X126964894Y-62860232D01*
X126985042Y-62540000D01*
X126985042Y-62539999D01*
X126964894Y-62219767D01*
X126964893Y-62219758D01*
X126904773Y-61904597D01*
X126904768Y-61904577D01*
X126805621Y-61599433D01*
X126805621Y-61599432D01*
X126668996Y-61309093D01*
X126497077Y-61038192D01*
X126497076Y-61038190D01*
X126401225Y-60922326D01*
X125609813Y-61713738D01*
X125562077Y-61735998D01*
X125511201Y-61722366D01*
X125492292Y-61703457D01*
X125468112Y-61668925D01*
X125468110Y-61668922D01*
X125301078Y-61501890D01*
X125266540Y-61477706D01*
X125236330Y-61434559D01*
X125240922Y-61382089D01*
X125256260Y-61360185D01*
X126050823Y-60565623D01*
X126050822Y-60565622D01*
X125799071Y-60382713D01*
X125799061Y-60382707D01*
X125517884Y-60228129D01*
X125219553Y-60110011D01*
X124908766Y-60030214D01*
X124590430Y-59990000D01*
X124269570Y-59990000D01*
X123951234Y-60030214D01*
X123951232Y-60030214D01*
X123640446Y-60110011D01*
X123342115Y-60228129D01*
X123060938Y-60382707D01*
X123060928Y-60382713D01*
X122809176Y-60565621D01*
X122809176Y-60565624D01*
X123603738Y-61360185D01*
X123625998Y-61407921D01*
X123612366Y-61458797D01*
X123593459Y-61477705D01*
X123558925Y-61501887D01*
X123558919Y-61501892D01*
X123391892Y-61668919D01*
X123391887Y-61668925D01*
X123367705Y-61703459D01*
X123324558Y-61733668D01*
X123272088Y-61729076D01*
X123250185Y-61713738D01*
X122458773Y-60922326D01*
X122458772Y-60922326D01*
X122362929Y-61038181D01*
X122362922Y-61038192D01*
X122191003Y-61309093D01*
X122054378Y-61599432D01*
X122054378Y-61599433D01*
X121955231Y-61904577D01*
X121955226Y-61904597D01*
X121895106Y-62219758D01*
X121895105Y-62219767D01*
X121874958Y-62539999D01*
X121874958Y-62540000D01*
X107790638Y-62540000D01*
X107774894Y-62289767D01*
X107774893Y-62289758D01*
X107714773Y-61974597D01*
X107714768Y-61974577D01*
X107615621Y-61669433D01*
X107615621Y-61669432D01*
X107478996Y-61379093D01*
X107307077Y-61108192D01*
X107307076Y-61108190D01*
X107211225Y-60992326D01*
X106419813Y-61783738D01*
X106372077Y-61805998D01*
X106321201Y-61792366D01*
X106302292Y-61773457D01*
X106278112Y-61738925D01*
X106278110Y-61738922D01*
X106111078Y-61571890D01*
X106076540Y-61547706D01*
X106046330Y-61504559D01*
X106050922Y-61452089D01*
X106066260Y-61430185D01*
X106860823Y-60635623D01*
X106860822Y-60635622D01*
X106609071Y-60452713D01*
X106609061Y-60452707D01*
X106327884Y-60298129D01*
X106029553Y-60180011D01*
X105718766Y-60100214D01*
X105400430Y-60060000D01*
X105079570Y-60060000D01*
X104761234Y-60100214D01*
X104761232Y-60100214D01*
X104450446Y-60180011D01*
X104152115Y-60298129D01*
X103870938Y-60452707D01*
X103870928Y-60452713D01*
X103619176Y-60635621D01*
X103619176Y-60635624D01*
X104413738Y-61430185D01*
X104435998Y-61477921D01*
X104422366Y-61528797D01*
X104403459Y-61547705D01*
X104368925Y-61571887D01*
X104368919Y-61571892D01*
X104201892Y-61738919D01*
X104201887Y-61738925D01*
X104177705Y-61773459D01*
X104134558Y-61803668D01*
X104082088Y-61799076D01*
X104060185Y-61783738D01*
X103268773Y-60992326D01*
X103268772Y-60992326D01*
X103172929Y-61108181D01*
X103172922Y-61108192D01*
X103001003Y-61379093D01*
X102864378Y-61669432D01*
X102864378Y-61669433D01*
X102765231Y-61974577D01*
X102765226Y-61974597D01*
X102705106Y-62289758D01*
X102705105Y-62289767D01*
X102684958Y-62609999D01*
X102684958Y-62610000D01*
X88500500Y-62610000D01*
X88500500Y-54312069D01*
X103033500Y-54312069D01*
X103033501Y-56507930D01*
X103033501Y-56507929D01*
X103039816Y-56598926D01*
X103089948Y-56812077D01*
X103089949Y-56812079D01*
X103178393Y-57012386D01*
X103302138Y-57193031D01*
X103456969Y-57347862D01*
X103637614Y-57471607D01*
X103837921Y-57560051D01*
X104051069Y-57610183D01*
X104078370Y-57612078D01*
X104142068Y-57616500D01*
X104142069Y-57616500D01*
X104142074Y-57616499D01*
X104142075Y-57616500D01*
X105239893Y-57616499D01*
X106337929Y-57616499D01*
X106383427Y-57613341D01*
X106428931Y-57610183D01*
X106642079Y-57560051D01*
X106842386Y-57471607D01*
X107023031Y-57347862D01*
X107177862Y-57193031D01*
X107301607Y-57012386D01*
X107390051Y-56812079D01*
X107440183Y-56598931D01*
X107445042Y-56528927D01*
X107446500Y-56507932D01*
X107446500Y-56507931D01*
X107446499Y-54312070D01*
X107446499Y-54312071D01*
X107446498Y-54312068D01*
X107441641Y-54242075D01*
X107441641Y-54242069D01*
X122223500Y-54242069D01*
X122223501Y-56437930D01*
X122223501Y-56437929D01*
X122229816Y-56528926D01*
X122279948Y-56742077D01*
X122279949Y-56742079D01*
X122368393Y-56942386D01*
X122492138Y-57123031D01*
X122646969Y-57277862D01*
X122827614Y-57401607D01*
X123027921Y-57490051D01*
X123241069Y-57540183D01*
X123268370Y-57542078D01*
X123332068Y-57546500D01*
X123332069Y-57546500D01*
X123332074Y-57546499D01*
X123332075Y-57546500D01*
X124431018Y-57546499D01*
X125527929Y-57546499D01*
X125573427Y-57543341D01*
X125618931Y-57540183D01*
X125832079Y-57490051D01*
X126032386Y-57401607D01*
X126213031Y-57277862D01*
X126367862Y-57123031D01*
X126491607Y-56942386D01*
X126580051Y-56742079D01*
X126630183Y-56528931D01*
X126636500Y-56437925D01*
X126636499Y-54242076D01*
X126636498Y-54242068D01*
X126630183Y-54151073D01*
X126630183Y-54151072D01*
X126630183Y-54151069D01*
X126580051Y-53937921D01*
X126491607Y-53737614D01*
X126367862Y-53556969D01*
X126213031Y-53402138D01*
X126099233Y-53324184D01*
X126032388Y-53278394D01*
X126032386Y-53278393D01*
X125832077Y-53189948D01*
X125618927Y-53139816D01*
X125527932Y-53133500D01*
X125527931Y-53133500D01*
X125527925Y-53133500D01*
X124431018Y-53133500D01*
X123332070Y-53133501D01*
X123332071Y-53133501D01*
X123241073Y-53139816D01*
X123027922Y-53189948D01*
X122827613Y-53278393D01*
X122827611Y-53278394D01*
X122646966Y-53402140D01*
X122492140Y-53556966D01*
X122368394Y-53737611D01*
X122368393Y-53737613D01*
X122279948Y-53937922D01*
X122229816Y-54151072D01*
X122223500Y-54242068D01*
X122223500Y-54242069D01*
X107441641Y-54242069D01*
X107440183Y-54221069D01*
X107390051Y-54007921D01*
X107301607Y-53807614D01*
X107177862Y-53626969D01*
X107023031Y-53472138D01*
X106909232Y-53394184D01*
X106842388Y-53348394D01*
X106842386Y-53348393D01*
X106642077Y-53259948D01*
X106428927Y-53209816D01*
X106337932Y-53203500D01*
X106337931Y-53203500D01*
X106337925Y-53203500D01*
X105239893Y-53203500D01*
X104142070Y-53203501D01*
X104142071Y-53203501D01*
X104051073Y-53209816D01*
X103837922Y-53259948D01*
X103637613Y-53348393D01*
X103637611Y-53348394D01*
X103456966Y-53472140D01*
X103302140Y-53626966D01*
X103178394Y-53807611D01*
X103178393Y-53807613D01*
X103089948Y-54007922D01*
X103039816Y-54221072D01*
X103033500Y-54312068D01*
X103033500Y-54312069D01*
X88500500Y-54312069D01*
X88500500Y-52825414D01*
X97983500Y-52825414D01*
X97992580Y-52871062D01*
X97992581Y-52871065D01*
X98027168Y-52922829D01*
X98027170Y-52922831D01*
X98078934Y-52957418D01*
X98078937Y-52957420D01*
X98124586Y-52966500D01*
X98124590Y-52966500D01*
X100355410Y-52966500D01*
X100355414Y-52966500D01*
X100401063Y-52957420D01*
X100452830Y-52922830D01*
X100487420Y-52871063D01*
X100496500Y-52825414D01*
X100496500Y-52755414D01*
X129173500Y-52755414D01*
X129182580Y-52801062D01*
X129182581Y-52801065D01*
X129217168Y-52852829D01*
X129217170Y-52852831D01*
X129244457Y-52871063D01*
X129268937Y-52887420D01*
X129314586Y-52896500D01*
X129314590Y-52896500D01*
X131545410Y-52896500D01*
X131545414Y-52896500D01*
X131591063Y-52887420D01*
X131642830Y-52852830D01*
X131677420Y-52801063D01*
X131686500Y-52755414D01*
X131686500Y-51624586D01*
X131677420Y-51578937D01*
X131666491Y-51562581D01*
X131642831Y-51527170D01*
X131642829Y-51527168D01*
X131591065Y-51492581D01*
X131591063Y-51492580D01*
X131545414Y-51483500D01*
X129314586Y-51483500D01*
X129268937Y-51492580D01*
X129268934Y-51492581D01*
X129217170Y-51527168D01*
X129217168Y-51527170D01*
X129182581Y-51578934D01*
X129182580Y-51578937D01*
X129173500Y-51624586D01*
X129173500Y-52755414D01*
X100496500Y-52755414D01*
X100496500Y-51694586D01*
X100487420Y-51648937D01*
X100471152Y-51624590D01*
X100452831Y-51597170D01*
X100452829Y-51597168D01*
X100401065Y-51562581D01*
X100401063Y-51562580D01*
X100355414Y-51553500D01*
X98124586Y-51553500D01*
X98078936Y-51562580D01*
X98078937Y-51562580D01*
X98078934Y-51562581D01*
X98027170Y-51597168D01*
X98027168Y-51597170D01*
X97992581Y-51648934D01*
X97992580Y-51648937D01*
X97983500Y-51694586D01*
X97983500Y-52825414D01*
X88500500Y-52825414D01*
X88500500Y-49590000D01*
X89070001Y-49590000D01*
X89070001Y-50039992D01*
X89080493Y-50142693D01*
X89135642Y-50309122D01*
X89227680Y-50458341D01*
X89351658Y-50582319D01*
X89500877Y-50674357D01*
X89667305Y-50729506D01*
X89770013Y-50739999D01*
X89894999Y-50739999D01*
X89895000Y-50739998D01*
X89895000Y-49590000D01*
X90395000Y-49590000D01*
X90395000Y-50739999D01*
X90519977Y-50739999D01*
X90519992Y-50739998D01*
X90622693Y-50729506D01*
X90789122Y-50674357D01*
X90938341Y-50582319D01*
X91062319Y-50458341D01*
X91154357Y-50309122D01*
X91209506Y-50142694D01*
X91219999Y-50039993D01*
X91220000Y-50039979D01*
X91220000Y-49590000D01*
X90395000Y-49590000D01*
X89895000Y-49590000D01*
X89070001Y-49590000D01*
X88500500Y-49590000D01*
X88500500Y-49090000D01*
X89070000Y-49090000D01*
X89895000Y-49090000D01*
X89895000Y-47940000D01*
X90395000Y-47940000D01*
X90395000Y-49090000D01*
X91219999Y-49090000D01*
X91219999Y-48640023D01*
X91219998Y-48640007D01*
X91209506Y-48537306D01*
X91154357Y-48370877D01*
X91062319Y-48221658D01*
X90938341Y-48097680D01*
X90789122Y-48005642D01*
X90622694Y-47950493D01*
X90519993Y-47940000D01*
X90395000Y-47940000D01*
X89895000Y-47940000D01*
X89770024Y-47940000D01*
X89770006Y-47940001D01*
X89667306Y-47950493D01*
X89500877Y-48005642D01*
X89351658Y-48097680D01*
X89227680Y-48221658D01*
X89135642Y-48370877D01*
X89080493Y-48537305D01*
X89070000Y-48640006D01*
X89070000Y-49090000D01*
X88500500Y-49090000D01*
X88500500Y-43235002D01*
X89838630Y-43235002D01*
X89849512Y-43345485D01*
X89854607Y-43397223D01*
X89858063Y-43432307D01*
X89858063Y-43432308D01*
X89915614Y-43622031D01*
X89915616Y-43622036D01*
X89981385Y-43745080D01*
X90009077Y-43796887D01*
X90134853Y-43950147D01*
X90288113Y-44075923D01*
X90462965Y-44169384D01*
X90462967Y-44169384D01*
X90462968Y-44169385D01*
X90469878Y-44171481D01*
X90652692Y-44226937D01*
X90801292Y-44241572D01*
X90849997Y-44246370D01*
X90850000Y-44246370D01*
X90850003Y-44246370D01*
X90891824Y-44242250D01*
X91047308Y-44226937D01*
X91237035Y-44169384D01*
X91411887Y-44075923D01*
X91565147Y-43950147D01*
X91690923Y-43796887D01*
X91784384Y-43622035D01*
X91841937Y-43432308D01*
X91861370Y-43235000D01*
X91841937Y-43037692D01*
X91816094Y-42952499D01*
X92955488Y-42952499D01*
X92955489Y-42952500D01*
X93477500Y-42952500D01*
X93477500Y-42522500D01*
X92965488Y-42522500D01*
X92972942Y-42579125D01*
X92972944Y-42579132D01*
X93021336Y-42695962D01*
X93023633Y-42748583D01*
X93021336Y-42754894D01*
X92962944Y-42895867D01*
X92955488Y-42952499D01*
X91816094Y-42952499D01*
X91786453Y-42854786D01*
X91784385Y-42847968D01*
X91784383Y-42847963D01*
X91757262Y-42797223D01*
X91690923Y-42673113D01*
X91565147Y-42519853D01*
X91411887Y-42394077D01*
X91353737Y-42362995D01*
X91237036Y-42300616D01*
X91237031Y-42300614D01*
X91047308Y-42243063D01*
X90850003Y-42223630D01*
X90849997Y-42223630D01*
X90652692Y-42243063D01*
X90652691Y-42243063D01*
X90462968Y-42300614D01*
X90462963Y-42300616D01*
X90288112Y-42394077D01*
X90134853Y-42519853D01*
X90009077Y-42673112D01*
X89915616Y-42847963D01*
X89915614Y-42847968D01*
X89858063Y-43037691D01*
X89858063Y-43037692D01*
X89838630Y-43234997D01*
X89838630Y-43235002D01*
X88500500Y-43235002D01*
X88500500Y-42122499D01*
X92965488Y-42122499D01*
X92965489Y-42122500D01*
X93487500Y-42122500D01*
X93487500Y-41626539D01*
X93487498Y-41626538D01*
X93400871Y-41637942D01*
X93254907Y-41698402D01*
X93129574Y-41794574D01*
X93033402Y-41919907D01*
X92972944Y-42065868D01*
X92965488Y-42122499D01*
X88500500Y-42122499D01*
X88500500Y-41592824D01*
X89500000Y-41592824D01*
X89506402Y-41652374D01*
X89506402Y-41652376D01*
X89556645Y-41787087D01*
X89642811Y-41902188D01*
X89757912Y-41988354D01*
X89892624Y-42038597D01*
X89952176Y-42045000D01*
X90600000Y-42045000D01*
X90600000Y-41250316D01*
X90618015Y-41200821D01*
X90663629Y-41174486D01*
X90702030Y-41179387D01*
X90702400Y-41178128D01*
X90707680Y-41179678D01*
X90707685Y-41179680D01*
X90775636Y-41189450D01*
X90814234Y-41195000D01*
X90814237Y-41195000D01*
X90885766Y-41195000D01*
X90917874Y-41190382D01*
X90992315Y-41179680D01*
X90992321Y-41179677D01*
X90997600Y-41178128D01*
X90998065Y-41179714D01*
X91043517Y-41176100D01*
X91086422Y-41206651D01*
X91100000Y-41250316D01*
X91100000Y-42045000D01*
X91747824Y-42045000D01*
X91807374Y-42038597D01*
X91807376Y-42038597D01*
X91942087Y-41988354D01*
X92057188Y-41902188D01*
X92143354Y-41787087D01*
X92193597Y-41652376D01*
X92193597Y-41652374D01*
X92200000Y-41592824D01*
X92200000Y-40945000D01*
X91400562Y-40945000D01*
X91351067Y-40926985D01*
X91324732Y-40881371D01*
X91326681Y-40846306D01*
X91336462Y-40812994D01*
X91350000Y-40766889D01*
X91350000Y-40623111D01*
X91326681Y-40543693D01*
X91330022Y-40491129D01*
X91366369Y-40453009D01*
X91400562Y-40445000D01*
X92200000Y-40445000D01*
X92200000Y-39797175D01*
X92193597Y-39737625D01*
X92193597Y-39737623D01*
X92143354Y-39602912D01*
X92057188Y-39487811D01*
X91942087Y-39401645D01*
X91807375Y-39351402D01*
X91747824Y-39345000D01*
X91100000Y-39345000D01*
X91100000Y-40139684D01*
X91081985Y-40189179D01*
X91036371Y-40215514D01*
X90997968Y-40210614D01*
X90997599Y-40211872D01*
X90992316Y-40210320D01*
X90992315Y-40210320D01*
X90965677Y-40206490D01*
X90885766Y-40195000D01*
X90885763Y-40195000D01*
X90814237Y-40195000D01*
X90814234Y-40195000D01*
X90707685Y-40210320D01*
X90702401Y-40211872D01*
X90701936Y-40210290D01*
X90656467Y-40213896D01*
X90613568Y-40183336D01*
X90599999Y-40139684D01*
X90600000Y-39345000D01*
X89952176Y-39345000D01*
X89892625Y-39351402D01*
X89892623Y-39351402D01*
X89757912Y-39401645D01*
X89642811Y-39487811D01*
X89556645Y-39602912D01*
X89506402Y-39737623D01*
X89506402Y-39737625D01*
X89500000Y-39797175D01*
X89500000Y-40445000D01*
X90299438Y-40445000D01*
X90348933Y-40463015D01*
X90375268Y-40508629D01*
X90373319Y-40543693D01*
X90370255Y-40554129D01*
X90350000Y-40623109D01*
X90350000Y-40766890D01*
X90373319Y-40846306D01*
X90369978Y-40898871D01*
X90333631Y-40936991D01*
X90299438Y-40945000D01*
X89500000Y-40945000D01*
X89500000Y-41592824D01*
X88500500Y-41592824D01*
X88500500Y-38677500D01*
X88518515Y-38628005D01*
X88564129Y-38601670D01*
X88577500Y-38600500D01*
X110263728Y-38600500D01*
X110313223Y-38618515D01*
G37*
%TD.AperFunction*%
%TA.AperFunction,Conductor*%
G36*
X137667601Y-42818015D02*
G01*
X137672553Y-42822553D01*
X138377020Y-43527020D01*
X138399280Y-43574756D01*
X138399566Y-43582494D01*
X138350380Y-47271473D01*
X138331707Y-47320723D01*
X138331125Y-47321391D01*
X137937382Y-47767634D01*
X137626061Y-48120465D01*
X137622990Y-48123945D01*
X137576735Y-48149139D01*
X137565252Y-48150000D01*
X134081894Y-48150000D01*
X134032399Y-48131985D01*
X134027447Y-48127447D01*
X132200000Y-46300000D01*
X134100000Y-48000000D01*
X137500000Y-48000000D01*
X138200000Y-47200000D01*
X138100000Y-43500000D01*
X137600000Y-43000000D01*
X133800000Y-43000000D01*
X132700000Y-44100000D01*
X132250000Y-44100000D01*
X132850003Y-43499997D01*
X133250830Y-43032365D01*
X133426952Y-42826888D01*
X133472841Y-42801034D01*
X133485415Y-42800000D01*
X137618106Y-42800000D01*
X137667601Y-42818015D01*
G37*
%TD.AperFunction*%
%TA.AperFunction,Conductor*%
G36*
X112022000Y-45259167D02*
G01*
X112037947Y-45271404D01*
X113639037Y-46872494D01*
X113646328Y-46882624D01*
X113646872Y-46882214D01*
X113651170Y-46887906D01*
X113651171Y-46887907D01*
X113687633Y-46921146D01*
X113688899Y-46922356D01*
X113703353Y-46936810D01*
X113707034Y-46939331D01*
X113711206Y-46942635D01*
X113733538Y-46962994D01*
X113735855Y-46965106D01*
X113747789Y-46969729D01*
X113763493Y-46978006D01*
X113774051Y-46985239D01*
X113774053Y-46985240D01*
X113806520Y-46992876D01*
X113811605Y-46994451D01*
X113842705Y-47006500D01*
X113855509Y-47006500D01*
X113873137Y-47008545D01*
X113874905Y-47008960D01*
X113885599Y-47011476D01*
X113904040Y-47008903D01*
X113918625Y-47006870D01*
X113923949Y-47006500D01*
X115242705Y-47006500D01*
X116493304Y-47006500D01*
X116542799Y-47024515D01*
X116551492Y-47033071D01*
X116581442Y-47067635D01*
X116697921Y-47142491D01*
X116830771Y-47181500D01*
X116830773Y-47181500D01*
X116969227Y-47181500D01*
X116969229Y-47181500D01*
X117102079Y-47142491D01*
X117218558Y-47067635D01*
X117309229Y-46962995D01*
X117366459Y-46837676D01*
X117403404Y-46800140D01*
X117455837Y-46795133D01*
X117499221Y-46825000D01*
X117513499Y-46869665D01*
X117513499Y-47170144D01*
X117495484Y-47219639D01*
X117490946Y-47224591D01*
X116934592Y-47780947D01*
X116886856Y-47803207D01*
X116880145Y-47803500D01*
X111008500Y-47803500D01*
X110959005Y-47785485D01*
X110932670Y-47739871D01*
X110931500Y-47726500D01*
X110931500Y-47724590D01*
X110931500Y-47724586D01*
X110922420Y-47678937D01*
X110914868Y-47667635D01*
X110883617Y-47620863D01*
X110884903Y-47620003D01*
X110866348Y-47580211D01*
X110879980Y-47529335D01*
X110923126Y-47499124D01*
X110943055Y-47496500D01*
X112540410Y-47496500D01*
X112540414Y-47496500D01*
X112586063Y-47487420D01*
X112623852Y-47462170D01*
X112637829Y-47452831D01*
X112637831Y-47452829D01*
X112654702Y-47427580D01*
X112672420Y-47401063D01*
X112681500Y-47355414D01*
X112681500Y-46724586D01*
X112672420Y-46678937D01*
X112662443Y-46664005D01*
X112637831Y-46627170D01*
X112637829Y-46627168D01*
X112586065Y-46592581D01*
X112586063Y-46592580D01*
X112540414Y-46583500D01*
X112540411Y-46583500D01*
X111983500Y-46583500D01*
X111934005Y-46565485D01*
X111907670Y-46519871D01*
X111906500Y-46506500D01*
X111906500Y-45325851D01*
X111924515Y-45276356D01*
X111970129Y-45250021D01*
X112022000Y-45259167D01*
G37*
%TD.AperFunction*%
%TA.AperFunction,Conductor*%
G36*
X130000000Y-45826337D02*
G01*
X129970183Y-45815485D01*
X129943848Y-45769871D01*
X129949635Y-45724515D01*
X129966746Y-45687049D01*
X129986451Y-45550000D01*
X129966746Y-45412951D01*
X129909229Y-45287005D01*
X129818558Y-45182365D01*
X129702079Y-45107509D01*
X129665304Y-45096710D01*
X129613919Y-45081622D01*
X129571505Y-45050392D01*
X129559088Y-44999205D01*
X129581166Y-44953294D01*
X129611909Y-44922552D01*
X129659645Y-44900293D01*
X129666355Y-44900000D01*
X130000000Y-44900000D01*
X130000000Y-45826337D01*
G37*
%TD.AperFunction*%
%TA.AperFunction,Conductor*%
G36*
X106405995Y-40864515D02*
G01*
X106432330Y-40910129D01*
X106433500Y-40923500D01*
X106433500Y-41055414D01*
X106442580Y-41101062D01*
X106442581Y-41101065D01*
X106477168Y-41152829D01*
X106477170Y-41152831D01*
X106520731Y-41181937D01*
X106528937Y-41187420D01*
X106574586Y-41196500D01*
X106704276Y-41196500D01*
X106753771Y-41214515D01*
X106780106Y-41260129D01*
X106780617Y-41272900D01*
X106781067Y-41272886D01*
X106781219Y-41277726D01*
X106781219Y-41277727D01*
X106781780Y-41295581D01*
X106783500Y-41350310D01*
X106783500Y-41381310D01*
X106784568Y-41389767D01*
X106784852Y-41393379D01*
X106786428Y-41443511D01*
X106793461Y-41467721D01*
X106795909Y-41479545D01*
X106799070Y-41504561D01*
X106799071Y-41504565D01*
X106817536Y-41551204D01*
X106818711Y-41554636D01*
X106832703Y-41602795D01*
X106832706Y-41602802D01*
X106845535Y-41624495D01*
X106850851Y-41635345D01*
X106860130Y-41658781D01*
X106860134Y-41658788D01*
X106889612Y-41699362D01*
X106891603Y-41702394D01*
X106917138Y-41745570D01*
X106917139Y-41745571D01*
X106917140Y-41745572D01*
X106934967Y-41763399D01*
X106942810Y-41772583D01*
X106957623Y-41792972D01*
X106957629Y-41792978D01*
X106996280Y-41824953D01*
X106998964Y-41827396D01*
X107965565Y-42793997D01*
X108928522Y-43756953D01*
X108939088Y-43770140D01*
X108940138Y-43771795D01*
X108940142Y-43771799D01*
X108993077Y-43821509D01*
X109014979Y-43843411D01*
X109014983Y-43843414D01*
X109014991Y-43843422D01*
X109021726Y-43848646D01*
X109024484Y-43851002D01*
X109044007Y-43869335D01*
X109061052Y-43885341D01*
X109083142Y-43897485D01*
X109093238Y-43904118D01*
X109113153Y-43919566D01*
X109113156Y-43919567D01*
X109113158Y-43919569D01*
X109159203Y-43939493D01*
X109162439Y-43941078D01*
X109206405Y-43965250D01*
X109230824Y-43971519D01*
X109242244Y-43975428D01*
X109265386Y-43985443D01*
X109314929Y-43993289D01*
X109318468Y-43994022D01*
X109367065Y-44006500D01*
X109392273Y-44006500D01*
X109404319Y-44007448D01*
X109429213Y-44011391D01*
X109429213Y-44011390D01*
X109429214Y-44011391D01*
X109479149Y-44006670D01*
X109482768Y-44006500D01*
X111576664Y-44006500D01*
X111626159Y-44024515D01*
X111652494Y-44070129D01*
X111643348Y-44122000D01*
X111603000Y-44155856D01*
X111598359Y-44157380D01*
X111597926Y-44157507D01*
X111597920Y-44157509D01*
X111486174Y-44229324D01*
X111481442Y-44232365D01*
X111451495Y-44266924D01*
X111405470Y-44292533D01*
X111393304Y-44293500D01*
X103722557Y-44293500D01*
X103710240Y-44291490D01*
X103710146Y-44292167D01*
X103703078Y-44291181D01*
X103653812Y-44293459D01*
X103652033Y-44293500D01*
X103631594Y-44293500D01*
X103627205Y-44294320D01*
X103621916Y-44294933D01*
X103588608Y-44296474D01*
X103576891Y-44301647D01*
X103559950Y-44306893D01*
X103547361Y-44309247D01*
X103519009Y-44326801D01*
X103514288Y-44329289D01*
X103483785Y-44342757D01*
X103483783Y-44342758D01*
X103474727Y-44351814D01*
X103460825Y-44362826D01*
X103449937Y-44369568D01*
X103449936Y-44369569D01*
X103429843Y-44396176D01*
X103426339Y-44400202D01*
X102367947Y-45458595D01*
X102320211Y-45480855D01*
X102269335Y-45467223D01*
X102239124Y-45424077D01*
X102236500Y-45404148D01*
X102236500Y-41933399D01*
X102254515Y-41883904D01*
X102300129Y-41857569D01*
X102352000Y-41866715D01*
X102385856Y-41907063D01*
X102389715Y-41922437D01*
X102392105Y-41939055D01*
X102393254Y-41947048D01*
X102393254Y-41947049D01*
X102450770Y-42072994D01*
X102450771Y-42072995D01*
X102541442Y-42177635D01*
X102657921Y-42252491D01*
X102790771Y-42291500D01*
X102790773Y-42291500D01*
X102929227Y-42291500D01*
X102929229Y-42291500D01*
X103062079Y-42252491D01*
X103178558Y-42177635D01*
X103207578Y-42144143D01*
X103253603Y-42118534D01*
X103262208Y-42117649D01*
X103280737Y-42116793D01*
X103286189Y-42116541D01*
X103287967Y-42116500D01*
X103308397Y-42116500D01*
X103308400Y-42116500D01*
X103312775Y-42115681D01*
X103318080Y-42115066D01*
X103328479Y-42114584D01*
X103351389Y-42113526D01*
X103363099Y-42108355D01*
X103380055Y-42103105D01*
X103392638Y-42100753D01*
X103420988Y-42083199D01*
X103425707Y-42080712D01*
X103426423Y-42080396D01*
X103456215Y-42067242D01*
X103465267Y-42058188D01*
X103479185Y-42047165D01*
X103490064Y-42040430D01*
X103510166Y-42013808D01*
X103513654Y-42009801D01*
X104398363Y-41125091D01*
X104446098Y-41102832D01*
X104489108Y-41111632D01*
X104512965Y-41124384D01*
X104512967Y-41124384D01*
X104512968Y-41124385D01*
X104534665Y-41130966D01*
X104702692Y-41181937D01*
X104841487Y-41195607D01*
X104899997Y-41201370D01*
X104900000Y-41201370D01*
X104900003Y-41201370D01*
X104949456Y-41196499D01*
X105097308Y-41181937D01*
X105287035Y-41124384D01*
X105461887Y-41030923D01*
X105615147Y-40905147D01*
X105640173Y-40874651D01*
X105685497Y-40847820D01*
X105699695Y-40846500D01*
X106356500Y-40846500D01*
X106405995Y-40864515D01*
G37*
%TD.AperFunction*%
%TA.AperFunction,Conductor*%
G36*
X130479639Y-43267515D02*
G01*
X130505974Y-43313129D01*
X130496828Y-43365000D01*
X130484591Y-43380947D01*
X129338092Y-44527447D01*
X129290356Y-44549707D01*
X129283645Y-44550000D01*
X129250000Y-44550000D01*
X129242706Y-44601053D01*
X129220927Y-44644609D01*
X128967947Y-44897590D01*
X128920211Y-44919850D01*
X128869335Y-44906218D01*
X128839124Y-44863072D01*
X128836500Y-44843143D01*
X128836500Y-44757194D01*
X128836553Y-44755178D01*
X128836689Y-44752595D01*
X128838807Y-44712177D01*
X128829634Y-44688280D01*
X128826204Y-44676703D01*
X128820881Y-44651658D01*
X128820880Y-44651656D01*
X128820879Y-44651654D01*
X128815590Y-44644374D01*
X128805999Y-44626710D01*
X128802777Y-44618315D01*
X128784681Y-44600219D01*
X128776833Y-44591031D01*
X128761785Y-44570319D01*
X128753989Y-44565818D01*
X128738044Y-44553582D01*
X128494598Y-44310137D01*
X128472338Y-44262401D01*
X128472828Y-44244738D01*
X128486451Y-44150000D01*
X128466746Y-44012951D01*
X128409229Y-43887005D01*
X128318558Y-43782365D01*
X128202079Y-43707509D01*
X128069229Y-43668500D01*
X127930771Y-43668500D01*
X127797921Y-43707509D01*
X127797920Y-43707509D01*
X127681442Y-43782365D01*
X127590770Y-43887005D01*
X127533254Y-44012950D01*
X127533254Y-44012951D01*
X127519540Y-44108331D01*
X127494665Y-44154758D01*
X127445766Y-44174333D01*
X127431272Y-44173423D01*
X127427751Y-44172865D01*
X127408485Y-44167157D01*
X127400273Y-44163500D01*
X127400270Y-44163500D01*
X127374678Y-44163500D01*
X127362633Y-44162552D01*
X127337348Y-44158547D01*
X127337343Y-44158547D01*
X127328654Y-44160876D01*
X127308724Y-44163500D01*
X127026023Y-44163500D01*
X126976528Y-44145485D01*
X126950193Y-44099871D01*
X126959339Y-44048000D01*
X126984392Y-44021724D01*
X127068558Y-43967635D01*
X127159229Y-43862995D01*
X127216746Y-43737049D01*
X127236451Y-43600000D01*
X127216746Y-43462951D01*
X127169039Y-43358486D01*
X127164865Y-43305981D01*
X127195418Y-43263077D01*
X127239081Y-43249500D01*
X130430144Y-43249500D01*
X130479639Y-43267515D01*
G37*
%TD.AperFunction*%
%TA.AperFunction,Conductor*%
G36*
X96778933Y-39958015D02*
G01*
X96805268Y-40003629D01*
X96803319Y-40038694D01*
X96780000Y-40118109D01*
X96780000Y-40261890D01*
X96803319Y-40341306D01*
X96799978Y-40393871D01*
X96763631Y-40431991D01*
X96729438Y-40440000D01*
X95290562Y-40440000D01*
X95241067Y-40421985D01*
X95214732Y-40376371D01*
X95216681Y-40341306D01*
X95232625Y-40287005D01*
X95240000Y-40261889D01*
X95240000Y-40118111D01*
X95216681Y-40038693D01*
X95220022Y-39986129D01*
X95256369Y-39948009D01*
X95290562Y-39940000D01*
X96729438Y-39940000D01*
X96778933Y-39958015D01*
G37*
%TD.AperFunction*%
%TD*%
M02*
